G04 #@! TF.GenerationSoftware,KiCad,Pcbnew,5.1.6*
G04 #@! TF.CreationDate,2020-08-10T12:56:34+02:00*
G04 #@! TF.ProjectId,nixie_clock_holder,6e697869-655f-4636-9c6f-636b5f686f6c,rev?*
G04 #@! TF.SameCoordinates,Original*
G04 #@! TF.FileFunction,Soldermask,Bot*
G04 #@! TF.FilePolarity,Negative*
%FSLAX46Y46*%
G04 Gerber Fmt 4.6, Leading zero omitted, Abs format (unit mm)*
G04 Created by KiCad (PCBNEW 5.1.6) date 2020-08-10 12:56:34*
%MOMM*%
%LPD*%
G01*
G04 APERTURE LIST*
%ADD10C,2.800000*%
%ADD11C,1.446200*%
%ADD12O,1.700000X1.700000*%
%ADD13C,1.700000*%
%ADD14R,0.800000X1.750000*%
%ADD15O,1.800000X1.800000*%
%ADD16R,1.800000X1.800000*%
G04 APERTURE END LIST*
D10*
G04 #@! TO.C,H1*
X223000000Y-127500000D03*
G04 #@! TD*
G04 #@! TO.C,H2*
X222500000Y-82000000D03*
G04 #@! TD*
G04 #@! TO.C,H3*
X173000000Y-82000000D03*
G04 #@! TD*
D11*
G04 #@! TO.C,N1*
X183875280Y-98521220D03*
X178124720Y-98521220D03*
X181000000Y-97812560D03*
X174855740Y-103255780D03*
X175213880Y-106194560D03*
X176895360Y-108632960D03*
X179519180Y-110009640D03*
X182480820Y-110009640D03*
X185104640Y-108632960D03*
X186786120Y-106194560D03*
X187144260Y-103255780D03*
X186092700Y-100484640D03*
X175907300Y-100484640D03*
G04 #@! TD*
G04 #@! TO.C,N2*
X216875280Y-98521220D03*
X211124720Y-98521220D03*
X214000000Y-97812560D03*
X207855740Y-103255780D03*
X208213880Y-106194560D03*
X209895360Y-108632960D03*
X212519180Y-110009640D03*
X215480820Y-110009640D03*
X218104640Y-108632960D03*
X219786120Y-106194560D03*
X220144260Y-103255780D03*
X219092700Y-100484640D03*
X208907300Y-100484640D03*
G04 #@! TD*
D12*
G04 #@! TO.C,R10*
X196160000Y-116000000D03*
D13*
X186000000Y-116000000D03*
G04 #@! TD*
D12*
G04 #@! TO.C,R9*
X198160000Y-121000000D03*
D13*
X188000000Y-121000000D03*
G04 #@! TD*
D12*
G04 #@! TO.C,R8*
X201840000Y-85000000D03*
D13*
X212000000Y-85000000D03*
G04 #@! TD*
D12*
G04 #@! TO.C,R7*
X201840000Y-89000000D03*
D13*
X212000000Y-89000000D03*
G04 #@! TD*
D12*
G04 #@! TO.C,R6*
X217000000Y-80840000D03*
D13*
X217000000Y-91000000D03*
G04 #@! TD*
D12*
G04 #@! TO.C,R5*
X199840000Y-93000000D03*
D13*
X210000000Y-93000000D03*
G04 #@! TD*
D12*
G04 #@! TO.C,R4*
X195160000Y-93000000D03*
D13*
X185000000Y-93000000D03*
G04 #@! TD*
D12*
G04 #@! TO.C,R3*
X179000000Y-80840000D03*
D13*
X179000000Y-91000000D03*
G04 #@! TD*
D12*
G04 #@! TO.C,R2*
X219500000Y-124160000D03*
D13*
X219500000Y-114000000D03*
G04 #@! TD*
D12*
G04 #@! TO.C,R1*
X174000000Y-124160000D03*
D13*
X174000000Y-114000000D03*
G04 #@! TD*
D14*
G04 #@! TO.C,O1*
X202445000Y-102800000D03*
X201175000Y-102800000D03*
X199905000Y-102800000D03*
X198635000Y-102800000D03*
X197365000Y-102800000D03*
X196095000Y-102800000D03*
X194825000Y-102800000D03*
X193555000Y-102800000D03*
X193555000Y-109200000D03*
X194825000Y-109200000D03*
X196095000Y-109200000D03*
X197365000Y-109200000D03*
X198635000Y-109200000D03*
X199905000Y-109200000D03*
X201175000Y-109200000D03*
X202445000Y-109200000D03*
G04 #@! TD*
D15*
G04 #@! TO.C,J3*
X183120000Y-128000000D03*
X180580000Y-128000000D03*
X178040000Y-128000000D03*
D16*
X175500000Y-128000000D03*
G04 #@! TD*
D15*
G04 #@! TO.C,J2*
X188560000Y-128000000D03*
X191100000Y-128000000D03*
X193640000Y-128000000D03*
X196180000Y-128000000D03*
X198720000Y-128000000D03*
X201260000Y-128000000D03*
X203800000Y-128000000D03*
X206340000Y-128000000D03*
X208880000Y-128000000D03*
X211420000Y-128000000D03*
X213960000Y-128000000D03*
D16*
X216500000Y-128000000D03*
G04 #@! TD*
D15*
G04 #@! TO.C,J1*
X212240000Y-81000000D03*
X209700000Y-81000000D03*
X207160000Y-81000000D03*
X204620000Y-81000000D03*
X202080000Y-81000000D03*
X199540000Y-81000000D03*
X197000000Y-81000000D03*
X194460000Y-81000000D03*
X191920000Y-81000000D03*
X189380000Y-81000000D03*
X186840000Y-81000000D03*
D16*
X184300000Y-81000000D03*
G04 #@! TD*
M02*
