%FSLAX45Y45*%
G04 Gerber Fmt 4.5, Leading zero omitted, Abs format (unit mm)*
G04 Created by KiCad (PCBNEW 5.1.6) date 2020-08-10 12:56:37*
%MOMM*%
%LPD*%
G01*
G04 APERTURE LIST*
%TA.AperFunction,Profile*%
%ADD10C,0.050000*%
%TD*%
%ADD11C,0.200000*%
%ADD12C,0.300000*%
G04 APERTURE END LIST*
D10*
X16950000Y-13050000D02*
X16950000Y-7850000D01*
X22600000Y-13050000D02*
X16950000Y-13050000D01*
X22600000Y-7850000D02*
X22600000Y-13050000D01*
X16950000Y-7850000D02*
X22600000Y-7850000D01*
D11*
X18380000Y-8930000D02*
X18420000Y-8970000D01*
X18420000Y-8930000D02*
X18380000Y-8970000D01*
X18385000Y-8575000D02*
X18425000Y-8615000D01*
X18425000Y-8575000D02*
X18385000Y-8615000D01*
X18530000Y-8430000D02*
X18570000Y-8470000D01*
X18570000Y-8430000D02*
X18530000Y-8470000D01*
X18792500Y-8292500D02*
X18832500Y-8332500D01*
X18832500Y-8292500D02*
X18792500Y-8332500D01*
X19030000Y-9580000D02*
X19070000Y-9620000D01*
X19070000Y-9580000D02*
X19030000Y-9620000D01*
X19210000Y-11305000D02*
X19250000Y-11345000D01*
X19250000Y-11305000D02*
X19210000Y-11345000D01*
X19380000Y-12080000D02*
X19420000Y-12120000D01*
X19420000Y-12080000D02*
X19380000Y-12120000D01*
X19630000Y-8730000D02*
X19670000Y-8770000D01*
X19670000Y-8730000D02*
X19630000Y-8770000D01*
X19780000Y-9980000D02*
X19820000Y-10020000D01*
X19820000Y-9980000D02*
X19780000Y-10020000D01*
X20080000Y-9980000D02*
X20120000Y-10020000D01*
X20120000Y-9980000D02*
X20080000Y-10020000D01*
X20180000Y-9480000D02*
X20220000Y-9520000D01*
X20220000Y-9480000D02*
X20180000Y-9520000D01*
X20630000Y-11080000D02*
X20670000Y-11120000D01*
X20670000Y-11080000D02*
X20630000Y-11120000D01*
X21000000Y-12130000D02*
X21040000Y-12170000D01*
X21040000Y-12130000D02*
X21000000Y-12170000D01*
X21250000Y-12130000D02*
X21290000Y-12170000D01*
X21290000Y-12130000D02*
X21250000Y-12170000D01*
X21630000Y-11930000D02*
X21670000Y-11970000D01*
X21670000Y-11930000D02*
X21630000Y-11970000D01*
X20024000Y-9300000D02*
G75*
G03*
X20024000Y-9300000I-40000J0D01*
G01*
X21040000Y-9300000D02*
G75*
G03*
X21040000Y-9300000I-40000J0D01*
G01*
X18640000Y-11600000D02*
G75*
G03*
X18640000Y-11600000I-40000J0D01*
G01*
X19656000Y-11600000D02*
G75*
G03*
X19656000Y-11600000I-40000J0D01*
G01*
X17940000Y-8084000D02*
G75*
G03*
X17940000Y-8084000I-40000J0D01*
G01*
X17940000Y-9100000D02*
G75*
G03*
X17940000Y-9100000I-40000J0D01*
G01*
X18840000Y-12100000D02*
G75*
G03*
X18840000Y-12100000I-40000J0D01*
G01*
X19856000Y-12100000D02*
G75*
G03*
X19856000Y-12100000I-40000J0D01*
G01*
X21990000Y-11400000D02*
G75*
G03*
X21990000Y-11400000I-40000J0D01*
G01*
X21990000Y-12416000D02*
G75*
G03*
X21990000Y-12416000I-40000J0D01*
G01*
X21740000Y-8084000D02*
G75*
G03*
X21740000Y-8084000I-40000J0D01*
G01*
X21740000Y-9100000D02*
G75*
G03*
X21740000Y-9100000I-40000J0D01*
G01*
X20224000Y-8900000D02*
G75*
G03*
X20224000Y-8900000I-40000J0D01*
G01*
X21240000Y-8900000D02*
G75*
G03*
X21240000Y-8900000I-40000J0D01*
G01*
X20224000Y-8500000D02*
G75*
G03*
X20224000Y-8500000I-40000J0D01*
G01*
X21240000Y-8500000D02*
G75*
G03*
X21240000Y-8500000I-40000J0D01*
G01*
X18540000Y-9300000D02*
G75*
G03*
X18540000Y-9300000I-40000J0D01*
G01*
X19556000Y-9300000D02*
G75*
G03*
X19556000Y-9300000I-40000J0D01*
G01*
X17440000Y-11400000D02*
G75*
G03*
X17440000Y-11400000I-40000J0D01*
G01*
X17440000Y-12416000D02*
G75*
G03*
X17440000Y-12416000I-40000J0D01*
G01*
X20785574Y-10283668D02*
X20785574Y-10367488D01*
X20743664Y-10325578D02*
X20827484Y-10325578D01*
X20821388Y-10577546D02*
X20821388Y-10661366D01*
X20779478Y-10619456D02*
X20863298Y-10619456D01*
X20890730Y-10006554D02*
X20890730Y-10090374D01*
X20848820Y-10048464D02*
X20932640Y-10048464D01*
X20989536Y-10821386D02*
X20989536Y-10905206D01*
X20947626Y-10863296D02*
X21031446Y-10863296D01*
X21112472Y-9810212D02*
X21112472Y-9894032D01*
X21070562Y-9852122D02*
X21154382Y-9852122D01*
X21251918Y-10959054D02*
X21251918Y-11042874D01*
X21210008Y-11000964D02*
X21293828Y-11000964D01*
X21400000Y-9739346D02*
X21400000Y-9823166D01*
X21358090Y-9781256D02*
X21441910Y-9781256D01*
X21548082Y-10959054D02*
X21548082Y-11042874D01*
X21506172Y-11000964D02*
X21589992Y-11000964D01*
X21687528Y-9810212D02*
X21687528Y-9894032D01*
X21645618Y-9852122D02*
X21729438Y-9852122D01*
X21810464Y-10821386D02*
X21810464Y-10905206D01*
X21768554Y-10863296D02*
X21852374Y-10863296D01*
X21909270Y-10006554D02*
X21909270Y-10090374D01*
X21867360Y-10048464D02*
X21951180Y-10048464D01*
X21978612Y-10577546D02*
X21978612Y-10661366D01*
X21936702Y-10619456D02*
X22020522Y-10619456D01*
X22014426Y-10283668D02*
X22014426Y-10367488D01*
X21972516Y-10325578D02*
X22056336Y-10325578D01*
X17485574Y-10283668D02*
X17485574Y-10367488D01*
X17443664Y-10325578D02*
X17527484Y-10325578D01*
X17521388Y-10577546D02*
X17521388Y-10661366D01*
X17479478Y-10619456D02*
X17563298Y-10619456D01*
X17590730Y-10006554D02*
X17590730Y-10090374D01*
X17548820Y-10048464D02*
X17632640Y-10048464D01*
X17689536Y-10821386D02*
X17689536Y-10905206D01*
X17647626Y-10863296D02*
X17731446Y-10863296D01*
X17812472Y-9810212D02*
X17812472Y-9894032D01*
X17770562Y-9852122D02*
X17854382Y-9852122D01*
X17951918Y-10959054D02*
X17951918Y-11042874D01*
X17910008Y-11000964D02*
X17993828Y-11000964D01*
X18100000Y-9739346D02*
X18100000Y-9823166D01*
X18058090Y-9781256D02*
X18141910Y-9781256D01*
X18248082Y-10959054D02*
X18248082Y-11042874D01*
X18206172Y-11000964D02*
X18289992Y-11000964D01*
X18387528Y-9810212D02*
X18387528Y-9894032D01*
X18345618Y-9852122D02*
X18429438Y-9852122D01*
X18510464Y-10821386D02*
X18510464Y-10905206D01*
X18468554Y-10863296D02*
X18552374Y-10863296D01*
X18609270Y-10006554D02*
X18609270Y-10090374D01*
X18567360Y-10048464D02*
X18651180Y-10048464D01*
X18678612Y-10577546D02*
X18678612Y-10661366D01*
X18636702Y-10619456D02*
X18720522Y-10619456D01*
X18714426Y-10283668D02*
X18714426Y-10367488D01*
X18672516Y-10325578D02*
X18756336Y-10325578D01*
X18465356Y-8135356D02*
X18465356Y-8064644D01*
X18394644Y-8064644D01*
X18394644Y-8135356D01*
X18465356Y-8135356D01*
X18719356Y-8135356D02*
X18719356Y-8064644D01*
X18648644Y-8064644D01*
X18648644Y-8135356D01*
X18719356Y-8135356D01*
X18973356Y-8135356D02*
X18973356Y-8064644D01*
X18902644Y-8064644D01*
X18902644Y-8135356D01*
X18973356Y-8135356D01*
X19227356Y-8135356D02*
X19227356Y-8064644D01*
X19156644Y-8064644D01*
X19156644Y-8135356D01*
X19227356Y-8135356D01*
X19481356Y-8135356D02*
X19481356Y-8064644D01*
X19410644Y-8064644D01*
X19410644Y-8135356D01*
X19481356Y-8135356D01*
X19735356Y-8135356D02*
X19735356Y-8064644D01*
X19664644Y-8064644D01*
X19664644Y-8135356D01*
X19735356Y-8135356D01*
X19989356Y-8135356D02*
X19989356Y-8064644D01*
X19918644Y-8064644D01*
X19918644Y-8135356D01*
X19989356Y-8135356D01*
X20243356Y-8135356D02*
X20243356Y-8064644D01*
X20172644Y-8064644D01*
X20172644Y-8135356D01*
X20243356Y-8135356D01*
X20497356Y-8135356D02*
X20497356Y-8064644D01*
X20426644Y-8064644D01*
X20426644Y-8135356D01*
X20497356Y-8135356D01*
X20751356Y-8135356D02*
X20751356Y-8064644D01*
X20680644Y-8064644D01*
X20680644Y-8135356D01*
X20751356Y-8135356D01*
X21005356Y-8135356D02*
X21005356Y-8064644D01*
X20934644Y-8064644D01*
X20934644Y-8135356D01*
X21005356Y-8135356D01*
X21259356Y-8135356D02*
X21259356Y-8064644D01*
X21188644Y-8064644D01*
X21188644Y-8135356D01*
X21259356Y-8135356D01*
X18891356Y-12835356D02*
X18891356Y-12764644D01*
X18820644Y-12764644D01*
X18820644Y-12835356D01*
X18891356Y-12835356D01*
X19145356Y-12835356D02*
X19145356Y-12764644D01*
X19074644Y-12764644D01*
X19074644Y-12835356D01*
X19145356Y-12835356D01*
X19399356Y-12835356D02*
X19399356Y-12764644D01*
X19328644Y-12764644D01*
X19328644Y-12835356D01*
X19399356Y-12835356D01*
X19653356Y-12835356D02*
X19653356Y-12764644D01*
X19582644Y-12764644D01*
X19582644Y-12835356D01*
X19653356Y-12835356D01*
X19907356Y-12835356D02*
X19907356Y-12764644D01*
X19836644Y-12764644D01*
X19836644Y-12835356D01*
X19907356Y-12835356D01*
X20161356Y-12835356D02*
X20161356Y-12764644D01*
X20090644Y-12764644D01*
X20090644Y-12835356D01*
X20161356Y-12835356D01*
X20415356Y-12835356D02*
X20415356Y-12764644D01*
X20344644Y-12764644D01*
X20344644Y-12835356D01*
X20415356Y-12835356D01*
X20669356Y-12835356D02*
X20669356Y-12764644D01*
X20598644Y-12764644D01*
X20598644Y-12835356D01*
X20669356Y-12835356D01*
X20923356Y-12835356D02*
X20923356Y-12764644D01*
X20852644Y-12764644D01*
X20852644Y-12835356D01*
X20923356Y-12835356D01*
X21177356Y-12835356D02*
X21177356Y-12764644D01*
X21106644Y-12764644D01*
X21106644Y-12835356D01*
X21177356Y-12835356D01*
X21431356Y-12835356D02*
X21431356Y-12764644D01*
X21360644Y-12764644D01*
X21360644Y-12835356D01*
X21431356Y-12835356D01*
X21685356Y-12835356D02*
X21685356Y-12764644D01*
X21614644Y-12764644D01*
X21614644Y-12835356D01*
X21685356Y-12835356D01*
X17585356Y-12835356D02*
X17585356Y-12764644D01*
X17514644Y-12764644D01*
X17514644Y-12835356D01*
X17585356Y-12835356D01*
X17839356Y-12835356D02*
X17839356Y-12764644D01*
X17768644Y-12764644D01*
X17768644Y-12835356D01*
X17839356Y-12835356D01*
X18093356Y-12835356D02*
X18093356Y-12764644D01*
X18022644Y-12764644D01*
X18022644Y-12835356D01*
X18093356Y-12835356D01*
X18347356Y-12835356D02*
X18347356Y-12764644D01*
X18276644Y-12764644D01*
X18276644Y-12835356D01*
X18347356Y-12835356D01*
X22250000Y-8335000D02*
X22385000Y-8200000D01*
X22250000Y-8065000D01*
X22115000Y-8200000D01*
X22250000Y-8335000D01*
X22300000Y-12885000D02*
X22435000Y-12750000D01*
X22300000Y-12615000D01*
X22165000Y-12750000D01*
X22300000Y-12885000D01*
X17300000Y-8335000D02*
X17435000Y-8200000D01*
X17300000Y-8065000D01*
X17165000Y-8200000D01*
X17300000Y-8335000D01*
D12*
X17233928Y-13518214D02*
X17233928Y-13218214D01*
X17305357Y-13218214D01*
X17348214Y-13232500D01*
X17376786Y-13261071D01*
X17391071Y-13289643D01*
X17405357Y-13346786D01*
X17405357Y-13389643D01*
X17391071Y-13446786D01*
X17376786Y-13475357D01*
X17348214Y-13503929D01*
X17305357Y-13518214D01*
X17233928Y-13518214D01*
X17533928Y-13518214D02*
X17533928Y-13318214D01*
X17533928Y-13375357D02*
X17548214Y-13346786D01*
X17562500Y-13332500D01*
X17591071Y-13318214D01*
X17619643Y-13318214D01*
X17719643Y-13518214D02*
X17719643Y-13318214D01*
X17719643Y-13218214D02*
X17705357Y-13232500D01*
X17719643Y-13246786D01*
X17733928Y-13232500D01*
X17719643Y-13218214D01*
X17719643Y-13246786D01*
X17905357Y-13518214D02*
X17876786Y-13503929D01*
X17862500Y-13475357D01*
X17862500Y-13218214D01*
X18062500Y-13518214D02*
X18033928Y-13503929D01*
X18019643Y-13475357D01*
X18019643Y-13218214D01*
X18405357Y-13518214D02*
X18405357Y-13218214D01*
X18505357Y-13432500D01*
X18605357Y-13218214D01*
X18605357Y-13518214D01*
X18876786Y-13518214D02*
X18876786Y-13361071D01*
X18862500Y-13332500D01*
X18833928Y-13318214D01*
X18776786Y-13318214D01*
X18748214Y-13332500D01*
X18876786Y-13503929D02*
X18848214Y-13518214D01*
X18776786Y-13518214D01*
X18748214Y-13503929D01*
X18733928Y-13475357D01*
X18733928Y-13446786D01*
X18748214Y-13418214D01*
X18776786Y-13403929D01*
X18848214Y-13403929D01*
X18876786Y-13389643D01*
X19019643Y-13318214D02*
X19019643Y-13618214D01*
X19019643Y-13332500D02*
X19048214Y-13318214D01*
X19105357Y-13318214D01*
X19133928Y-13332500D01*
X19148214Y-13346786D01*
X19162500Y-13375357D01*
X19162500Y-13461071D01*
X19148214Y-13489643D01*
X19133928Y-13503929D01*
X19105357Y-13518214D01*
X19048214Y-13518214D01*
X19019643Y-13503929D01*
X19291071Y-13489643D02*
X19305357Y-13503929D01*
X19291071Y-13518214D01*
X19276786Y-13503929D01*
X19291071Y-13489643D01*
X19291071Y-13518214D01*
X19291071Y-13332500D02*
X19305357Y-13346786D01*
X19291071Y-13361071D01*
X19276786Y-13346786D01*
X19291071Y-13332500D01*
X19291071Y-13361071D01*
X16907500Y-13992500D02*
X16947500Y-14032500D01*
X16947500Y-13992500D02*
X16907500Y-14032500D01*
X17291071Y-13848214D02*
X17319643Y-13848214D01*
X17348214Y-13862500D01*
X17362500Y-13876786D01*
X17376786Y-13905357D01*
X17391071Y-13962500D01*
X17391071Y-14033929D01*
X17376786Y-14091071D01*
X17362500Y-14119643D01*
X17348214Y-14133929D01*
X17319643Y-14148214D01*
X17291071Y-14148214D01*
X17262500Y-14133929D01*
X17248214Y-14119643D01*
X17233928Y-14091071D01*
X17219643Y-14033929D01*
X17219643Y-13962500D01*
X17233928Y-13905357D01*
X17248214Y-13876786D01*
X17262500Y-13862500D01*
X17291071Y-13848214D01*
X17519643Y-14119643D02*
X17533928Y-14133929D01*
X17519643Y-14148214D01*
X17505357Y-14133929D01*
X17519643Y-14119643D01*
X17519643Y-14148214D01*
X17791071Y-13948214D02*
X17791071Y-14148214D01*
X17719643Y-13833929D02*
X17648214Y-14048214D01*
X17833928Y-14048214D01*
X18005357Y-13848214D02*
X18033928Y-13848214D01*
X18062500Y-13862500D01*
X18076786Y-13876786D01*
X18091071Y-13905357D01*
X18105357Y-13962500D01*
X18105357Y-14033929D01*
X18091071Y-14091071D01*
X18076786Y-14119643D01*
X18062500Y-14133929D01*
X18033928Y-14148214D01*
X18005357Y-14148214D01*
X17976786Y-14133929D01*
X17962500Y-14119643D01*
X17948214Y-14091071D01*
X17933928Y-14033929D01*
X17933928Y-13962500D01*
X17948214Y-13905357D01*
X17962500Y-13876786D01*
X17976786Y-13862500D01*
X18005357Y-13848214D01*
X18233928Y-14148214D02*
X18233928Y-13948214D01*
X18233928Y-13976786D02*
X18248214Y-13962500D01*
X18276786Y-13948214D01*
X18319643Y-13948214D01*
X18348214Y-13962500D01*
X18362500Y-13991071D01*
X18362500Y-14148214D01*
X18362500Y-13991071D02*
X18376786Y-13962500D01*
X18405357Y-13948214D01*
X18448214Y-13948214D01*
X18476786Y-13962500D01*
X18491071Y-13991071D01*
X18491071Y-14148214D01*
X18633928Y-14148214D02*
X18633928Y-13948214D01*
X18633928Y-13976786D02*
X18648214Y-13962500D01*
X18676786Y-13948214D01*
X18719643Y-13948214D01*
X18748214Y-13962500D01*
X18762500Y-13991071D01*
X18762500Y-14148214D01*
X18762500Y-13991071D02*
X18776786Y-13962500D01*
X18805357Y-13948214D01*
X18848214Y-13948214D01*
X18876786Y-13962500D01*
X18891071Y-13991071D01*
X18891071Y-14148214D01*
X19476786Y-13833929D02*
X19219643Y-14219643D01*
X19862500Y-13848214D02*
X19891071Y-13848214D01*
X19919643Y-13862500D01*
X19933928Y-13876786D01*
X19948214Y-13905357D01*
X19962500Y-13962500D01*
X19962500Y-14033929D01*
X19948214Y-14091071D01*
X19933928Y-14119643D01*
X19919643Y-14133929D01*
X19891071Y-14148214D01*
X19862500Y-14148214D01*
X19833928Y-14133929D01*
X19819643Y-14119643D01*
X19805357Y-14091071D01*
X19791071Y-14033929D01*
X19791071Y-13962500D01*
X19805357Y-13905357D01*
X19819643Y-13876786D01*
X19833928Y-13862500D01*
X19862500Y-13848214D01*
X20091071Y-14119643D02*
X20105357Y-14133929D01*
X20091071Y-14148214D01*
X20076786Y-14133929D01*
X20091071Y-14119643D01*
X20091071Y-14148214D01*
X20291071Y-13848214D02*
X20319643Y-13848214D01*
X20348214Y-13862500D01*
X20362500Y-13876786D01*
X20376786Y-13905357D01*
X20391071Y-13962500D01*
X20391071Y-14033929D01*
X20376786Y-14091071D01*
X20362500Y-14119643D01*
X20348214Y-14133929D01*
X20319643Y-14148214D01*
X20291071Y-14148214D01*
X20262500Y-14133929D01*
X20248214Y-14119643D01*
X20233928Y-14091071D01*
X20219643Y-14033929D01*
X20219643Y-13962500D01*
X20233928Y-13905357D01*
X20248214Y-13876786D01*
X20262500Y-13862500D01*
X20291071Y-13848214D01*
X20676786Y-14148214D02*
X20505357Y-14148214D01*
X20591071Y-14148214D02*
X20591071Y-13848214D01*
X20562500Y-13891071D01*
X20533928Y-13919643D01*
X20505357Y-13933929D01*
X20933928Y-13848214D02*
X20876786Y-13848214D01*
X20848214Y-13862500D01*
X20833928Y-13876786D01*
X20805357Y-13919643D01*
X20791071Y-13976786D01*
X20791071Y-14091071D01*
X20805357Y-14119643D01*
X20819643Y-14133929D01*
X20848214Y-14148214D01*
X20905357Y-14148214D01*
X20933928Y-14133929D01*
X20948214Y-14119643D01*
X20962500Y-14091071D01*
X20962500Y-14019643D01*
X20948214Y-13991071D01*
X20933928Y-13976786D01*
X20905357Y-13962500D01*
X20848214Y-13962500D01*
X20819643Y-13976786D01*
X20805357Y-13991071D01*
X20791071Y-14019643D01*
X21076786Y-13848214D02*
X21076786Y-13905357D01*
X21191071Y-13848214D02*
X21191071Y-13905357D01*
X21633928Y-14262500D02*
X21619643Y-14248214D01*
X21591071Y-14205357D01*
X21576786Y-14176786D01*
X21562500Y-14133929D01*
X21548214Y-14062500D01*
X21548214Y-14005357D01*
X21562500Y-13933929D01*
X21576786Y-13891071D01*
X21591071Y-13862500D01*
X21619643Y-13819643D01*
X21633928Y-13805357D01*
X21905357Y-14148214D02*
X21733928Y-14148214D01*
X21819643Y-14148214D02*
X21819643Y-13848214D01*
X21791071Y-13891071D01*
X21762500Y-13919643D01*
X21733928Y-13933929D01*
X22176786Y-13848214D02*
X22033928Y-13848214D01*
X22019643Y-13991071D01*
X22033928Y-13976786D01*
X22062500Y-13962500D01*
X22133928Y-13962500D01*
X22162500Y-13976786D01*
X22176786Y-13991071D01*
X22191071Y-14019643D01*
X22191071Y-14091071D01*
X22176786Y-14119643D01*
X22162500Y-14133929D01*
X22133928Y-14148214D01*
X22062500Y-14148214D01*
X22033928Y-14133929D01*
X22019643Y-14119643D01*
X22548214Y-14148214D02*
X22548214Y-13848214D01*
X22676786Y-14148214D02*
X22676786Y-13991071D01*
X22662500Y-13962500D01*
X22633928Y-13948214D01*
X22591071Y-13948214D01*
X22562500Y-13962500D01*
X22548214Y-13976786D01*
X22862500Y-14148214D02*
X22833928Y-14133929D01*
X22819643Y-14119643D01*
X22805357Y-14091071D01*
X22805357Y-14005357D01*
X22819643Y-13976786D01*
X22833928Y-13962500D01*
X22862500Y-13948214D01*
X22905357Y-13948214D01*
X22933928Y-13962500D01*
X22948214Y-13976786D01*
X22962500Y-14005357D01*
X22962500Y-14091071D01*
X22948214Y-14119643D01*
X22933928Y-14133929D01*
X22905357Y-14148214D01*
X22862500Y-14148214D01*
X23133928Y-14148214D02*
X23105357Y-14133929D01*
X23091071Y-14105357D01*
X23091071Y-13848214D01*
X23362500Y-14133929D02*
X23333928Y-14148214D01*
X23276786Y-14148214D01*
X23248214Y-14133929D01*
X23233928Y-14105357D01*
X23233928Y-13991071D01*
X23248214Y-13962500D01*
X23276786Y-13948214D01*
X23333928Y-13948214D01*
X23362500Y-13962500D01*
X23376786Y-13991071D01*
X23376786Y-14019643D01*
X23233928Y-14048214D01*
X23491071Y-14133929D02*
X23519643Y-14148214D01*
X23576786Y-14148214D01*
X23605357Y-14133929D01*
X23619643Y-14105357D01*
X23619643Y-14091071D01*
X23605357Y-14062500D01*
X23576786Y-14048214D01*
X23533928Y-14048214D01*
X23505357Y-14033929D01*
X23491071Y-14005357D01*
X23491071Y-13991071D01*
X23505357Y-13962500D01*
X23533928Y-13948214D01*
X23576786Y-13948214D01*
X23605357Y-13962500D01*
X23719643Y-14262500D02*
X23733928Y-14248214D01*
X23762500Y-14205357D01*
X23776786Y-14176786D01*
X23791071Y-14133929D01*
X23805357Y-14062500D01*
X23805357Y-14005357D01*
X23791071Y-13933929D01*
X23776786Y-13891071D01*
X23762500Y-13862500D01*
X23733928Y-13819643D01*
X23719643Y-13805357D01*
X16947500Y-14408500D02*
G75*
G03*
X16947500Y-14408500I-40000J0D01*
G01*
X17291071Y-14244214D02*
X17319643Y-14244214D01*
X17348214Y-14258500D01*
X17362500Y-14272786D01*
X17376786Y-14301357D01*
X17391071Y-14358500D01*
X17391071Y-14429929D01*
X17376786Y-14487071D01*
X17362500Y-14515643D01*
X17348214Y-14529929D01*
X17319643Y-14544214D01*
X17291071Y-14544214D01*
X17262500Y-14529929D01*
X17248214Y-14515643D01*
X17233928Y-14487071D01*
X17219643Y-14429929D01*
X17219643Y-14358500D01*
X17233928Y-14301357D01*
X17248214Y-14272786D01*
X17262500Y-14258500D01*
X17291071Y-14244214D01*
X17519643Y-14515643D02*
X17533928Y-14529929D01*
X17519643Y-14544214D01*
X17505357Y-14529929D01*
X17519643Y-14515643D01*
X17519643Y-14544214D01*
X17705357Y-14372786D02*
X17676786Y-14358500D01*
X17662500Y-14344214D01*
X17648214Y-14315643D01*
X17648214Y-14301357D01*
X17662500Y-14272786D01*
X17676786Y-14258500D01*
X17705357Y-14244214D01*
X17762500Y-14244214D01*
X17791071Y-14258500D01*
X17805357Y-14272786D01*
X17819643Y-14301357D01*
X17819643Y-14315643D01*
X17805357Y-14344214D01*
X17791071Y-14358500D01*
X17762500Y-14372786D01*
X17705357Y-14372786D01*
X17676786Y-14387071D01*
X17662500Y-14401357D01*
X17648214Y-14429929D01*
X17648214Y-14487071D01*
X17662500Y-14515643D01*
X17676786Y-14529929D01*
X17705357Y-14544214D01*
X17762500Y-14544214D01*
X17791071Y-14529929D01*
X17805357Y-14515643D01*
X17819643Y-14487071D01*
X17819643Y-14429929D01*
X17805357Y-14401357D01*
X17791071Y-14387071D01*
X17762500Y-14372786D01*
X18005357Y-14244214D02*
X18033928Y-14244214D01*
X18062500Y-14258500D01*
X18076786Y-14272786D01*
X18091071Y-14301357D01*
X18105357Y-14358500D01*
X18105357Y-14429929D01*
X18091071Y-14487071D01*
X18076786Y-14515643D01*
X18062500Y-14529929D01*
X18033928Y-14544214D01*
X18005357Y-14544214D01*
X17976786Y-14529929D01*
X17962500Y-14515643D01*
X17948214Y-14487071D01*
X17933928Y-14429929D01*
X17933928Y-14358500D01*
X17948214Y-14301357D01*
X17962500Y-14272786D01*
X17976786Y-14258500D01*
X18005357Y-14244214D01*
X18233928Y-14544214D02*
X18233928Y-14344214D01*
X18233928Y-14372786D02*
X18248214Y-14358500D01*
X18276786Y-14344214D01*
X18319643Y-14344214D01*
X18348214Y-14358500D01*
X18362500Y-14387071D01*
X18362500Y-14544214D01*
X18362500Y-14387071D02*
X18376786Y-14358500D01*
X18405357Y-14344214D01*
X18448214Y-14344214D01*
X18476786Y-14358500D01*
X18491071Y-14387071D01*
X18491071Y-14544214D01*
X18633928Y-14544214D02*
X18633928Y-14344214D01*
X18633928Y-14372786D02*
X18648214Y-14358500D01*
X18676786Y-14344214D01*
X18719643Y-14344214D01*
X18748214Y-14358500D01*
X18762500Y-14387071D01*
X18762500Y-14544214D01*
X18762500Y-14387071D02*
X18776786Y-14358500D01*
X18805357Y-14344214D01*
X18848214Y-14344214D01*
X18876786Y-14358500D01*
X18891071Y-14387071D01*
X18891071Y-14544214D01*
X19476786Y-14229929D02*
X19219643Y-14615643D01*
X19862500Y-14244214D02*
X19891071Y-14244214D01*
X19919643Y-14258500D01*
X19933928Y-14272786D01*
X19948214Y-14301357D01*
X19962500Y-14358500D01*
X19962500Y-14429929D01*
X19948214Y-14487071D01*
X19933928Y-14515643D01*
X19919643Y-14529929D01*
X19891071Y-14544214D01*
X19862500Y-14544214D01*
X19833928Y-14529929D01*
X19819643Y-14515643D01*
X19805357Y-14487071D01*
X19791071Y-14429929D01*
X19791071Y-14358500D01*
X19805357Y-14301357D01*
X19819643Y-14272786D01*
X19833928Y-14258500D01*
X19862500Y-14244214D01*
X20091071Y-14515643D02*
X20105357Y-14529929D01*
X20091071Y-14544214D01*
X20076786Y-14529929D01*
X20091071Y-14515643D01*
X20091071Y-14544214D01*
X20291071Y-14244214D02*
X20319643Y-14244214D01*
X20348214Y-14258500D01*
X20362500Y-14272786D01*
X20376786Y-14301357D01*
X20391071Y-14358500D01*
X20391071Y-14429929D01*
X20376786Y-14487071D01*
X20362500Y-14515643D01*
X20348214Y-14529929D01*
X20319643Y-14544214D01*
X20291071Y-14544214D01*
X20262500Y-14529929D01*
X20248214Y-14515643D01*
X20233928Y-14487071D01*
X20219643Y-14429929D01*
X20219643Y-14358500D01*
X20233928Y-14301357D01*
X20248214Y-14272786D01*
X20262500Y-14258500D01*
X20291071Y-14244214D01*
X20491071Y-14244214D02*
X20676786Y-14244214D01*
X20576786Y-14358500D01*
X20619643Y-14358500D01*
X20648214Y-14372786D01*
X20662500Y-14387071D01*
X20676786Y-14415643D01*
X20676786Y-14487071D01*
X20662500Y-14515643D01*
X20648214Y-14529929D01*
X20619643Y-14544214D01*
X20533928Y-14544214D01*
X20505357Y-14529929D01*
X20491071Y-14515643D01*
X20962500Y-14544214D02*
X20791071Y-14544214D01*
X20876786Y-14544214D02*
X20876786Y-14244214D01*
X20848214Y-14287071D01*
X20819643Y-14315643D01*
X20791071Y-14329929D01*
X21076786Y-14244214D02*
X21076786Y-14301357D01*
X21191071Y-14244214D02*
X21191071Y-14301357D01*
X21633928Y-14658500D02*
X21619643Y-14644214D01*
X21591071Y-14601357D01*
X21576786Y-14572786D01*
X21562500Y-14529929D01*
X21548214Y-14458500D01*
X21548214Y-14401357D01*
X21562500Y-14329929D01*
X21576786Y-14287071D01*
X21591071Y-14258500D01*
X21619643Y-14215643D01*
X21633928Y-14201357D01*
X21733928Y-14272786D02*
X21748214Y-14258500D01*
X21776786Y-14244214D01*
X21848214Y-14244214D01*
X21876786Y-14258500D01*
X21891071Y-14272786D01*
X21905357Y-14301357D01*
X21905357Y-14329929D01*
X21891071Y-14372786D01*
X21719643Y-14544214D01*
X21905357Y-14544214D01*
X22091071Y-14244214D02*
X22119643Y-14244214D01*
X22148214Y-14258500D01*
X22162500Y-14272786D01*
X22176786Y-14301357D01*
X22191071Y-14358500D01*
X22191071Y-14429929D01*
X22176786Y-14487071D01*
X22162500Y-14515643D01*
X22148214Y-14529929D01*
X22119643Y-14544214D01*
X22091071Y-14544214D01*
X22062500Y-14529929D01*
X22048214Y-14515643D01*
X22033928Y-14487071D01*
X22019643Y-14429929D01*
X22019643Y-14358500D01*
X22033928Y-14301357D01*
X22048214Y-14272786D01*
X22062500Y-14258500D01*
X22091071Y-14244214D01*
X22548214Y-14544214D02*
X22548214Y-14244214D01*
X22676786Y-14544214D02*
X22676786Y-14387071D01*
X22662500Y-14358500D01*
X22633928Y-14344214D01*
X22591071Y-14344214D01*
X22562500Y-14358500D01*
X22548214Y-14372786D01*
X22862500Y-14544214D02*
X22833928Y-14529929D01*
X22819643Y-14515643D01*
X22805357Y-14487071D01*
X22805357Y-14401357D01*
X22819643Y-14372786D01*
X22833928Y-14358500D01*
X22862500Y-14344214D01*
X22905357Y-14344214D01*
X22933928Y-14358500D01*
X22948214Y-14372786D01*
X22962500Y-14401357D01*
X22962500Y-14487071D01*
X22948214Y-14515643D01*
X22933928Y-14529929D01*
X22905357Y-14544214D01*
X22862500Y-14544214D01*
X23133928Y-14544214D02*
X23105357Y-14529929D01*
X23091071Y-14501357D01*
X23091071Y-14244214D01*
X23362500Y-14529929D02*
X23333928Y-14544214D01*
X23276786Y-14544214D01*
X23248214Y-14529929D01*
X23233928Y-14501357D01*
X23233928Y-14387071D01*
X23248214Y-14358500D01*
X23276786Y-14344214D01*
X23333928Y-14344214D01*
X23362500Y-14358500D01*
X23376786Y-14387071D01*
X23376786Y-14415643D01*
X23233928Y-14444214D01*
X23491071Y-14529929D02*
X23519643Y-14544214D01*
X23576786Y-14544214D01*
X23605357Y-14529929D01*
X23619643Y-14501357D01*
X23619643Y-14487071D01*
X23605357Y-14458500D01*
X23576786Y-14444214D01*
X23533928Y-14444214D01*
X23505357Y-14429929D01*
X23491071Y-14401357D01*
X23491071Y-14387071D01*
X23505357Y-14358500D01*
X23533928Y-14344214D01*
X23576786Y-14344214D01*
X23605357Y-14358500D01*
X23719643Y-14658500D02*
X23733928Y-14644214D01*
X23762500Y-14601357D01*
X23776786Y-14572786D01*
X23791071Y-14529929D01*
X23805357Y-14458500D01*
X23805357Y-14401357D01*
X23791071Y-14329929D01*
X23776786Y-14287071D01*
X23762500Y-14258500D01*
X23733928Y-14215643D01*
X23719643Y-14201357D01*
X16905590Y-14762590D02*
X16905590Y-14846410D01*
X16863680Y-14804500D02*
X16947500Y-14804500D01*
X17291071Y-14640214D02*
X17319643Y-14640214D01*
X17348214Y-14654500D01*
X17362500Y-14668786D01*
X17376786Y-14697357D01*
X17391071Y-14754500D01*
X17391071Y-14825929D01*
X17376786Y-14883071D01*
X17362500Y-14911643D01*
X17348214Y-14925929D01*
X17319643Y-14940214D01*
X17291071Y-14940214D01*
X17262500Y-14925929D01*
X17248214Y-14911643D01*
X17233928Y-14883071D01*
X17219643Y-14825929D01*
X17219643Y-14754500D01*
X17233928Y-14697357D01*
X17248214Y-14668786D01*
X17262500Y-14654500D01*
X17291071Y-14640214D01*
X17519643Y-14911643D02*
X17533928Y-14925929D01*
X17519643Y-14940214D01*
X17505357Y-14925929D01*
X17519643Y-14911643D01*
X17519643Y-14940214D01*
X17705357Y-14768786D02*
X17676786Y-14754500D01*
X17662500Y-14740214D01*
X17648214Y-14711643D01*
X17648214Y-14697357D01*
X17662500Y-14668786D01*
X17676786Y-14654500D01*
X17705357Y-14640214D01*
X17762500Y-14640214D01*
X17791071Y-14654500D01*
X17805357Y-14668786D01*
X17819643Y-14697357D01*
X17819643Y-14711643D01*
X17805357Y-14740214D01*
X17791071Y-14754500D01*
X17762500Y-14768786D01*
X17705357Y-14768786D01*
X17676786Y-14783071D01*
X17662500Y-14797357D01*
X17648214Y-14825929D01*
X17648214Y-14883071D01*
X17662500Y-14911643D01*
X17676786Y-14925929D01*
X17705357Y-14940214D01*
X17762500Y-14940214D01*
X17791071Y-14925929D01*
X17805357Y-14911643D01*
X17819643Y-14883071D01*
X17819643Y-14825929D01*
X17805357Y-14797357D01*
X17791071Y-14783071D01*
X17762500Y-14768786D01*
X18076786Y-14740214D02*
X18076786Y-14940214D01*
X18005357Y-14625929D02*
X17933928Y-14840214D01*
X18119643Y-14840214D01*
X18233928Y-14940214D02*
X18233928Y-14740214D01*
X18233928Y-14768786D02*
X18248214Y-14754500D01*
X18276786Y-14740214D01*
X18319643Y-14740214D01*
X18348214Y-14754500D01*
X18362500Y-14783071D01*
X18362500Y-14940214D01*
X18362500Y-14783071D02*
X18376786Y-14754500D01*
X18405357Y-14740214D01*
X18448214Y-14740214D01*
X18476786Y-14754500D01*
X18491071Y-14783071D01*
X18491071Y-14940214D01*
X18633928Y-14940214D02*
X18633928Y-14740214D01*
X18633928Y-14768786D02*
X18648214Y-14754500D01*
X18676786Y-14740214D01*
X18719643Y-14740214D01*
X18748214Y-14754500D01*
X18762500Y-14783071D01*
X18762500Y-14940214D01*
X18762500Y-14783071D02*
X18776786Y-14754500D01*
X18805357Y-14740214D01*
X18848214Y-14740214D01*
X18876786Y-14754500D01*
X18891071Y-14783071D01*
X18891071Y-14940214D01*
X19476786Y-14625929D02*
X19219643Y-15011643D01*
X19862500Y-14640214D02*
X19891071Y-14640214D01*
X19919643Y-14654500D01*
X19933928Y-14668786D01*
X19948214Y-14697357D01*
X19962500Y-14754500D01*
X19962500Y-14825929D01*
X19948214Y-14883071D01*
X19933928Y-14911643D01*
X19919643Y-14925929D01*
X19891071Y-14940214D01*
X19862500Y-14940214D01*
X19833928Y-14925929D01*
X19819643Y-14911643D01*
X19805357Y-14883071D01*
X19791071Y-14825929D01*
X19791071Y-14754500D01*
X19805357Y-14697357D01*
X19819643Y-14668786D01*
X19833928Y-14654500D01*
X19862500Y-14640214D01*
X20091071Y-14911643D02*
X20105357Y-14925929D01*
X20091071Y-14940214D01*
X20076786Y-14925929D01*
X20091071Y-14911643D01*
X20091071Y-14940214D01*
X20291071Y-14640214D02*
X20319643Y-14640214D01*
X20348214Y-14654500D01*
X20362500Y-14668786D01*
X20376786Y-14697357D01*
X20391071Y-14754500D01*
X20391071Y-14825929D01*
X20376786Y-14883071D01*
X20362500Y-14911643D01*
X20348214Y-14925929D01*
X20319643Y-14940214D01*
X20291071Y-14940214D01*
X20262500Y-14925929D01*
X20248214Y-14911643D01*
X20233928Y-14883071D01*
X20219643Y-14825929D01*
X20219643Y-14754500D01*
X20233928Y-14697357D01*
X20248214Y-14668786D01*
X20262500Y-14654500D01*
X20291071Y-14640214D01*
X20491071Y-14640214D02*
X20676786Y-14640214D01*
X20576786Y-14754500D01*
X20619643Y-14754500D01*
X20648214Y-14768786D01*
X20662500Y-14783071D01*
X20676786Y-14811643D01*
X20676786Y-14883071D01*
X20662500Y-14911643D01*
X20648214Y-14925929D01*
X20619643Y-14940214D01*
X20533928Y-14940214D01*
X20505357Y-14925929D01*
X20491071Y-14911643D01*
X20776786Y-14640214D02*
X20962500Y-14640214D01*
X20862500Y-14754500D01*
X20905357Y-14754500D01*
X20933928Y-14768786D01*
X20948214Y-14783071D01*
X20962500Y-14811643D01*
X20962500Y-14883071D01*
X20948214Y-14911643D01*
X20933928Y-14925929D01*
X20905357Y-14940214D01*
X20819643Y-14940214D01*
X20791071Y-14925929D01*
X20776786Y-14911643D01*
X21076786Y-14640214D02*
X21076786Y-14697357D01*
X21191071Y-14640214D02*
X21191071Y-14697357D01*
X21633928Y-15054500D02*
X21619643Y-15040214D01*
X21591071Y-14997357D01*
X21576786Y-14968786D01*
X21562500Y-14925929D01*
X21548214Y-14854500D01*
X21548214Y-14797357D01*
X21562500Y-14725929D01*
X21576786Y-14683071D01*
X21591071Y-14654500D01*
X21619643Y-14611643D01*
X21633928Y-14597357D01*
X21733928Y-14668786D02*
X21748214Y-14654500D01*
X21776786Y-14640214D01*
X21848214Y-14640214D01*
X21876786Y-14654500D01*
X21891071Y-14668786D01*
X21905357Y-14697357D01*
X21905357Y-14725929D01*
X21891071Y-14768786D01*
X21719643Y-14940214D01*
X21905357Y-14940214D01*
X22162500Y-14640214D02*
X22105357Y-14640214D01*
X22076786Y-14654500D01*
X22062500Y-14668786D01*
X22033928Y-14711643D01*
X22019643Y-14768786D01*
X22019643Y-14883071D01*
X22033928Y-14911643D01*
X22048214Y-14925929D01*
X22076786Y-14940214D01*
X22133928Y-14940214D01*
X22162500Y-14925929D01*
X22176786Y-14911643D01*
X22191071Y-14883071D01*
X22191071Y-14811643D01*
X22176786Y-14783071D01*
X22162500Y-14768786D01*
X22133928Y-14754500D01*
X22076786Y-14754500D01*
X22048214Y-14768786D01*
X22033928Y-14783071D01*
X22019643Y-14811643D01*
X22548214Y-14940214D02*
X22548214Y-14640214D01*
X22676786Y-14940214D02*
X22676786Y-14783071D01*
X22662500Y-14754500D01*
X22633928Y-14740214D01*
X22591071Y-14740214D01*
X22562500Y-14754500D01*
X22548214Y-14768786D01*
X22862500Y-14940214D02*
X22833928Y-14925929D01*
X22819643Y-14911643D01*
X22805357Y-14883071D01*
X22805357Y-14797357D01*
X22819643Y-14768786D01*
X22833928Y-14754500D01*
X22862500Y-14740214D01*
X22905357Y-14740214D01*
X22933928Y-14754500D01*
X22948214Y-14768786D01*
X22962500Y-14797357D01*
X22962500Y-14883071D01*
X22948214Y-14911643D01*
X22933928Y-14925929D01*
X22905357Y-14940214D01*
X22862500Y-14940214D01*
X23133928Y-14940214D02*
X23105357Y-14925929D01*
X23091071Y-14897357D01*
X23091071Y-14640214D01*
X23362500Y-14925929D02*
X23333928Y-14940214D01*
X23276786Y-14940214D01*
X23248214Y-14925929D01*
X23233928Y-14897357D01*
X23233928Y-14783071D01*
X23248214Y-14754500D01*
X23276786Y-14740214D01*
X23333928Y-14740214D01*
X23362500Y-14754500D01*
X23376786Y-14783071D01*
X23376786Y-14811643D01*
X23233928Y-14840214D01*
X23491071Y-14925929D02*
X23519643Y-14940214D01*
X23576786Y-14940214D01*
X23605357Y-14925929D01*
X23619643Y-14897357D01*
X23619643Y-14883071D01*
X23605357Y-14854500D01*
X23576786Y-14840214D01*
X23533928Y-14840214D01*
X23505357Y-14825929D01*
X23491071Y-14797357D01*
X23491071Y-14783071D01*
X23505357Y-14754500D01*
X23533928Y-14740214D01*
X23576786Y-14740214D01*
X23605357Y-14754500D01*
X23719643Y-15054500D02*
X23733928Y-15040214D01*
X23762500Y-14997357D01*
X23776786Y-14968786D01*
X23791071Y-14925929D01*
X23805357Y-14854500D01*
X23805357Y-14797357D01*
X23791071Y-14725929D01*
X23776786Y-14683071D01*
X23762500Y-14654500D01*
X23733928Y-14611643D01*
X23719643Y-14597357D01*
X16932856Y-15235856D02*
X16932856Y-15165144D01*
X16862144Y-15165144D01*
X16862144Y-15235856D01*
X16932856Y-15235856D01*
X17391071Y-15336214D02*
X17219643Y-15336214D01*
X17305357Y-15336214D02*
X17305357Y-15036214D01*
X17276786Y-15079071D01*
X17248214Y-15107643D01*
X17219643Y-15121929D01*
X17519643Y-15307643D02*
X17533928Y-15321929D01*
X17519643Y-15336214D01*
X17505357Y-15321929D01*
X17519643Y-15307643D01*
X17519643Y-15336214D01*
X17719643Y-15036214D02*
X17748214Y-15036214D01*
X17776786Y-15050500D01*
X17791071Y-15064786D01*
X17805357Y-15093357D01*
X17819643Y-15150500D01*
X17819643Y-15221929D01*
X17805357Y-15279071D01*
X17791071Y-15307643D01*
X17776786Y-15321929D01*
X17748214Y-15336214D01*
X17719643Y-15336214D01*
X17691071Y-15321929D01*
X17676786Y-15307643D01*
X17662500Y-15279071D01*
X17648214Y-15221929D01*
X17648214Y-15150500D01*
X17662500Y-15093357D01*
X17676786Y-15064786D01*
X17691071Y-15050500D01*
X17719643Y-15036214D01*
X18005357Y-15036214D02*
X18033928Y-15036214D01*
X18062500Y-15050500D01*
X18076786Y-15064786D01*
X18091071Y-15093357D01*
X18105357Y-15150500D01*
X18105357Y-15221929D01*
X18091071Y-15279071D01*
X18076786Y-15307643D01*
X18062500Y-15321929D01*
X18033928Y-15336214D01*
X18005357Y-15336214D01*
X17976786Y-15321929D01*
X17962500Y-15307643D01*
X17948214Y-15279071D01*
X17933928Y-15221929D01*
X17933928Y-15150500D01*
X17948214Y-15093357D01*
X17962500Y-15064786D01*
X17976786Y-15050500D01*
X18005357Y-15036214D01*
X18233928Y-15336214D02*
X18233928Y-15136214D01*
X18233928Y-15164786D02*
X18248214Y-15150500D01*
X18276786Y-15136214D01*
X18319643Y-15136214D01*
X18348214Y-15150500D01*
X18362500Y-15179071D01*
X18362500Y-15336214D01*
X18362500Y-15179071D02*
X18376786Y-15150500D01*
X18405357Y-15136214D01*
X18448214Y-15136214D01*
X18476786Y-15150500D01*
X18491071Y-15179071D01*
X18491071Y-15336214D01*
X18633928Y-15336214D02*
X18633928Y-15136214D01*
X18633928Y-15164786D02*
X18648214Y-15150500D01*
X18676786Y-15136214D01*
X18719643Y-15136214D01*
X18748214Y-15150500D01*
X18762500Y-15179071D01*
X18762500Y-15336214D01*
X18762500Y-15179071D02*
X18776786Y-15150500D01*
X18805357Y-15136214D01*
X18848214Y-15136214D01*
X18876786Y-15150500D01*
X18891071Y-15179071D01*
X18891071Y-15336214D01*
X19476786Y-15021929D02*
X19219643Y-15407643D01*
X19862500Y-15036214D02*
X19891071Y-15036214D01*
X19919643Y-15050500D01*
X19933928Y-15064786D01*
X19948214Y-15093357D01*
X19962500Y-15150500D01*
X19962500Y-15221929D01*
X19948214Y-15279071D01*
X19933928Y-15307643D01*
X19919643Y-15321929D01*
X19891071Y-15336214D01*
X19862500Y-15336214D01*
X19833928Y-15321929D01*
X19819643Y-15307643D01*
X19805357Y-15279071D01*
X19791071Y-15221929D01*
X19791071Y-15150500D01*
X19805357Y-15093357D01*
X19819643Y-15064786D01*
X19833928Y-15050500D01*
X19862500Y-15036214D01*
X20091071Y-15307643D02*
X20105357Y-15321929D01*
X20091071Y-15336214D01*
X20076786Y-15321929D01*
X20091071Y-15307643D01*
X20091071Y-15336214D01*
X20291071Y-15036214D02*
X20319643Y-15036214D01*
X20348214Y-15050500D01*
X20362500Y-15064786D01*
X20376786Y-15093357D01*
X20391071Y-15150500D01*
X20391071Y-15221929D01*
X20376786Y-15279071D01*
X20362500Y-15307643D01*
X20348214Y-15321929D01*
X20319643Y-15336214D01*
X20291071Y-15336214D01*
X20262500Y-15321929D01*
X20248214Y-15307643D01*
X20233928Y-15279071D01*
X20219643Y-15221929D01*
X20219643Y-15150500D01*
X20233928Y-15093357D01*
X20248214Y-15064786D01*
X20262500Y-15050500D01*
X20291071Y-15036214D01*
X20491071Y-15036214D02*
X20676786Y-15036214D01*
X20576786Y-15150500D01*
X20619643Y-15150500D01*
X20648214Y-15164786D01*
X20662500Y-15179071D01*
X20676786Y-15207643D01*
X20676786Y-15279071D01*
X20662500Y-15307643D01*
X20648214Y-15321929D01*
X20619643Y-15336214D01*
X20533928Y-15336214D01*
X20505357Y-15321929D01*
X20491071Y-15307643D01*
X20819643Y-15336214D02*
X20876786Y-15336214D01*
X20905357Y-15321929D01*
X20919643Y-15307643D01*
X20948214Y-15264786D01*
X20962500Y-15207643D01*
X20962500Y-15093357D01*
X20948214Y-15064786D01*
X20933928Y-15050500D01*
X20905357Y-15036214D01*
X20848214Y-15036214D01*
X20819643Y-15050500D01*
X20805357Y-15064786D01*
X20791071Y-15093357D01*
X20791071Y-15164786D01*
X20805357Y-15193357D01*
X20819643Y-15207643D01*
X20848214Y-15221929D01*
X20905357Y-15221929D01*
X20933928Y-15207643D01*
X20948214Y-15193357D01*
X20962500Y-15164786D01*
X21076786Y-15036214D02*
X21076786Y-15093357D01*
X21191071Y-15036214D02*
X21191071Y-15093357D01*
X21633928Y-15450500D02*
X21619643Y-15436214D01*
X21591071Y-15393357D01*
X21576786Y-15364786D01*
X21562500Y-15321929D01*
X21548214Y-15250500D01*
X21548214Y-15193357D01*
X21562500Y-15121929D01*
X21576786Y-15079071D01*
X21591071Y-15050500D01*
X21619643Y-15007643D01*
X21633928Y-14993357D01*
X21733928Y-15064786D02*
X21748214Y-15050500D01*
X21776786Y-15036214D01*
X21848214Y-15036214D01*
X21876786Y-15050500D01*
X21891071Y-15064786D01*
X21905357Y-15093357D01*
X21905357Y-15121929D01*
X21891071Y-15164786D01*
X21719643Y-15336214D01*
X21905357Y-15336214D01*
X22076786Y-15164786D02*
X22048214Y-15150500D01*
X22033928Y-15136214D01*
X22019643Y-15107643D01*
X22019643Y-15093357D01*
X22033928Y-15064786D01*
X22048214Y-15050500D01*
X22076786Y-15036214D01*
X22133928Y-15036214D01*
X22162500Y-15050500D01*
X22176786Y-15064786D01*
X22191071Y-15093357D01*
X22191071Y-15107643D01*
X22176786Y-15136214D01*
X22162500Y-15150500D01*
X22133928Y-15164786D01*
X22076786Y-15164786D01*
X22048214Y-15179071D01*
X22033928Y-15193357D01*
X22019643Y-15221929D01*
X22019643Y-15279071D01*
X22033928Y-15307643D01*
X22048214Y-15321929D01*
X22076786Y-15336214D01*
X22133928Y-15336214D01*
X22162500Y-15321929D01*
X22176786Y-15307643D01*
X22191071Y-15279071D01*
X22191071Y-15221929D01*
X22176786Y-15193357D01*
X22162500Y-15179071D01*
X22133928Y-15164786D01*
X22548214Y-15336214D02*
X22548214Y-15036214D01*
X22676786Y-15336214D02*
X22676786Y-15179071D01*
X22662500Y-15150500D01*
X22633928Y-15136214D01*
X22591071Y-15136214D01*
X22562500Y-15150500D01*
X22548214Y-15164786D01*
X22862500Y-15336214D02*
X22833928Y-15321929D01*
X22819643Y-15307643D01*
X22805357Y-15279071D01*
X22805357Y-15193357D01*
X22819643Y-15164786D01*
X22833928Y-15150500D01*
X22862500Y-15136214D01*
X22905357Y-15136214D01*
X22933928Y-15150500D01*
X22948214Y-15164786D01*
X22962500Y-15193357D01*
X22962500Y-15279071D01*
X22948214Y-15307643D01*
X22933928Y-15321929D01*
X22905357Y-15336214D01*
X22862500Y-15336214D01*
X23133928Y-15336214D02*
X23105357Y-15321929D01*
X23091071Y-15293357D01*
X23091071Y-15036214D01*
X23362500Y-15321929D02*
X23333928Y-15336214D01*
X23276786Y-15336214D01*
X23248214Y-15321929D01*
X23233928Y-15293357D01*
X23233928Y-15179071D01*
X23248214Y-15150500D01*
X23276786Y-15136214D01*
X23333928Y-15136214D01*
X23362500Y-15150500D01*
X23376786Y-15179071D01*
X23376786Y-15207643D01*
X23233928Y-15236214D01*
X23491071Y-15321929D02*
X23519643Y-15336214D01*
X23576786Y-15336214D01*
X23605357Y-15321929D01*
X23619643Y-15293357D01*
X23619643Y-15279071D01*
X23605357Y-15250500D01*
X23576786Y-15236214D01*
X23533928Y-15236214D01*
X23505357Y-15221929D01*
X23491071Y-15193357D01*
X23491071Y-15179071D01*
X23505357Y-15150500D01*
X23533928Y-15136214D01*
X23576786Y-15136214D01*
X23605357Y-15150500D01*
X23719643Y-15450500D02*
X23733928Y-15436214D01*
X23762500Y-15393357D01*
X23776786Y-15364786D01*
X23791071Y-15321929D01*
X23805357Y-15250500D01*
X23805357Y-15193357D01*
X23791071Y-15121929D01*
X23776786Y-15079071D01*
X23762500Y-15050500D01*
X23733928Y-15007643D01*
X23719643Y-14993357D01*
X16812500Y-15731500D02*
X16947500Y-15596500D01*
X16812500Y-15461500D01*
X16677500Y-15596500D01*
X16812500Y-15731500D01*
X17219643Y-15460786D02*
X17233928Y-15446500D01*
X17262500Y-15432214D01*
X17333928Y-15432214D01*
X17362500Y-15446500D01*
X17376786Y-15460786D01*
X17391071Y-15489357D01*
X17391071Y-15517929D01*
X17376786Y-15560786D01*
X17205357Y-15732214D01*
X17391071Y-15732214D01*
X17519643Y-15703643D02*
X17533928Y-15717929D01*
X17519643Y-15732214D01*
X17505357Y-15717929D01*
X17519643Y-15703643D01*
X17519643Y-15732214D01*
X17633928Y-15432214D02*
X17833928Y-15432214D01*
X17705357Y-15732214D01*
X18005357Y-15432214D02*
X18033928Y-15432214D01*
X18062500Y-15446500D01*
X18076786Y-15460786D01*
X18091071Y-15489357D01*
X18105357Y-15546500D01*
X18105357Y-15617929D01*
X18091071Y-15675071D01*
X18076786Y-15703643D01*
X18062500Y-15717929D01*
X18033928Y-15732214D01*
X18005357Y-15732214D01*
X17976786Y-15717929D01*
X17962500Y-15703643D01*
X17948214Y-15675071D01*
X17933928Y-15617929D01*
X17933928Y-15546500D01*
X17948214Y-15489357D01*
X17962500Y-15460786D01*
X17976786Y-15446500D01*
X18005357Y-15432214D01*
X18233928Y-15732214D02*
X18233928Y-15532214D01*
X18233928Y-15560786D02*
X18248214Y-15546500D01*
X18276786Y-15532214D01*
X18319643Y-15532214D01*
X18348214Y-15546500D01*
X18362500Y-15575071D01*
X18362500Y-15732214D01*
X18362500Y-15575071D02*
X18376786Y-15546500D01*
X18405357Y-15532214D01*
X18448214Y-15532214D01*
X18476786Y-15546500D01*
X18491071Y-15575071D01*
X18491071Y-15732214D01*
X18633928Y-15732214D02*
X18633928Y-15532214D01*
X18633928Y-15560786D02*
X18648214Y-15546500D01*
X18676786Y-15532214D01*
X18719643Y-15532214D01*
X18748214Y-15546500D01*
X18762500Y-15575071D01*
X18762500Y-15732214D01*
X18762500Y-15575071D02*
X18776786Y-15546500D01*
X18805357Y-15532214D01*
X18848214Y-15532214D01*
X18876786Y-15546500D01*
X18891071Y-15575071D01*
X18891071Y-15732214D01*
X19476786Y-15417929D02*
X19219643Y-15803643D01*
X19862500Y-15432214D02*
X19891071Y-15432214D01*
X19919643Y-15446500D01*
X19933928Y-15460786D01*
X19948214Y-15489357D01*
X19962500Y-15546500D01*
X19962500Y-15617929D01*
X19948214Y-15675071D01*
X19933928Y-15703643D01*
X19919643Y-15717929D01*
X19891071Y-15732214D01*
X19862500Y-15732214D01*
X19833928Y-15717929D01*
X19819643Y-15703643D01*
X19805357Y-15675071D01*
X19791071Y-15617929D01*
X19791071Y-15546500D01*
X19805357Y-15489357D01*
X19819643Y-15460786D01*
X19833928Y-15446500D01*
X19862500Y-15432214D01*
X20091071Y-15703643D02*
X20105357Y-15717929D01*
X20091071Y-15732214D01*
X20076786Y-15717929D01*
X20091071Y-15703643D01*
X20091071Y-15732214D01*
X20391071Y-15732214D02*
X20219643Y-15732214D01*
X20305357Y-15732214D02*
X20305357Y-15432214D01*
X20276786Y-15475071D01*
X20248214Y-15503643D01*
X20219643Y-15517929D01*
X20576786Y-15432214D02*
X20605357Y-15432214D01*
X20633928Y-15446500D01*
X20648214Y-15460786D01*
X20662500Y-15489357D01*
X20676786Y-15546500D01*
X20676786Y-15617929D01*
X20662500Y-15675071D01*
X20648214Y-15703643D01*
X20633928Y-15717929D01*
X20605357Y-15732214D01*
X20576786Y-15732214D01*
X20548214Y-15717929D01*
X20533928Y-15703643D01*
X20519643Y-15675071D01*
X20505357Y-15617929D01*
X20505357Y-15546500D01*
X20519643Y-15489357D01*
X20533928Y-15460786D01*
X20548214Y-15446500D01*
X20576786Y-15432214D01*
X20933928Y-15432214D02*
X20876786Y-15432214D01*
X20848214Y-15446500D01*
X20833928Y-15460786D01*
X20805357Y-15503643D01*
X20791071Y-15560786D01*
X20791071Y-15675071D01*
X20805357Y-15703643D01*
X20819643Y-15717929D01*
X20848214Y-15732214D01*
X20905357Y-15732214D01*
X20933928Y-15717929D01*
X20948214Y-15703643D01*
X20962500Y-15675071D01*
X20962500Y-15603643D01*
X20948214Y-15575071D01*
X20933928Y-15560786D01*
X20905357Y-15546500D01*
X20848214Y-15546500D01*
X20819643Y-15560786D01*
X20805357Y-15575071D01*
X20791071Y-15603643D01*
X21076786Y-15432214D02*
X21076786Y-15489357D01*
X21191071Y-15432214D02*
X21191071Y-15489357D01*
X21633928Y-15846500D02*
X21619643Y-15832214D01*
X21591071Y-15789357D01*
X21576786Y-15760786D01*
X21562500Y-15717929D01*
X21548214Y-15646500D01*
X21548214Y-15589357D01*
X21562500Y-15517929D01*
X21576786Y-15475071D01*
X21591071Y-15446500D01*
X21619643Y-15403643D01*
X21633928Y-15389357D01*
X21719643Y-15432214D02*
X21905357Y-15432214D01*
X21805357Y-15546500D01*
X21848214Y-15546500D01*
X21876786Y-15560786D01*
X21891071Y-15575071D01*
X21905357Y-15603643D01*
X21905357Y-15675071D01*
X21891071Y-15703643D01*
X21876786Y-15717929D01*
X21848214Y-15732214D01*
X21762500Y-15732214D01*
X21733928Y-15717929D01*
X21719643Y-15703643D01*
X22262500Y-15732214D02*
X22262500Y-15432214D01*
X22391071Y-15732214D02*
X22391071Y-15575071D01*
X22376786Y-15546500D01*
X22348214Y-15532214D01*
X22305357Y-15532214D01*
X22276786Y-15546500D01*
X22262500Y-15560786D01*
X22576786Y-15732214D02*
X22548214Y-15717929D01*
X22533928Y-15703643D01*
X22519643Y-15675071D01*
X22519643Y-15589357D01*
X22533928Y-15560786D01*
X22548214Y-15546500D01*
X22576786Y-15532214D01*
X22619643Y-15532214D01*
X22648214Y-15546500D01*
X22662500Y-15560786D01*
X22676786Y-15589357D01*
X22676786Y-15675071D01*
X22662500Y-15703643D01*
X22648214Y-15717929D01*
X22619643Y-15732214D01*
X22576786Y-15732214D01*
X22848214Y-15732214D02*
X22819643Y-15717929D01*
X22805357Y-15689357D01*
X22805357Y-15432214D01*
X23076786Y-15717929D02*
X23048214Y-15732214D01*
X22991071Y-15732214D01*
X22962500Y-15717929D01*
X22948214Y-15689357D01*
X22948214Y-15575071D01*
X22962500Y-15546500D01*
X22991071Y-15532214D01*
X23048214Y-15532214D01*
X23076786Y-15546500D01*
X23091071Y-15575071D01*
X23091071Y-15603643D01*
X22948214Y-15632214D01*
X23205357Y-15717929D02*
X23233928Y-15732214D01*
X23291071Y-15732214D01*
X23319643Y-15717929D01*
X23333928Y-15689357D01*
X23333928Y-15675071D01*
X23319643Y-15646500D01*
X23291071Y-15632214D01*
X23248214Y-15632214D01*
X23219643Y-15617929D01*
X23205357Y-15589357D01*
X23205357Y-15575071D01*
X23219643Y-15546500D01*
X23248214Y-15532214D01*
X23291071Y-15532214D01*
X23319643Y-15546500D01*
X23433928Y-15846500D02*
X23448214Y-15832214D01*
X23476786Y-15789357D01*
X23491071Y-15760786D01*
X23505357Y-15717929D01*
X23519643Y-15646500D01*
X23519643Y-15589357D01*
X23505357Y-15517929D01*
X23491071Y-15475071D01*
X23476786Y-15446500D01*
X23448214Y-15403643D01*
X23433928Y-15389357D01*
X23976786Y-15846500D02*
X23962500Y-15832214D01*
X23933928Y-15789357D01*
X23919643Y-15760786D01*
X23905357Y-15717929D01*
X23891071Y-15646500D01*
X23891071Y-15589357D01*
X23905357Y-15517929D01*
X23919643Y-15475071D01*
X23933928Y-15446500D01*
X23962500Y-15403643D01*
X23976786Y-15389357D01*
X24091071Y-15532214D02*
X24091071Y-15732214D01*
X24091071Y-15560786D02*
X24105357Y-15546500D01*
X24133928Y-15532214D01*
X24176786Y-15532214D01*
X24205357Y-15546500D01*
X24219643Y-15575071D01*
X24219643Y-15732214D01*
X24405357Y-15732214D02*
X24376786Y-15717929D01*
X24362500Y-15703643D01*
X24348214Y-15675071D01*
X24348214Y-15589357D01*
X24362500Y-15560786D01*
X24376786Y-15546500D01*
X24405357Y-15532214D01*
X24448214Y-15532214D01*
X24476786Y-15546500D01*
X24491071Y-15560786D01*
X24505357Y-15589357D01*
X24505357Y-15675071D01*
X24491071Y-15703643D01*
X24476786Y-15717929D01*
X24448214Y-15732214D01*
X24405357Y-15732214D01*
X24591071Y-15532214D02*
X24705357Y-15532214D01*
X24633928Y-15432214D02*
X24633928Y-15689357D01*
X24648214Y-15717929D01*
X24676786Y-15732214D01*
X24705357Y-15732214D01*
X25033928Y-15532214D02*
X25033928Y-15832214D01*
X25033928Y-15546500D02*
X25062500Y-15532214D01*
X25119643Y-15532214D01*
X25148214Y-15546500D01*
X25162500Y-15560786D01*
X25176786Y-15589357D01*
X25176786Y-15675071D01*
X25162500Y-15703643D01*
X25148214Y-15717929D01*
X25119643Y-15732214D01*
X25062500Y-15732214D01*
X25033928Y-15717929D01*
X25348214Y-15732214D02*
X25319643Y-15717929D01*
X25305357Y-15689357D01*
X25305357Y-15432214D01*
X25591071Y-15732214D02*
X25591071Y-15575071D01*
X25576786Y-15546500D01*
X25548214Y-15532214D01*
X25491071Y-15532214D01*
X25462500Y-15546500D01*
X25591071Y-15717929D02*
X25562500Y-15732214D01*
X25491071Y-15732214D01*
X25462500Y-15717929D01*
X25448214Y-15689357D01*
X25448214Y-15660786D01*
X25462500Y-15632214D01*
X25491071Y-15617929D01*
X25562500Y-15617929D01*
X25591071Y-15603643D01*
X25691071Y-15532214D02*
X25805357Y-15532214D01*
X25733928Y-15432214D02*
X25733928Y-15689357D01*
X25748214Y-15717929D01*
X25776786Y-15732214D01*
X25805357Y-15732214D01*
X26019643Y-15717929D02*
X25991071Y-15732214D01*
X25933928Y-15732214D01*
X25905357Y-15717929D01*
X25891071Y-15689357D01*
X25891071Y-15575071D01*
X25905357Y-15546500D01*
X25933928Y-15532214D01*
X25991071Y-15532214D01*
X26019643Y-15546500D01*
X26033928Y-15575071D01*
X26033928Y-15603643D01*
X25891071Y-15632214D01*
X26291071Y-15732214D02*
X26291071Y-15432214D01*
X26291071Y-15717929D02*
X26262500Y-15732214D01*
X26205357Y-15732214D01*
X26176786Y-15717929D01*
X26162500Y-15703643D01*
X26148214Y-15675071D01*
X26148214Y-15589357D01*
X26162500Y-15560786D01*
X26176786Y-15546500D01*
X26205357Y-15532214D01*
X26262500Y-15532214D01*
X26291071Y-15546500D01*
X26405357Y-15846500D02*
X26419643Y-15832214D01*
X26448214Y-15789357D01*
X26462500Y-15760786D01*
X26476786Y-15717929D01*
X26491071Y-15646500D01*
X26491071Y-15589357D01*
X26476786Y-15517929D01*
X26462500Y-15475071D01*
X26448214Y-15446500D01*
X26419643Y-15403643D01*
X26405357Y-15389357D01*
M02*
