M48
; DRILL file {KiCad 5.1.6} date Thu Aug  6 12:28:23 2020
; FORMAT={-:-/ absolute / inch / decimal}
; #@! TF.CreationDate,2020-08-06T12:28:23+02:00
; #@! TF.GenerationSoftware,Kicad,Pcbnew,5.1.6
; #@! TF.FileFunction,Plated,1,2,PTH
FMAT,2
INCH
T1C0.0157
T2C0.0315
T3C0.0330
T4C0.0394
%
G90
G05
T1
X7.2441Y-3.5236
X7.2461Y-3.3839
X7.3031Y-3.3268
X7.4065Y-3.2726
X7.5Y-3.7795
X7.5709Y-4.4587
X7.6378Y-4.7638
X7.7362Y-3.4449
X7.7953Y-3.937
X7.9134Y-3.937
X7.9528Y-3.7402
X8.1299Y-4.3701
X8.2756Y-4.7835
X8.374Y-4.7835
X8.5236Y-4.7047
T2
X7.0472Y-3.1827
X7.0472Y-3.5827
X7.9465Y-3.3465
X8.3465Y-3.3465
X7.3228Y-4.5669
X7.7228Y-4.5669
X6.9685Y-4.4882
X6.9685Y-4.8882
X7.4016Y-4.7638
X7.8016Y-4.7638
X7.8677Y-3.6614
X8.2677Y-3.6614
X8.6614Y-4.4882
X8.6614Y-4.8882
X8.5827Y-3.1827
X8.5827Y-3.5827
X7.2835Y-3.6614
X7.6835Y-3.6614
X7.9465Y-3.5039
X8.3465Y-3.5039
T3
X6.8841Y-4.0652
X6.8982Y-4.1809
X6.9255Y-3.9561
X6.9644Y-4.2769
X7.0128Y-3.8788
X7.0677Y-4.3311
X7.126Y-3.8509
X7.1843Y-4.3311
X7.2392Y-3.8788
X7.2876Y-4.2769
X7.3265Y-3.9561
X7.3538Y-4.1809
X7.3679Y-4.0652
X8.1833Y-4.0652
X8.1974Y-4.1809
X8.2247Y-3.9561
X8.2636Y-4.2769
X8.312Y-3.8788
X8.3669Y-4.3311
X8.4252Y-3.8509
X8.4835Y-4.3311
X8.5384Y-3.8788
X8.5868Y-4.2769
X8.6257Y-3.9561
X8.653Y-4.1809
X8.6671Y-4.0652
T4
X6.9094Y-5.0394
X7.0094Y-5.0394
X7.1094Y-5.0394
X7.2094Y-5.0394
X7.2559Y-3.189
X7.3559Y-3.189
X7.4559Y-3.189
X7.5559Y-3.189
X7.6559Y-3.189
X7.7559Y-3.189
X7.8559Y-3.189
X7.9559Y-3.189
X8.0559Y-3.189
X8.1559Y-3.189
X8.2559Y-3.189
X8.3559Y-3.189
X7.4236Y-5.0394
X7.5236Y-5.0394
X7.6236Y-5.0394
X7.7236Y-5.0394
X7.8236Y-5.0394
X7.9236Y-5.0394
X8.0236Y-5.0394
X8.1236Y-5.0394
X8.2236Y-5.0394
X8.3236Y-5.0394
X8.4236Y-5.0394
X8.5236Y-5.0394
T0
M30
