G04 #@! TF.GenerationSoftware,KiCad,Pcbnew,5.1.6*
G04 #@! TF.CreationDate,2020-08-10T12:56:34+02:00*
G04 #@! TF.ProjectId,nixie_clock_holder,6e697869-655f-4636-9c6f-636b5f686f6c,rev?*
G04 #@! TF.SameCoordinates,Original*
G04 #@! TF.FileFunction,Copper,L1,Top*
G04 #@! TF.FilePolarity,Positive*
%FSLAX46Y46*%
G04 Gerber Fmt 4.6, Leading zero omitted, Abs format (unit mm)*
G04 Created by KiCad (PCBNEW 5.1.6) date 2020-08-10 12:56:34*
%MOMM*%
%LPD*%
G01*
G04 APERTURE LIST*
G04 #@! TA.AperFunction,ComponentPad*
%ADD10C,1.346200*%
G04 #@! TD*
G04 #@! TA.AperFunction,ComponentPad*
%ADD11O,1.600000X1.600000*%
G04 #@! TD*
G04 #@! TA.AperFunction,ComponentPad*
%ADD12C,1.600000*%
G04 #@! TD*
G04 #@! TA.AperFunction,ComponentPad*
%ADD13O,1.700000X1.700000*%
G04 #@! TD*
G04 #@! TA.AperFunction,ComponentPad*
%ADD14R,1.700000X1.700000*%
G04 #@! TD*
G04 #@! TA.AperFunction,ViaPad*
%ADD15C,0.800000*%
G04 #@! TD*
G04 #@! TA.AperFunction,Conductor*
%ADD16C,0.250000*%
G04 #@! TD*
G04 #@! TA.AperFunction,Conductor*
%ADD17C,0.500000*%
G04 #@! TD*
G04 #@! TA.AperFunction,Conductor*
%ADD18C,0.254000*%
G04 #@! TD*
G04 APERTURE END LIST*
D10*
G04 #@! TO.P,N1,RHDP*
G04 #@! TO.N,Net-(N1-PadRHDP)*
X183875280Y-98521220D03*
G04 #@! TO.P,N1,LHDP*
G04 #@! TO.N,Net-(N1-PadLHDP)*
X178124720Y-98521220D03*
G04 #@! TO.P,N1,A*
G04 #@! TO.N,Net-(N1-PadA)*
X181000000Y-97812560D03*
G04 #@! TO.P,N1,9*
G04 #@! TO.N,Net-(J1-Pad10)*
X174855740Y-103255780D03*
G04 #@! TO.P,N1,8*
G04 #@! TO.N,Net-(J1-Pad9)*
X175213880Y-106194560D03*
G04 #@! TO.P,N1,7*
G04 #@! TO.N,Net-(J1-Pad8)*
X176895360Y-108632960D03*
G04 #@! TO.P,N1,6*
G04 #@! TO.N,Net-(J1-Pad7)*
X179519180Y-110009640D03*
G04 #@! TO.P,N1,5*
G04 #@! TO.N,Net-(J1-Pad6)*
X182480820Y-110009640D03*
G04 #@! TO.P,N1,4*
G04 #@! TO.N,Net-(J1-Pad5)*
X185104640Y-108632960D03*
G04 #@! TO.P,N1,3*
G04 #@! TO.N,Net-(J1-Pad4)*
X186786120Y-106194560D03*
G04 #@! TO.P,N1,2*
G04 #@! TO.N,Net-(J1-Pad3)*
X187144260Y-103255780D03*
G04 #@! TO.P,N1,1*
G04 #@! TO.N,Net-(J1-Pad2)*
X186092700Y-100484640D03*
G04 #@! TO.P,N1,0*
G04 #@! TO.N,Net-(J1-Pad1)*
X175907300Y-100484640D03*
G04 #@! TD*
G04 #@! TO.P,N2,RHDP*
G04 #@! TO.N,Net-(N2-PadRHDP)*
X216875280Y-98521220D03*
G04 #@! TO.P,N2,LHDP*
G04 #@! TO.N,Net-(N2-PadLHDP)*
X211124720Y-98521220D03*
G04 #@! TO.P,N2,A*
G04 #@! TO.N,Net-(N2-PadA)*
X214000000Y-97812560D03*
G04 #@! TO.P,N2,9*
G04 #@! TO.N,Net-(J2-Pad10)*
X207855740Y-103255780D03*
G04 #@! TO.P,N2,8*
G04 #@! TO.N,Net-(J2-Pad9)*
X208213880Y-106194560D03*
G04 #@! TO.P,N2,7*
G04 #@! TO.N,Net-(J2-Pad8)*
X209895360Y-108632960D03*
G04 #@! TO.P,N2,6*
G04 #@! TO.N,Net-(J2-Pad7)*
X212519180Y-110009640D03*
G04 #@! TO.P,N2,5*
G04 #@! TO.N,Net-(J2-Pad6)*
X215480820Y-110009640D03*
G04 #@! TO.P,N2,4*
G04 #@! TO.N,Net-(J2-Pad5)*
X218104640Y-108632960D03*
G04 #@! TO.P,N2,3*
G04 #@! TO.N,Net-(J2-Pad4)*
X219786120Y-106194560D03*
G04 #@! TO.P,N2,2*
G04 #@! TO.N,Net-(J2-Pad3)*
X220144260Y-103255780D03*
G04 #@! TO.P,N2,1*
G04 #@! TO.N,Net-(J2-Pad2)*
X219092700Y-100484640D03*
G04 #@! TO.P,N2,0*
G04 #@! TO.N,Net-(J2-Pad1)*
X208907300Y-100484640D03*
G04 #@! TD*
D11*
G04 #@! TO.P,R10,2*
G04 #@! TO.N,Net-(O1-Pad7)*
X196160000Y-116000000D03*
D12*
G04 #@! TO.P,R10,1*
G04 #@! TO.N,Net-(J2-Pad12)*
X186000000Y-116000000D03*
G04 #@! TD*
D11*
G04 #@! TO.P,R9,2*
G04 #@! TO.N,Net-(O1-Pad5)*
X198160000Y-121000000D03*
D12*
G04 #@! TO.P,R9,1*
G04 #@! TO.N,Net-(J2-Pad11)*
X188000000Y-121000000D03*
G04 #@! TD*
D11*
G04 #@! TO.P,R8,2*
G04 #@! TO.N,Net-(O1-Pad3)*
X201840000Y-85000000D03*
D12*
G04 #@! TO.P,R8,1*
G04 #@! TO.N,Net-(J1-Pad12)*
X212000000Y-85000000D03*
G04 #@! TD*
D11*
G04 #@! TO.P,R7,2*
G04 #@! TO.N,Net-(O1-Pad1)*
X201840000Y-89000000D03*
D12*
G04 #@! TO.P,R7,1*
G04 #@! TO.N,Net-(J1-Pad11)*
X212000000Y-89000000D03*
G04 #@! TD*
D11*
G04 #@! TO.P,R6,2*
G04 #@! TO.N,Net-(O1-Pad9)*
X217000000Y-80840000D03*
D12*
G04 #@! TO.P,R6,1*
G04 #@! TO.N,Net-(N2-PadRHDP)*
X217000000Y-91000000D03*
G04 #@! TD*
D11*
G04 #@! TO.P,R5,2*
G04 #@! TO.N,Net-(O1-Pad11)*
X199840000Y-93000000D03*
D12*
G04 #@! TO.P,R5,1*
G04 #@! TO.N,Net-(N2-PadLHDP)*
X210000000Y-93000000D03*
G04 #@! TD*
D11*
G04 #@! TO.P,R4,2*
G04 #@! TO.N,Net-(O1-Pad13)*
X195160000Y-93000000D03*
D12*
G04 #@! TO.P,R4,1*
G04 #@! TO.N,Net-(N1-PadRHDP)*
X185000000Y-93000000D03*
G04 #@! TD*
D11*
G04 #@! TO.P,R3,2*
G04 #@! TO.N,Net-(O1-Pad15)*
X179000000Y-80840000D03*
D12*
G04 #@! TO.P,R3,1*
G04 #@! TO.N,Net-(N1-PadLHDP)*
X179000000Y-91000000D03*
G04 #@! TD*
D11*
G04 #@! TO.P,R2,2*
G04 #@! TO.N,Net-(J3-Pad1)*
X219500000Y-124160000D03*
D12*
G04 #@! TO.P,R2,1*
G04 #@! TO.N,Net-(N2-PadA)*
X219500000Y-114000000D03*
G04 #@! TD*
D11*
G04 #@! TO.P,R1,2*
G04 #@! TO.N,Net-(J3-Pad1)*
X174000000Y-124160000D03*
D12*
G04 #@! TO.P,R1,1*
G04 #@! TO.N,Net-(N1-PadA)*
X174000000Y-114000000D03*
G04 #@! TD*
D13*
G04 #@! TO.P,J3,4*
G04 #@! TO.N,GND*
X183120000Y-128000000D03*
G04 #@! TO.P,J3,3*
X180580000Y-128000000D03*
G04 #@! TO.P,J3,2*
G04 #@! TO.N,Net-(J3-Pad1)*
X178040000Y-128000000D03*
D14*
G04 #@! TO.P,J3,1*
X175500000Y-128000000D03*
G04 #@! TD*
D13*
G04 #@! TO.P,J2,12*
G04 #@! TO.N,Net-(J2-Pad12)*
X188560000Y-128000000D03*
G04 #@! TO.P,J2,11*
G04 #@! TO.N,Net-(J2-Pad11)*
X191100000Y-128000000D03*
G04 #@! TO.P,J2,10*
G04 #@! TO.N,Net-(J2-Pad10)*
X193640000Y-128000000D03*
G04 #@! TO.P,J2,9*
G04 #@! TO.N,Net-(J2-Pad9)*
X196180000Y-128000000D03*
G04 #@! TO.P,J2,8*
G04 #@! TO.N,Net-(J2-Pad8)*
X198720000Y-128000000D03*
G04 #@! TO.P,J2,7*
G04 #@! TO.N,Net-(J2-Pad7)*
X201260000Y-128000000D03*
G04 #@! TO.P,J2,6*
G04 #@! TO.N,Net-(J2-Pad6)*
X203800000Y-128000000D03*
G04 #@! TO.P,J2,5*
G04 #@! TO.N,Net-(J2-Pad5)*
X206340000Y-128000000D03*
G04 #@! TO.P,J2,4*
G04 #@! TO.N,Net-(J2-Pad4)*
X208880000Y-128000000D03*
G04 #@! TO.P,J2,3*
G04 #@! TO.N,Net-(J2-Pad3)*
X211420000Y-128000000D03*
G04 #@! TO.P,J2,2*
G04 #@! TO.N,Net-(J2-Pad2)*
X213960000Y-128000000D03*
D14*
G04 #@! TO.P,J2,1*
G04 #@! TO.N,Net-(J2-Pad1)*
X216500000Y-128000000D03*
G04 #@! TD*
D13*
G04 #@! TO.P,J1,12*
G04 #@! TO.N,Net-(J1-Pad12)*
X212240000Y-81000000D03*
G04 #@! TO.P,J1,11*
G04 #@! TO.N,Net-(J1-Pad11)*
X209700000Y-81000000D03*
G04 #@! TO.P,J1,10*
G04 #@! TO.N,Net-(J1-Pad10)*
X207160000Y-81000000D03*
G04 #@! TO.P,J1,9*
G04 #@! TO.N,Net-(J1-Pad9)*
X204620000Y-81000000D03*
G04 #@! TO.P,J1,8*
G04 #@! TO.N,Net-(J1-Pad8)*
X202080000Y-81000000D03*
G04 #@! TO.P,J1,7*
G04 #@! TO.N,Net-(J1-Pad7)*
X199540000Y-81000000D03*
G04 #@! TO.P,J1,6*
G04 #@! TO.N,Net-(J1-Pad6)*
X197000000Y-81000000D03*
G04 #@! TO.P,J1,5*
G04 #@! TO.N,Net-(J1-Pad5)*
X194460000Y-81000000D03*
G04 #@! TO.P,J1,4*
G04 #@! TO.N,Net-(J1-Pad4)*
X191920000Y-81000000D03*
G04 #@! TO.P,J1,3*
G04 #@! TO.N,Net-(J1-Pad3)*
X189380000Y-81000000D03*
G04 #@! TO.P,J1,2*
G04 #@! TO.N,Net-(J1-Pad2)*
X186840000Y-81000000D03*
D14*
G04 #@! TO.P,J1,1*
G04 #@! TO.N,Net-(J1-Pad1)*
X184300000Y-81000000D03*
G04 #@! TD*
D15*
G04 #@! TO.N,Net-(J1-Pad10)*
X192300000Y-113250000D03*
G04 #@! TO.N,Net-(J1-Pad7)*
X184050000Y-85950000D03*
G04 #@! TO.N,Net-(J1-Pad6)*
X185500000Y-84500000D03*
G04 #@! TO.N,Net-(J1-Pad4)*
X188125000Y-83125000D03*
G04 #@! TO.N,Net-(J2-Pad10)*
X194000000Y-121000000D03*
X206500000Y-111000000D03*
G04 #@! TO.N,Net-(J2-Pad1)*
X216500000Y-119500000D03*
G04 #@! TO.N,GND*
X190500000Y-96000000D03*
X184000000Y-89500000D03*
X202000000Y-95000000D03*
X210200000Y-121500000D03*
X212700000Y-121500000D03*
X196500000Y-87500000D03*
G04 #@! TO.N,Net-(O1-Pad15)*
X201000000Y-100000000D03*
G04 #@! TO.N,Net-(O1-Pad13)*
X198000000Y-100000000D03*
G04 #@! TD*
D16*
G04 #@! TO.N,Net-(J1-Pad12)*
X212000000Y-81240000D02*
X212240000Y-81000000D01*
X212000000Y-85000000D02*
X212000000Y-81240000D01*
G04 #@! TO.N,Net-(J1-Pad11)*
X209700000Y-86700000D02*
X212000000Y-89000000D01*
X209700000Y-81000000D02*
X209700000Y-86700000D01*
D17*
G04 #@! TO.N,Net-(J1-Pad10)*
X207160000Y-81000000D02*
X207160000Y-98840000D01*
X192750000Y-113250000D02*
X192300000Y-113250000D01*
X207160000Y-98840000D02*
X192750000Y-113250000D01*
G04 #@! TO.N,Net-(J1-Pad9)*
X204620000Y-81000000D02*
X204620000Y-83120000D01*
X204620000Y-83120000D02*
X205050000Y-83550000D01*
X205050000Y-83550000D02*
X205050000Y-99450000D01*
X205050000Y-99450000D02*
X192125000Y-112375000D01*
X192125000Y-112375000D02*
X178375000Y-112375000D01*
X175213880Y-109213880D02*
X175213880Y-106194560D01*
X178375000Y-112375000D02*
X175213880Y-109213880D01*
G04 #@! TO.N,Net-(J1-Pad8)*
X202080000Y-82580000D02*
X202080000Y-81000000D01*
X203500000Y-84000000D02*
X202080000Y-82580000D01*
X203500000Y-99700000D02*
X203500000Y-84000000D01*
X191700000Y-111500000D02*
X203500000Y-99700000D01*
X178810493Y-111500000D02*
X191700000Y-111500000D01*
X176895360Y-109584867D02*
X178810493Y-111500000D01*
X176895360Y-108632960D02*
X176895360Y-109584867D01*
G04 #@! TO.N,Net-(J1-Pad7)*
X199540000Y-81000000D02*
X199540000Y-85010000D01*
X199540000Y-85533002D02*
X199123002Y-85950000D01*
X199123002Y-85950000D02*
X184050000Y-85950000D01*
X199540000Y-85010000D02*
X199540000Y-85533002D01*
G04 #@! TO.N,Net-(J1-Pad6)*
X197000000Y-81000000D02*
X197000000Y-83500000D01*
X196000000Y-84500000D02*
X185500000Y-84500000D01*
X197000000Y-83500000D02*
X196000000Y-84500000D01*
G04 #@! TO.N,Net-(J1-Pad4)*
X191920000Y-81000000D02*
X191920000Y-82580000D01*
X191375000Y-83125000D02*
X188125000Y-83125000D01*
X191920000Y-82580000D02*
X191375000Y-83125000D01*
G04 #@! TO.N,Net-(J2-Pad10)*
X194000000Y-121000000D02*
X197000000Y-118000000D01*
X199500000Y-118000000D02*
X206500000Y-111000000D01*
X197000000Y-118000000D02*
X199500000Y-118000000D01*
D16*
G04 #@! TO.N,Net-(J2-Pad1)*
X208391940Y-101000000D02*
X208907300Y-100484640D01*
D17*
X207015360Y-100484640D02*
X208907300Y-100484640D01*
X205500000Y-102000000D02*
X207015360Y-100484640D01*
X205500000Y-107000000D02*
X205500000Y-102000000D01*
X216500000Y-119500000D02*
X216500000Y-118000000D01*
X216500000Y-118000000D02*
X207500000Y-109000000D01*
X207500000Y-109000000D02*
X205500000Y-107000000D01*
D16*
X212000000Y-113500000D02*
X207500000Y-109000000D01*
D17*
G04 #@! TO.N,Net-(J3-Pad1)*
X178040000Y-128000000D02*
X175500000Y-128000000D01*
X175500000Y-125660000D02*
X174000000Y-124160000D01*
X175500000Y-128000000D02*
X175500000Y-125660000D01*
X174000000Y-124160000D02*
X219500000Y-124160000D01*
G04 #@! TO.N,Net-(N1-PadA)*
X179187440Y-96000000D02*
X181000000Y-97812560D01*
X175000000Y-96000000D02*
X179187440Y-96000000D01*
X172000000Y-99000000D02*
X175000000Y-96000000D01*
X172000000Y-112000000D02*
X172000000Y-99000000D01*
X174000000Y-114000000D02*
X172000000Y-112000000D01*
G04 #@! TO.N,Net-(N2-PadA)*
X223500000Y-110000000D02*
X219500000Y-114000000D01*
X223500000Y-101500000D02*
X223500000Y-110000000D01*
X223500000Y-101500000D02*
X218000000Y-96000000D01*
X215812560Y-96000000D02*
X214000000Y-97812560D01*
X218000000Y-96000000D02*
X215812560Y-96000000D01*
G04 #@! TO.N,Net-(O1-Pad15)*
X179000000Y-82926998D02*
X197000000Y-100926998D01*
X179000000Y-80840000D02*
X179000000Y-82926998D01*
X200073002Y-100926998D02*
X201000000Y-100000000D01*
X197000000Y-100926998D02*
X200073002Y-100926998D01*
G04 #@! TO.N,Net-(O1-Pad13)*
X195160000Y-93000000D02*
X195160000Y-97160000D01*
X195160000Y-97160000D02*
X198000000Y-100000000D01*
G04 #@! TD*
D18*
G04 #@! TO.N,GND*
G36*
X225340001Y-129840000D02*
G01*
X179627000Y-129840000D01*
X179627000Y-127853740D01*
X187075000Y-127853740D01*
X187075000Y-128146260D01*
X187132068Y-128433158D01*
X187244010Y-128703411D01*
X187406525Y-128946632D01*
X187613368Y-129153475D01*
X187856589Y-129315990D01*
X188126842Y-129427932D01*
X188413740Y-129485000D01*
X188706260Y-129485000D01*
X188993158Y-129427932D01*
X189263411Y-129315990D01*
X189506632Y-129153475D01*
X189713475Y-128946632D01*
X189830000Y-128772240D01*
X189946525Y-128946632D01*
X190153368Y-129153475D01*
X190396589Y-129315990D01*
X190666842Y-129427932D01*
X190953740Y-129485000D01*
X191246260Y-129485000D01*
X191533158Y-129427932D01*
X191803411Y-129315990D01*
X192046632Y-129153475D01*
X192253475Y-128946632D01*
X192370000Y-128772240D01*
X192486525Y-128946632D01*
X192693368Y-129153475D01*
X192936589Y-129315990D01*
X193206842Y-129427932D01*
X193493740Y-129485000D01*
X193786260Y-129485000D01*
X194073158Y-129427932D01*
X194343411Y-129315990D01*
X194586632Y-129153475D01*
X194793475Y-128946632D01*
X194910000Y-128772240D01*
X195026525Y-128946632D01*
X195233368Y-129153475D01*
X195476589Y-129315990D01*
X195746842Y-129427932D01*
X196033740Y-129485000D01*
X196326260Y-129485000D01*
X196613158Y-129427932D01*
X196883411Y-129315990D01*
X197126632Y-129153475D01*
X197333475Y-128946632D01*
X197450000Y-128772240D01*
X197566525Y-128946632D01*
X197773368Y-129153475D01*
X198016589Y-129315990D01*
X198286842Y-129427932D01*
X198573740Y-129485000D01*
X198866260Y-129485000D01*
X199153158Y-129427932D01*
X199423411Y-129315990D01*
X199666632Y-129153475D01*
X199873475Y-128946632D01*
X199990000Y-128772240D01*
X200106525Y-128946632D01*
X200313368Y-129153475D01*
X200556589Y-129315990D01*
X200826842Y-129427932D01*
X201113740Y-129485000D01*
X201406260Y-129485000D01*
X201693158Y-129427932D01*
X201963411Y-129315990D01*
X202206632Y-129153475D01*
X202413475Y-128946632D01*
X202530000Y-128772240D01*
X202646525Y-128946632D01*
X202853368Y-129153475D01*
X203096589Y-129315990D01*
X203366842Y-129427932D01*
X203653740Y-129485000D01*
X203946260Y-129485000D01*
X204233158Y-129427932D01*
X204503411Y-129315990D01*
X204746632Y-129153475D01*
X204953475Y-128946632D01*
X205070000Y-128772240D01*
X205186525Y-128946632D01*
X205393368Y-129153475D01*
X205636589Y-129315990D01*
X205906842Y-129427932D01*
X206193740Y-129485000D01*
X206486260Y-129485000D01*
X206773158Y-129427932D01*
X207043411Y-129315990D01*
X207286632Y-129153475D01*
X207493475Y-128946632D01*
X207610000Y-128772240D01*
X207726525Y-128946632D01*
X207933368Y-129153475D01*
X208176589Y-129315990D01*
X208446842Y-129427932D01*
X208733740Y-129485000D01*
X209026260Y-129485000D01*
X209313158Y-129427932D01*
X209583411Y-129315990D01*
X209826632Y-129153475D01*
X210033475Y-128946632D01*
X210150000Y-128772240D01*
X210266525Y-128946632D01*
X210473368Y-129153475D01*
X210716589Y-129315990D01*
X210986842Y-129427932D01*
X211273740Y-129485000D01*
X211566260Y-129485000D01*
X211853158Y-129427932D01*
X212123411Y-129315990D01*
X212366632Y-129153475D01*
X212573475Y-128946632D01*
X212690000Y-128772240D01*
X212806525Y-128946632D01*
X213013368Y-129153475D01*
X213256589Y-129315990D01*
X213526842Y-129427932D01*
X213813740Y-129485000D01*
X214106260Y-129485000D01*
X214393158Y-129427932D01*
X214663411Y-129315990D01*
X214906632Y-129153475D01*
X215038487Y-129021620D01*
X215060498Y-129094180D01*
X215119463Y-129204494D01*
X215198815Y-129301185D01*
X215295506Y-129380537D01*
X215405820Y-129439502D01*
X215525518Y-129475812D01*
X215650000Y-129488072D01*
X217350000Y-129488072D01*
X217474482Y-129475812D01*
X217594180Y-129439502D01*
X217704494Y-129380537D01*
X217801185Y-129301185D01*
X217880537Y-129204494D01*
X217939502Y-129094180D01*
X217975812Y-128974482D01*
X217988072Y-128850000D01*
X217988072Y-127304495D01*
X221015000Y-127304495D01*
X221015000Y-127695505D01*
X221091282Y-128079003D01*
X221240915Y-128440250D01*
X221458149Y-128765364D01*
X221734636Y-129041851D01*
X222059750Y-129259085D01*
X222420997Y-129408718D01*
X222804495Y-129485000D01*
X223195505Y-129485000D01*
X223579003Y-129408718D01*
X223940250Y-129259085D01*
X224265364Y-129041851D01*
X224541851Y-128765364D01*
X224759085Y-128440250D01*
X224908718Y-128079003D01*
X224985000Y-127695505D01*
X224985000Y-127304495D01*
X224908718Y-126920997D01*
X224759085Y-126559750D01*
X224541851Y-126234636D01*
X224265364Y-125958149D01*
X223940250Y-125740915D01*
X223579003Y-125591282D01*
X223195505Y-125515000D01*
X222804495Y-125515000D01*
X222420997Y-125591282D01*
X222059750Y-125740915D01*
X221734636Y-125958149D01*
X221458149Y-126234636D01*
X221240915Y-126559750D01*
X221091282Y-126920997D01*
X221015000Y-127304495D01*
X217988072Y-127304495D01*
X217988072Y-127150000D01*
X217975812Y-127025518D01*
X217939502Y-126905820D01*
X217880537Y-126795506D01*
X217801185Y-126698815D01*
X217704494Y-126619463D01*
X217594180Y-126560498D01*
X217474482Y-126524188D01*
X217350000Y-126511928D01*
X215650000Y-126511928D01*
X215525518Y-126524188D01*
X215405820Y-126560498D01*
X215295506Y-126619463D01*
X215198815Y-126698815D01*
X215119463Y-126795506D01*
X215060498Y-126905820D01*
X215038487Y-126978380D01*
X214906632Y-126846525D01*
X214663411Y-126684010D01*
X214393158Y-126572068D01*
X214106260Y-126515000D01*
X213813740Y-126515000D01*
X213526842Y-126572068D01*
X213256589Y-126684010D01*
X213013368Y-126846525D01*
X212806525Y-127053368D01*
X212690000Y-127227760D01*
X212573475Y-127053368D01*
X212366632Y-126846525D01*
X212123411Y-126684010D01*
X211853158Y-126572068D01*
X211566260Y-126515000D01*
X211273740Y-126515000D01*
X210986842Y-126572068D01*
X210716589Y-126684010D01*
X210473368Y-126846525D01*
X210266525Y-127053368D01*
X210150000Y-127227760D01*
X210033475Y-127053368D01*
X209826632Y-126846525D01*
X209583411Y-126684010D01*
X209313158Y-126572068D01*
X209026260Y-126515000D01*
X208733740Y-126515000D01*
X208446842Y-126572068D01*
X208176589Y-126684010D01*
X207933368Y-126846525D01*
X207726525Y-127053368D01*
X207610000Y-127227760D01*
X207493475Y-127053368D01*
X207286632Y-126846525D01*
X207043411Y-126684010D01*
X206773158Y-126572068D01*
X206486260Y-126515000D01*
X206193740Y-126515000D01*
X205906842Y-126572068D01*
X205636589Y-126684010D01*
X205393368Y-126846525D01*
X205186525Y-127053368D01*
X205070000Y-127227760D01*
X204953475Y-127053368D01*
X204746632Y-126846525D01*
X204503411Y-126684010D01*
X204233158Y-126572068D01*
X203946260Y-126515000D01*
X203653740Y-126515000D01*
X203366842Y-126572068D01*
X203096589Y-126684010D01*
X202853368Y-126846525D01*
X202646525Y-127053368D01*
X202530000Y-127227760D01*
X202413475Y-127053368D01*
X202206632Y-126846525D01*
X201963411Y-126684010D01*
X201693158Y-126572068D01*
X201406260Y-126515000D01*
X201113740Y-126515000D01*
X200826842Y-126572068D01*
X200556589Y-126684010D01*
X200313368Y-126846525D01*
X200106525Y-127053368D01*
X199990000Y-127227760D01*
X199873475Y-127053368D01*
X199666632Y-126846525D01*
X199423411Y-126684010D01*
X199153158Y-126572068D01*
X198866260Y-126515000D01*
X198573740Y-126515000D01*
X198286842Y-126572068D01*
X198016589Y-126684010D01*
X197773368Y-126846525D01*
X197566525Y-127053368D01*
X197450000Y-127227760D01*
X197333475Y-127053368D01*
X197126632Y-126846525D01*
X196883411Y-126684010D01*
X196613158Y-126572068D01*
X196326260Y-126515000D01*
X196033740Y-126515000D01*
X195746842Y-126572068D01*
X195476589Y-126684010D01*
X195233368Y-126846525D01*
X195026525Y-127053368D01*
X194910000Y-127227760D01*
X194793475Y-127053368D01*
X194586632Y-126846525D01*
X194343411Y-126684010D01*
X194073158Y-126572068D01*
X193786260Y-126515000D01*
X193493740Y-126515000D01*
X193206842Y-126572068D01*
X192936589Y-126684010D01*
X192693368Y-126846525D01*
X192486525Y-127053368D01*
X192370000Y-127227760D01*
X192253475Y-127053368D01*
X192046632Y-126846525D01*
X191803411Y-126684010D01*
X191533158Y-126572068D01*
X191246260Y-126515000D01*
X190953740Y-126515000D01*
X190666842Y-126572068D01*
X190396589Y-126684010D01*
X190153368Y-126846525D01*
X189946525Y-127053368D01*
X189830000Y-127227760D01*
X189713475Y-127053368D01*
X189506632Y-126846525D01*
X189263411Y-126684010D01*
X188993158Y-126572068D01*
X188706260Y-126515000D01*
X188413740Y-126515000D01*
X188126842Y-126572068D01*
X187856589Y-126684010D01*
X187613368Y-126846525D01*
X187406525Y-127053368D01*
X187244010Y-127296589D01*
X187132068Y-127566842D01*
X187075000Y-127853740D01*
X179627000Y-127853740D01*
X179627000Y-126127000D01*
X221500000Y-126127000D01*
X221524776Y-126124560D01*
X221548601Y-126117333D01*
X221570557Y-126105597D01*
X221589803Y-126089803D01*
X221605597Y-126070557D01*
X221617333Y-126048601D01*
X221624560Y-126024776D01*
X221627000Y-126000000D01*
X221627000Y-122500000D01*
X221624560Y-122475224D01*
X221617333Y-122451399D01*
X221605597Y-122429443D01*
X221589803Y-122410197D01*
X221570557Y-122394403D01*
X221548601Y-122382667D01*
X221524776Y-122375440D01*
X221500000Y-122373000D01*
X198595119Y-122373000D01*
X198839727Y-122271680D01*
X199074759Y-122114637D01*
X199274637Y-121914759D01*
X199431680Y-121679727D01*
X199539853Y-121418574D01*
X199595000Y-121141335D01*
X199595000Y-120858665D01*
X199539853Y-120581426D01*
X199431680Y-120320273D01*
X199274637Y-120085241D01*
X199074759Y-119885363D01*
X198839727Y-119728320D01*
X198578574Y-119620147D01*
X198301335Y-119565000D01*
X198018665Y-119565000D01*
X197741426Y-119620147D01*
X197480273Y-119728320D01*
X197245241Y-119885363D01*
X197045363Y-120085241D01*
X196888320Y-120320273D01*
X196780147Y-120581426D01*
X196725000Y-120858665D01*
X196725000Y-121141335D01*
X196780147Y-121418574D01*
X196888320Y-121679727D01*
X197045363Y-121914759D01*
X197245241Y-122114637D01*
X197480273Y-122271680D01*
X197724881Y-122373000D01*
X188435119Y-122373000D01*
X188679727Y-122271680D01*
X188914759Y-122114637D01*
X189114637Y-121914759D01*
X189271680Y-121679727D01*
X189379853Y-121418574D01*
X189435000Y-121141335D01*
X189435000Y-120898061D01*
X192965000Y-120898061D01*
X192965000Y-121101939D01*
X193004774Y-121301898D01*
X193082795Y-121490256D01*
X193196063Y-121659774D01*
X193340226Y-121803937D01*
X193509744Y-121917205D01*
X193698102Y-121995226D01*
X193898061Y-122035000D01*
X194101939Y-122035000D01*
X194301898Y-121995226D01*
X194490256Y-121917205D01*
X194659774Y-121803937D01*
X194803937Y-121659774D01*
X194917205Y-121490256D01*
X194995226Y-121301898D01*
X195006535Y-121245043D01*
X197366579Y-118885000D01*
X199456531Y-118885000D01*
X199500000Y-118889281D01*
X199543469Y-118885000D01*
X199543477Y-118885000D01*
X199673490Y-118872195D01*
X199840313Y-118821589D01*
X199994059Y-118739411D01*
X200128817Y-118628817D01*
X200156534Y-118595044D01*
X206745044Y-112006535D01*
X206801898Y-111995226D01*
X206990256Y-111917205D01*
X207159774Y-111803937D01*
X207303937Y-111659774D01*
X207417205Y-111490256D01*
X207495226Y-111301898D01*
X207535000Y-111101939D01*
X207535000Y-110898061D01*
X207495226Y-110698102D01*
X207417205Y-110509744D01*
X207303937Y-110340226D01*
X207159774Y-110196063D01*
X206990256Y-110082795D01*
X206801898Y-110004774D01*
X206601939Y-109965000D01*
X206398061Y-109965000D01*
X206198102Y-110004774D01*
X206009744Y-110082795D01*
X205840226Y-110196063D01*
X205696063Y-110340226D01*
X205582795Y-110509744D01*
X205504774Y-110698102D01*
X205493465Y-110754956D01*
X199133422Y-117115000D01*
X197074216Y-117115000D01*
X197074759Y-117114637D01*
X197274637Y-116914759D01*
X197431680Y-116679727D01*
X197539853Y-116418574D01*
X197595000Y-116141335D01*
X197595000Y-115858665D01*
X197539853Y-115581426D01*
X197431680Y-115320273D01*
X197274637Y-115085241D01*
X197074759Y-114885363D01*
X196839727Y-114728320D01*
X196578574Y-114620147D01*
X196301335Y-114565000D01*
X196018665Y-114565000D01*
X195741426Y-114620147D01*
X195480273Y-114728320D01*
X195245241Y-114885363D01*
X195045363Y-115085241D01*
X194888320Y-115320273D01*
X194780147Y-115581426D01*
X194725000Y-115858665D01*
X194725000Y-116141335D01*
X194780147Y-116418574D01*
X194888320Y-116679727D01*
X195045363Y-116914759D01*
X195245241Y-117114637D01*
X195480273Y-117271680D01*
X195741426Y-117379853D01*
X196018665Y-117435000D01*
X196301335Y-117435000D01*
X196316422Y-117431999D01*
X193754957Y-119993465D01*
X193698102Y-120004774D01*
X193509744Y-120082795D01*
X193340226Y-120196063D01*
X193196063Y-120340226D01*
X193082795Y-120509744D01*
X193004774Y-120698102D01*
X192965000Y-120898061D01*
X189435000Y-120898061D01*
X189435000Y-120858665D01*
X189379853Y-120581426D01*
X189271680Y-120320273D01*
X189114637Y-120085241D01*
X188914759Y-119885363D01*
X188679727Y-119728320D01*
X188418574Y-119620147D01*
X188141335Y-119565000D01*
X187858665Y-119565000D01*
X187581426Y-119620147D01*
X187320273Y-119728320D01*
X187085241Y-119885363D01*
X186885363Y-120085241D01*
X186728320Y-120320273D01*
X186620147Y-120581426D01*
X186565000Y-120858665D01*
X186565000Y-121141335D01*
X186620147Y-121418574D01*
X186728320Y-121679727D01*
X186885363Y-121914759D01*
X187085241Y-122114637D01*
X187320273Y-122271680D01*
X187564881Y-122373000D01*
X172000000Y-122373000D01*
X171975224Y-122375440D01*
X171951399Y-122382667D01*
X171929443Y-122394403D01*
X171910197Y-122410197D01*
X171894403Y-122429443D01*
X171882667Y-122451399D01*
X171875440Y-122475224D01*
X171873000Y-122500000D01*
X171873000Y-129840000D01*
X170160000Y-129840000D01*
X170160000Y-98000000D01*
X170373000Y-98000000D01*
X170373000Y-114000000D01*
X170375440Y-114024776D01*
X170382667Y-114048601D01*
X170394403Y-114070557D01*
X170410197Y-114089803D01*
X172410197Y-116089803D01*
X172429443Y-116105597D01*
X172451399Y-116117333D01*
X172475224Y-116124560D01*
X172500000Y-116127000D01*
X176000000Y-116127000D01*
X176024776Y-116124560D01*
X176048601Y-116117333D01*
X176070557Y-116105597D01*
X176089803Y-116089803D01*
X176105597Y-116070557D01*
X176117333Y-116048601D01*
X176124560Y-116024776D01*
X176127000Y-116000000D01*
X176127000Y-115858665D01*
X184565000Y-115858665D01*
X184565000Y-116141335D01*
X184620147Y-116418574D01*
X184728320Y-116679727D01*
X184885363Y-116914759D01*
X185085241Y-117114637D01*
X185320273Y-117271680D01*
X185581426Y-117379853D01*
X185858665Y-117435000D01*
X186141335Y-117435000D01*
X186418574Y-117379853D01*
X186679727Y-117271680D01*
X186914759Y-117114637D01*
X187114637Y-116914759D01*
X187271680Y-116679727D01*
X187379853Y-116418574D01*
X187435000Y-116141335D01*
X187435000Y-115858665D01*
X187379853Y-115581426D01*
X187271680Y-115320273D01*
X187114637Y-115085241D01*
X186914759Y-114885363D01*
X186679727Y-114728320D01*
X186418574Y-114620147D01*
X186141335Y-114565000D01*
X185858665Y-114565000D01*
X185581426Y-114620147D01*
X185320273Y-114728320D01*
X185085241Y-114885363D01*
X184885363Y-115085241D01*
X184728320Y-115320273D01*
X184620147Y-115581426D01*
X184565000Y-115858665D01*
X176127000Y-115858665D01*
X176127000Y-112500000D01*
X176124560Y-112475224D01*
X176117333Y-112451399D01*
X176105597Y-112429443D01*
X176089803Y-112410197D01*
X173627000Y-109947394D01*
X173627000Y-106065723D01*
X173905780Y-106065723D01*
X173905780Y-106323397D01*
X173956050Y-106576119D01*
X174054657Y-106814178D01*
X174197813Y-107028425D01*
X174328881Y-107159493D01*
X174328880Y-109170411D01*
X174324599Y-109213880D01*
X174328880Y-109257349D01*
X174328880Y-109257356D01*
X174341685Y-109387369D01*
X174392291Y-109554192D01*
X174474469Y-109707938D01*
X174585063Y-109842697D01*
X174618836Y-109870414D01*
X177718470Y-112970049D01*
X177746183Y-113003817D01*
X177779951Y-113031530D01*
X177779953Y-113031532D01*
X177880940Y-113114410D01*
X177880941Y-113114411D01*
X178034687Y-113196589D01*
X178201510Y-113247195D01*
X178331523Y-113260000D01*
X178331531Y-113260000D01*
X178375000Y-113264281D01*
X178418469Y-113260000D01*
X191265000Y-113260000D01*
X191265000Y-113351939D01*
X191304774Y-113551898D01*
X191382795Y-113740256D01*
X191496063Y-113909774D01*
X191640226Y-114053937D01*
X191809744Y-114167205D01*
X191998102Y-114245226D01*
X192198061Y-114285000D01*
X192401939Y-114285000D01*
X192601898Y-114245226D01*
X192790256Y-114167205D01*
X192846230Y-114129804D01*
X192923490Y-114122195D01*
X193090313Y-114071589D01*
X193244059Y-113989411D01*
X193378817Y-113878817D01*
X193406534Y-113845044D01*
X204615001Y-102636578D01*
X204615000Y-106956531D01*
X204610719Y-107000000D01*
X204615000Y-107043469D01*
X204615000Y-107043476D01*
X204627805Y-107173489D01*
X204678411Y-107340312D01*
X204760589Y-107494058D01*
X204871183Y-107628817D01*
X204904956Y-107656534D01*
X206904953Y-109656532D01*
X206904959Y-109656537D01*
X215615001Y-118366580D01*
X215615000Y-118961545D01*
X215582795Y-119009744D01*
X215504774Y-119198102D01*
X215465000Y-119398061D01*
X215465000Y-119601939D01*
X215504774Y-119801898D01*
X215582795Y-119990256D01*
X215696063Y-120159774D01*
X215840226Y-120303937D01*
X216009744Y-120417205D01*
X216198102Y-120495226D01*
X216398061Y-120535000D01*
X216601939Y-120535000D01*
X216801898Y-120495226D01*
X216990256Y-120417205D01*
X217159774Y-120303937D01*
X217303937Y-120159774D01*
X217417205Y-119990256D01*
X217495226Y-119801898D01*
X217535000Y-119601939D01*
X217535000Y-119398061D01*
X217495226Y-119198102D01*
X217417205Y-119009744D01*
X217385000Y-118961546D01*
X217385000Y-118043466D01*
X217389281Y-117999999D01*
X217385000Y-117956533D01*
X217385000Y-117956523D01*
X217372195Y-117826510D01*
X217321589Y-117659687D01*
X217239411Y-117505941D01*
X217181191Y-117435000D01*
X217156532Y-117404953D01*
X217156530Y-117404951D01*
X217128817Y-117371183D01*
X217095049Y-117343470D01*
X209674292Y-109922714D01*
X209766523Y-109941060D01*
X210024197Y-109941060D01*
X210276919Y-109890790D01*
X210301029Y-109880803D01*
X211211080Y-109880803D01*
X211211080Y-110138477D01*
X211261350Y-110391199D01*
X211359957Y-110629258D01*
X211503113Y-110843505D01*
X211685315Y-111025707D01*
X211899562Y-111168863D01*
X212137621Y-111267470D01*
X212390343Y-111317740D01*
X212648017Y-111317740D01*
X212900739Y-111267470D01*
X213138798Y-111168863D01*
X213353045Y-111025707D01*
X213535247Y-110843505D01*
X213678403Y-110629258D01*
X213777010Y-110391199D01*
X213827280Y-110138477D01*
X213827280Y-109880803D01*
X214172720Y-109880803D01*
X214172720Y-110138477D01*
X214222990Y-110391199D01*
X214321597Y-110629258D01*
X214464753Y-110843505D01*
X214646955Y-111025707D01*
X214861202Y-111168863D01*
X215099261Y-111267470D01*
X215351983Y-111317740D01*
X215609657Y-111317740D01*
X215862379Y-111267470D01*
X216100438Y-111168863D01*
X216314685Y-111025707D01*
X216496887Y-110843505D01*
X216640043Y-110629258D01*
X216738650Y-110391199D01*
X216788920Y-110138477D01*
X216788920Y-109880803D01*
X216738650Y-109628081D01*
X216640043Y-109390022D01*
X216496887Y-109175775D01*
X216314685Y-108993573D01*
X216100438Y-108850417D01*
X215862379Y-108751810D01*
X215609657Y-108701540D01*
X215351983Y-108701540D01*
X215099261Y-108751810D01*
X214861202Y-108850417D01*
X214646955Y-108993573D01*
X214464753Y-109175775D01*
X214321597Y-109390022D01*
X214222990Y-109628081D01*
X214172720Y-109880803D01*
X213827280Y-109880803D01*
X213777010Y-109628081D01*
X213678403Y-109390022D01*
X213535247Y-109175775D01*
X213353045Y-108993573D01*
X213138798Y-108850417D01*
X212900739Y-108751810D01*
X212648017Y-108701540D01*
X212390343Y-108701540D01*
X212137621Y-108751810D01*
X211899562Y-108850417D01*
X211685315Y-108993573D01*
X211503113Y-109175775D01*
X211359957Y-109390022D01*
X211261350Y-109628081D01*
X211211080Y-109880803D01*
X210301029Y-109880803D01*
X210514978Y-109792183D01*
X210729225Y-109649027D01*
X210911427Y-109466825D01*
X211054583Y-109252578D01*
X211153190Y-109014519D01*
X211203460Y-108761797D01*
X211203460Y-108504123D01*
X216796540Y-108504123D01*
X216796540Y-108761797D01*
X216846810Y-109014519D01*
X216945417Y-109252578D01*
X217088573Y-109466825D01*
X217270775Y-109649027D01*
X217485022Y-109792183D01*
X217723081Y-109890790D01*
X217975803Y-109941060D01*
X218233477Y-109941060D01*
X218486199Y-109890790D01*
X218724258Y-109792183D01*
X218938505Y-109649027D01*
X219120707Y-109466825D01*
X219263863Y-109252578D01*
X219362470Y-109014519D01*
X219412740Y-108761797D01*
X219412740Y-108504123D01*
X219362470Y-108251401D01*
X219263863Y-108013342D01*
X219120707Y-107799095D01*
X218938505Y-107616893D01*
X218724258Y-107473737D01*
X218486199Y-107375130D01*
X218233477Y-107324860D01*
X217975803Y-107324860D01*
X217723081Y-107375130D01*
X217485022Y-107473737D01*
X217270775Y-107616893D01*
X217088573Y-107799095D01*
X216945417Y-108013342D01*
X216846810Y-108251401D01*
X216796540Y-108504123D01*
X211203460Y-108504123D01*
X211153190Y-108251401D01*
X211054583Y-108013342D01*
X210911427Y-107799095D01*
X210729225Y-107616893D01*
X210514978Y-107473737D01*
X210276919Y-107375130D01*
X210024197Y-107324860D01*
X209766523Y-107324860D01*
X209513801Y-107375130D01*
X209275742Y-107473737D01*
X209061495Y-107616893D01*
X208879293Y-107799095D01*
X208736137Y-108013342D01*
X208637530Y-108251401D01*
X208587260Y-108504123D01*
X208587260Y-108761797D01*
X208605606Y-108854028D01*
X208156537Y-108404959D01*
X208156532Y-108404953D01*
X206385000Y-106633422D01*
X206385000Y-106065723D01*
X206905780Y-106065723D01*
X206905780Y-106323397D01*
X206956050Y-106576119D01*
X207054657Y-106814178D01*
X207197813Y-107028425D01*
X207380015Y-107210627D01*
X207594262Y-107353783D01*
X207832321Y-107452390D01*
X208085043Y-107502660D01*
X208342717Y-107502660D01*
X208595439Y-107452390D01*
X208833498Y-107353783D01*
X209047745Y-107210627D01*
X209229947Y-107028425D01*
X209373103Y-106814178D01*
X209471710Y-106576119D01*
X209521980Y-106323397D01*
X209521980Y-106065723D01*
X218478020Y-106065723D01*
X218478020Y-106323397D01*
X218528290Y-106576119D01*
X218626897Y-106814178D01*
X218770053Y-107028425D01*
X218952255Y-107210627D01*
X219166502Y-107353783D01*
X219404561Y-107452390D01*
X219657283Y-107502660D01*
X219914957Y-107502660D01*
X220167679Y-107452390D01*
X220405738Y-107353783D01*
X220619985Y-107210627D01*
X220802187Y-107028425D01*
X220945343Y-106814178D01*
X221043950Y-106576119D01*
X221094220Y-106323397D01*
X221094220Y-106065723D01*
X221043950Y-105813001D01*
X220945343Y-105574942D01*
X220802187Y-105360695D01*
X220619985Y-105178493D01*
X220405738Y-105035337D01*
X220167679Y-104936730D01*
X219914957Y-104886460D01*
X219657283Y-104886460D01*
X219404561Y-104936730D01*
X219166502Y-105035337D01*
X218952255Y-105178493D01*
X218770053Y-105360695D01*
X218626897Y-105574942D01*
X218528290Y-105813001D01*
X218478020Y-106065723D01*
X209521980Y-106065723D01*
X209471710Y-105813001D01*
X209373103Y-105574942D01*
X209229947Y-105360695D01*
X209047745Y-105178493D01*
X208833498Y-105035337D01*
X208595439Y-104936730D01*
X208342717Y-104886460D01*
X208085043Y-104886460D01*
X207832321Y-104936730D01*
X207594262Y-105035337D01*
X207380015Y-105178493D01*
X207197813Y-105360695D01*
X207054657Y-105574942D01*
X206956050Y-105813001D01*
X206905780Y-106065723D01*
X206385000Y-106065723D01*
X206385000Y-103126943D01*
X206547640Y-103126943D01*
X206547640Y-103384617D01*
X206597910Y-103637339D01*
X206696517Y-103875398D01*
X206839673Y-104089645D01*
X207021875Y-104271847D01*
X207236122Y-104415003D01*
X207474181Y-104513610D01*
X207726903Y-104563880D01*
X207984577Y-104563880D01*
X208237299Y-104513610D01*
X208475358Y-104415003D01*
X208689605Y-104271847D01*
X208871807Y-104089645D01*
X209014963Y-103875398D01*
X209113570Y-103637339D01*
X209163840Y-103384617D01*
X209163840Y-103126943D01*
X209113570Y-102874221D01*
X209014963Y-102636162D01*
X208871807Y-102421915D01*
X208689605Y-102239713D01*
X208475358Y-102096557D01*
X208237299Y-101997950D01*
X207984577Y-101947680D01*
X207726903Y-101947680D01*
X207474181Y-101997950D01*
X207236122Y-102096557D01*
X207021875Y-102239713D01*
X206839673Y-102421915D01*
X206696517Y-102636162D01*
X206597910Y-102874221D01*
X206547640Y-103126943D01*
X206385000Y-103126943D01*
X206385000Y-102366578D01*
X207381939Y-101369640D01*
X207727762Y-101369640D01*
X207756966Y-101424276D01*
X207851939Y-101540001D01*
X207967664Y-101634974D01*
X208099694Y-101705546D01*
X208242955Y-101749002D01*
X208391940Y-101763676D01*
X208540925Y-101749002D01*
X208547917Y-101746881D01*
X208778463Y-101792740D01*
X209036137Y-101792740D01*
X209288859Y-101742470D01*
X209526918Y-101643863D01*
X209741165Y-101500707D01*
X209923367Y-101318505D01*
X210066523Y-101104258D01*
X210165130Y-100866199D01*
X210215400Y-100613477D01*
X210215400Y-100355803D01*
X210165130Y-100103081D01*
X210066523Y-99865022D01*
X209923367Y-99650775D01*
X209741165Y-99468573D01*
X209526918Y-99325417D01*
X209288859Y-99226810D01*
X209036137Y-99176540D01*
X208778463Y-99176540D01*
X208525741Y-99226810D01*
X208287682Y-99325417D01*
X208073435Y-99468573D01*
X207942368Y-99599640D01*
X207651939Y-99599640D01*
X207755049Y-99496530D01*
X207788817Y-99468817D01*
X207841230Y-99404953D01*
X207899410Y-99334060D01*
X207904030Y-99325417D01*
X207981589Y-99180313D01*
X208032195Y-99013490D01*
X208045000Y-98883477D01*
X208045000Y-98883467D01*
X208049281Y-98840001D01*
X208045000Y-98796535D01*
X208045000Y-98392383D01*
X209816620Y-98392383D01*
X209816620Y-98650057D01*
X209866890Y-98902779D01*
X209965497Y-99140838D01*
X210108653Y-99355085D01*
X210290855Y-99537287D01*
X210505102Y-99680443D01*
X210743161Y-99779050D01*
X210995883Y-99829320D01*
X211253557Y-99829320D01*
X211506279Y-99779050D01*
X211744338Y-99680443D01*
X211958585Y-99537287D01*
X212140787Y-99355085D01*
X212283943Y-99140838D01*
X212373000Y-98925835D01*
X212373000Y-99500000D01*
X212375440Y-99524776D01*
X212382667Y-99548601D01*
X212394403Y-99570557D01*
X212410197Y-99589803D01*
X212429443Y-99605597D01*
X212451399Y-99617333D01*
X212475224Y-99624560D01*
X212500000Y-99627000D01*
X216175679Y-99627000D01*
X216255662Y-99680443D01*
X216493721Y-99779050D01*
X216746443Y-99829320D01*
X217004117Y-99829320D01*
X217256839Y-99779050D01*
X217494898Y-99680443D01*
X217574881Y-99627000D01*
X218100408Y-99627000D01*
X218076633Y-99650775D01*
X217933477Y-99865022D01*
X217834870Y-100103081D01*
X217784600Y-100355803D01*
X217784600Y-100613477D01*
X217834870Y-100866199D01*
X217933477Y-101104258D01*
X218076633Y-101318505D01*
X218258835Y-101500707D01*
X218473082Y-101643863D01*
X218711141Y-101742470D01*
X218963863Y-101792740D01*
X219221537Y-101792740D01*
X219474259Y-101742470D01*
X219712318Y-101643863D01*
X219926565Y-101500707D01*
X220108767Y-101318505D01*
X220251923Y-101104258D01*
X220302514Y-100982120D01*
X221373000Y-102052606D01*
X221373000Y-102803991D01*
X221303483Y-102636162D01*
X221160327Y-102421915D01*
X220978125Y-102239713D01*
X220763878Y-102096557D01*
X220525819Y-101997950D01*
X220273097Y-101947680D01*
X220015423Y-101947680D01*
X219762701Y-101997950D01*
X219524642Y-102096557D01*
X219310395Y-102239713D01*
X219128193Y-102421915D01*
X218985037Y-102636162D01*
X218886430Y-102874221D01*
X218836160Y-103126943D01*
X218836160Y-103384617D01*
X218886430Y-103637339D01*
X218985037Y-103875398D01*
X219128193Y-104089645D01*
X219310395Y-104271847D01*
X219524642Y-104415003D01*
X219762701Y-104513610D01*
X220015423Y-104563880D01*
X220273097Y-104563880D01*
X220525819Y-104513610D01*
X220763878Y-104415003D01*
X220978125Y-104271847D01*
X221160327Y-104089645D01*
X221303483Y-103875398D01*
X221373000Y-103707569D01*
X221373000Y-108942372D01*
X217416370Y-112404423D01*
X217394403Y-112429443D01*
X217382667Y-112451399D01*
X217375440Y-112475224D01*
X217373000Y-112500000D01*
X217373000Y-116000000D01*
X217375440Y-116024776D01*
X217382667Y-116048601D01*
X217394403Y-116070557D01*
X217410197Y-116089803D01*
X217429443Y-116105597D01*
X217451399Y-116117333D01*
X217475224Y-116124560D01*
X217500000Y-116127000D01*
X221000000Y-116127000D01*
X221032048Y-116122890D01*
X221055407Y-116114276D01*
X221076637Y-116101271D01*
X221094921Y-116084374D01*
X225094921Y-111584374D01*
X225105597Y-111570557D01*
X225117333Y-111548601D01*
X225124560Y-111524776D01*
X225127000Y-111500000D01*
X225127000Y-100500000D01*
X225123470Y-100470265D01*
X225115296Y-100446748D01*
X225102692Y-100425278D01*
X225086142Y-100406680D01*
X218586142Y-94406680D01*
X218570557Y-94394403D01*
X218548601Y-94382667D01*
X218524776Y-94375440D01*
X218500000Y-94373000D01*
X215000000Y-94373000D01*
X214964654Y-94378018D01*
X214941535Y-94387257D01*
X214920664Y-94400830D01*
X212420664Y-96400830D01*
X212410197Y-96410197D01*
X212394403Y-96429443D01*
X212382667Y-96451399D01*
X212375440Y-96475224D01*
X212373000Y-96500000D01*
X212373000Y-98116605D01*
X212283943Y-97901602D01*
X212140787Y-97687355D01*
X211958585Y-97505153D01*
X211744338Y-97361997D01*
X211506279Y-97263390D01*
X211253557Y-97213120D01*
X210995883Y-97213120D01*
X210743161Y-97263390D01*
X210505102Y-97361997D01*
X210290855Y-97505153D01*
X210108653Y-97687355D01*
X209965497Y-97901602D01*
X209866890Y-98139661D01*
X209816620Y-98392383D01*
X208045000Y-98392383D01*
X208045000Y-92858665D01*
X208565000Y-92858665D01*
X208565000Y-93141335D01*
X208620147Y-93418574D01*
X208728320Y-93679727D01*
X208885363Y-93914759D01*
X209085241Y-94114637D01*
X209320273Y-94271680D01*
X209581426Y-94379853D01*
X209858665Y-94435000D01*
X210141335Y-94435000D01*
X210418574Y-94379853D01*
X210679727Y-94271680D01*
X210914759Y-94114637D01*
X211114637Y-93914759D01*
X211271680Y-93679727D01*
X211379853Y-93418574D01*
X211435000Y-93141335D01*
X211435000Y-92858665D01*
X211379853Y-92581426D01*
X211271680Y-92320273D01*
X211114637Y-92085241D01*
X210914759Y-91885363D01*
X210679727Y-91728320D01*
X210418574Y-91620147D01*
X210141335Y-91565000D01*
X209858665Y-91565000D01*
X209581426Y-91620147D01*
X209320273Y-91728320D01*
X209085241Y-91885363D01*
X208885363Y-92085241D01*
X208728320Y-92320273D01*
X208620147Y-92581426D01*
X208565000Y-92858665D01*
X208045000Y-92858665D01*
X208045000Y-90858665D01*
X215565000Y-90858665D01*
X215565000Y-91141335D01*
X215620147Y-91418574D01*
X215728320Y-91679727D01*
X215885363Y-91914759D01*
X216085241Y-92114637D01*
X216320273Y-92271680D01*
X216581426Y-92379853D01*
X216858665Y-92435000D01*
X217141335Y-92435000D01*
X217418574Y-92379853D01*
X217679727Y-92271680D01*
X217914759Y-92114637D01*
X218114637Y-91914759D01*
X218271680Y-91679727D01*
X218379853Y-91418574D01*
X218435000Y-91141335D01*
X218435000Y-90858665D01*
X218379853Y-90581426D01*
X218271680Y-90320273D01*
X218114637Y-90085241D01*
X217914759Y-89885363D01*
X217679727Y-89728320D01*
X217418574Y-89620147D01*
X217141335Y-89565000D01*
X216858665Y-89565000D01*
X216581426Y-89620147D01*
X216320273Y-89728320D01*
X216085241Y-89885363D01*
X215885363Y-90085241D01*
X215728320Y-90320273D01*
X215620147Y-90581426D01*
X215565000Y-90858665D01*
X208045000Y-90858665D01*
X208045000Y-82194656D01*
X208106632Y-82153475D01*
X208313475Y-81946632D01*
X208430000Y-81772240D01*
X208546525Y-81946632D01*
X208753368Y-82153475D01*
X208940000Y-82278179D01*
X208940001Y-86662668D01*
X208936324Y-86700000D01*
X208940001Y-86737333D01*
X208949621Y-86835000D01*
X208950998Y-86848985D01*
X208994454Y-86992246D01*
X209065026Y-87124276D01*
X209136201Y-87211002D01*
X209160000Y-87240001D01*
X209188998Y-87263799D01*
X210601312Y-88676114D01*
X210565000Y-88858665D01*
X210565000Y-89141335D01*
X210620147Y-89418574D01*
X210728320Y-89679727D01*
X210885363Y-89914759D01*
X211085241Y-90114637D01*
X211320273Y-90271680D01*
X211581426Y-90379853D01*
X211858665Y-90435000D01*
X212141335Y-90435000D01*
X212418574Y-90379853D01*
X212679727Y-90271680D01*
X212914759Y-90114637D01*
X213114637Y-89914759D01*
X213271680Y-89679727D01*
X213379853Y-89418574D01*
X213435000Y-89141335D01*
X213435000Y-88858665D01*
X213379853Y-88581426D01*
X213271680Y-88320273D01*
X213114637Y-88085241D01*
X212914759Y-87885363D01*
X212679727Y-87728320D01*
X212418574Y-87620147D01*
X212141335Y-87565000D01*
X211858665Y-87565000D01*
X211676114Y-87601312D01*
X210460000Y-86385199D01*
X210460000Y-82278178D01*
X210646632Y-82153475D01*
X210853475Y-81946632D01*
X210970000Y-81772240D01*
X211086525Y-81946632D01*
X211240001Y-82100108D01*
X211240000Y-83781956D01*
X211085241Y-83885363D01*
X210885363Y-84085241D01*
X210728320Y-84320273D01*
X210620147Y-84581426D01*
X210565000Y-84858665D01*
X210565000Y-85141335D01*
X210620147Y-85418574D01*
X210728320Y-85679727D01*
X210885363Y-85914759D01*
X211085241Y-86114637D01*
X211320273Y-86271680D01*
X211581426Y-86379853D01*
X211858665Y-86435000D01*
X212141335Y-86435000D01*
X212418574Y-86379853D01*
X212679727Y-86271680D01*
X212914759Y-86114637D01*
X213114637Y-85914759D01*
X213271680Y-85679727D01*
X213379853Y-85418574D01*
X213435000Y-85141335D01*
X213435000Y-84858665D01*
X213379853Y-84581426D01*
X213271680Y-84320273D01*
X213114637Y-84085241D01*
X212914759Y-83885363D01*
X212760000Y-83781957D01*
X212760000Y-82391961D01*
X212943411Y-82315990D01*
X213186632Y-82153475D01*
X213393475Y-81946632D01*
X213555990Y-81703411D01*
X213667932Y-81433158D01*
X213725000Y-81146260D01*
X213725000Y-80853740D01*
X213694154Y-80698665D01*
X215565000Y-80698665D01*
X215565000Y-80981335D01*
X215620147Y-81258574D01*
X215728320Y-81519727D01*
X215885363Y-81754759D01*
X216085241Y-81954637D01*
X216320273Y-82111680D01*
X216581426Y-82219853D01*
X216858665Y-82275000D01*
X217141335Y-82275000D01*
X217418574Y-82219853D01*
X217679727Y-82111680D01*
X217914759Y-81954637D01*
X218064901Y-81804495D01*
X220515000Y-81804495D01*
X220515000Y-82195505D01*
X220591282Y-82579003D01*
X220740915Y-82940250D01*
X220958149Y-83265364D01*
X221234636Y-83541851D01*
X221559750Y-83759085D01*
X221920997Y-83908718D01*
X222304495Y-83985000D01*
X222695505Y-83985000D01*
X223079003Y-83908718D01*
X223440250Y-83759085D01*
X223765364Y-83541851D01*
X224041851Y-83265364D01*
X224259085Y-82940250D01*
X224408718Y-82579003D01*
X224485000Y-82195505D01*
X224485000Y-81804495D01*
X224408718Y-81420997D01*
X224259085Y-81059750D01*
X224041851Y-80734636D01*
X223765364Y-80458149D01*
X223440250Y-80240915D01*
X223079003Y-80091282D01*
X222695505Y-80015000D01*
X222304495Y-80015000D01*
X221920997Y-80091282D01*
X221559750Y-80240915D01*
X221234636Y-80458149D01*
X220958149Y-80734636D01*
X220740915Y-81059750D01*
X220591282Y-81420997D01*
X220515000Y-81804495D01*
X218064901Y-81804495D01*
X218114637Y-81754759D01*
X218271680Y-81519727D01*
X218379853Y-81258574D01*
X218435000Y-80981335D01*
X218435000Y-80698665D01*
X218379853Y-80421426D01*
X218271680Y-80160273D01*
X218114637Y-79925241D01*
X217914759Y-79725363D01*
X217679727Y-79568320D01*
X217418574Y-79460147D01*
X217141335Y-79405000D01*
X216858665Y-79405000D01*
X216581426Y-79460147D01*
X216320273Y-79568320D01*
X216085241Y-79725363D01*
X215885363Y-79925241D01*
X215728320Y-80160273D01*
X215620147Y-80421426D01*
X215565000Y-80698665D01*
X213694154Y-80698665D01*
X213667932Y-80566842D01*
X213555990Y-80296589D01*
X213393475Y-80053368D01*
X213186632Y-79846525D01*
X212943411Y-79684010D01*
X212673158Y-79572068D01*
X212386260Y-79515000D01*
X212093740Y-79515000D01*
X211806842Y-79572068D01*
X211536589Y-79684010D01*
X211293368Y-79846525D01*
X211086525Y-80053368D01*
X210970000Y-80227760D01*
X210853475Y-80053368D01*
X210646632Y-79846525D01*
X210403411Y-79684010D01*
X210133158Y-79572068D01*
X209846260Y-79515000D01*
X209553740Y-79515000D01*
X209266842Y-79572068D01*
X208996589Y-79684010D01*
X208753368Y-79846525D01*
X208546525Y-80053368D01*
X208430000Y-80227760D01*
X208313475Y-80053368D01*
X208106632Y-79846525D01*
X207863411Y-79684010D01*
X207593158Y-79572068D01*
X207306260Y-79515000D01*
X207013740Y-79515000D01*
X206726842Y-79572068D01*
X206456589Y-79684010D01*
X206213368Y-79846525D01*
X206006525Y-80053368D01*
X205890000Y-80227760D01*
X205773475Y-80053368D01*
X205566632Y-79846525D01*
X205323411Y-79684010D01*
X205053158Y-79572068D01*
X204766260Y-79515000D01*
X204473740Y-79515000D01*
X204186842Y-79572068D01*
X203916589Y-79684010D01*
X203673368Y-79846525D01*
X203466525Y-80053368D01*
X203350000Y-80227760D01*
X203233475Y-80053368D01*
X203026632Y-79846525D01*
X202783411Y-79684010D01*
X202513158Y-79572068D01*
X202226260Y-79515000D01*
X201933740Y-79515000D01*
X201646842Y-79572068D01*
X201376589Y-79684010D01*
X201133368Y-79846525D01*
X200926525Y-80053368D01*
X200810000Y-80227760D01*
X200693475Y-80053368D01*
X200486632Y-79846525D01*
X200243411Y-79684010D01*
X199973158Y-79572068D01*
X199686260Y-79515000D01*
X199393740Y-79515000D01*
X199106842Y-79572068D01*
X198836589Y-79684010D01*
X198593368Y-79846525D01*
X198386525Y-80053368D01*
X198270000Y-80227760D01*
X198153475Y-80053368D01*
X197946632Y-79846525D01*
X197703411Y-79684010D01*
X197433158Y-79572068D01*
X197146260Y-79515000D01*
X196853740Y-79515000D01*
X196566842Y-79572068D01*
X196296589Y-79684010D01*
X196053368Y-79846525D01*
X195846525Y-80053368D01*
X195730000Y-80227760D01*
X195613475Y-80053368D01*
X195406632Y-79846525D01*
X195163411Y-79684010D01*
X194893158Y-79572068D01*
X194606260Y-79515000D01*
X194313740Y-79515000D01*
X194026842Y-79572068D01*
X193756589Y-79684010D01*
X193513368Y-79846525D01*
X193306525Y-80053368D01*
X193190000Y-80227760D01*
X193073475Y-80053368D01*
X192866632Y-79846525D01*
X192623411Y-79684010D01*
X192353158Y-79572068D01*
X192066260Y-79515000D01*
X191773740Y-79515000D01*
X191486842Y-79572068D01*
X191216589Y-79684010D01*
X190973368Y-79846525D01*
X190766525Y-80053368D01*
X190650000Y-80227760D01*
X190533475Y-80053368D01*
X190326632Y-79846525D01*
X190083411Y-79684010D01*
X189813158Y-79572068D01*
X189526260Y-79515000D01*
X189233740Y-79515000D01*
X188946842Y-79572068D01*
X188676589Y-79684010D01*
X188433368Y-79846525D01*
X188226525Y-80053368D01*
X188110000Y-80227760D01*
X187993475Y-80053368D01*
X187786632Y-79846525D01*
X187543411Y-79684010D01*
X187273158Y-79572068D01*
X186986260Y-79515000D01*
X186693740Y-79515000D01*
X186406842Y-79572068D01*
X186136589Y-79684010D01*
X185893368Y-79846525D01*
X185761513Y-79978380D01*
X185739502Y-79905820D01*
X185680537Y-79795506D01*
X185601185Y-79698815D01*
X185504494Y-79619463D01*
X185394180Y-79560498D01*
X185274482Y-79524188D01*
X185150000Y-79511928D01*
X183450000Y-79511928D01*
X183325518Y-79524188D01*
X183205820Y-79560498D01*
X183095506Y-79619463D01*
X182998815Y-79698815D01*
X182919463Y-79795506D01*
X182860498Y-79905820D01*
X182824188Y-80025518D01*
X182811928Y-80150000D01*
X182811928Y-81850000D01*
X182824188Y-81974482D01*
X182860498Y-82094180D01*
X182919463Y-82204494D01*
X182998815Y-82301185D01*
X183095506Y-82380537D01*
X183205820Y-82439502D01*
X183325518Y-82475812D01*
X183450000Y-82488072D01*
X185150000Y-82488072D01*
X185274482Y-82475812D01*
X185394180Y-82439502D01*
X185504494Y-82380537D01*
X185601185Y-82301185D01*
X185680537Y-82204494D01*
X185739502Y-82094180D01*
X185761513Y-82021620D01*
X185893368Y-82153475D01*
X186136589Y-82315990D01*
X186406842Y-82427932D01*
X186693740Y-82485000D01*
X186986260Y-82485000D01*
X187273158Y-82427932D01*
X187418601Y-82367688D01*
X187321063Y-82465226D01*
X187207795Y-82634744D01*
X187129774Y-82823102D01*
X187090000Y-83023061D01*
X187090000Y-83226939D01*
X187129774Y-83426898D01*
X187207689Y-83615000D01*
X186038454Y-83615000D01*
X185990256Y-83582795D01*
X185801898Y-83504774D01*
X185601939Y-83465000D01*
X185398061Y-83465000D01*
X185198102Y-83504774D01*
X185009744Y-83582795D01*
X184840226Y-83696063D01*
X184696063Y-83840226D01*
X184582795Y-84009744D01*
X184504774Y-84198102D01*
X184465000Y-84398061D01*
X184465000Y-84601939D01*
X184504774Y-84801898D01*
X184582795Y-84990256D01*
X184632737Y-85065000D01*
X184588454Y-85065000D01*
X184540256Y-85032795D01*
X184351898Y-84954774D01*
X184151939Y-84915000D01*
X183948061Y-84915000D01*
X183748102Y-84954774D01*
X183559744Y-85032795D01*
X183390226Y-85146063D01*
X183246063Y-85290226D01*
X183132795Y-85459744D01*
X183054774Y-85648102D01*
X183041154Y-85716574D01*
X179885000Y-82560420D01*
X179885000Y-81974521D01*
X179914759Y-81954637D01*
X180114637Y-81754759D01*
X180271680Y-81519727D01*
X180379853Y-81258574D01*
X180435000Y-80981335D01*
X180435000Y-80698665D01*
X180379853Y-80421426D01*
X180271680Y-80160273D01*
X180114637Y-79925241D01*
X179914759Y-79725363D01*
X179679727Y-79568320D01*
X179418574Y-79460147D01*
X179141335Y-79405000D01*
X178858665Y-79405000D01*
X178581426Y-79460147D01*
X178320273Y-79568320D01*
X178085241Y-79725363D01*
X177885363Y-79925241D01*
X177728320Y-80160273D01*
X177620147Y-80421426D01*
X177565000Y-80698665D01*
X177565000Y-80981335D01*
X177620147Y-81258574D01*
X177728320Y-81519727D01*
X177885363Y-81754759D01*
X178085241Y-81954637D01*
X178115001Y-81974522D01*
X178115001Y-82883519D01*
X178110719Y-82926998D01*
X178127805Y-83100488D01*
X178178412Y-83267311D01*
X178260590Y-83421057D01*
X178343468Y-83522044D01*
X178343471Y-83522047D01*
X178371184Y-83555815D01*
X178404952Y-83583528D01*
X196343470Y-101522047D01*
X196371183Y-101555815D01*
X196404951Y-101583528D01*
X196404953Y-101583530D01*
X196467638Y-101634974D01*
X196505941Y-101666409D01*
X196659687Y-101748587D01*
X196826510Y-101799193D01*
X196956523Y-101811998D01*
X196956533Y-101811998D01*
X196999999Y-101816279D01*
X197043465Y-101811998D01*
X200029533Y-101811998D01*
X200073002Y-101816279D01*
X200116471Y-101811998D01*
X200116479Y-101811998D01*
X200138602Y-101809819D01*
X191333422Y-110615000D01*
X183645949Y-110615000D01*
X183738650Y-110391199D01*
X183788920Y-110138477D01*
X183788920Y-109880803D01*
X183738650Y-109628081D01*
X183640043Y-109390022D01*
X183496887Y-109175775D01*
X183314685Y-108993573D01*
X183100438Y-108850417D01*
X182862379Y-108751810D01*
X182609657Y-108701540D01*
X182351983Y-108701540D01*
X182099261Y-108751810D01*
X181861202Y-108850417D01*
X181646955Y-108993573D01*
X181464753Y-109175775D01*
X181321597Y-109390022D01*
X181222990Y-109628081D01*
X181172720Y-109880803D01*
X181172720Y-110138477D01*
X181222990Y-110391199D01*
X181315691Y-110615000D01*
X180684309Y-110615000D01*
X180777010Y-110391199D01*
X180827280Y-110138477D01*
X180827280Y-109880803D01*
X180777010Y-109628081D01*
X180678403Y-109390022D01*
X180535247Y-109175775D01*
X180353045Y-108993573D01*
X180138798Y-108850417D01*
X179900739Y-108751810D01*
X179648017Y-108701540D01*
X179390343Y-108701540D01*
X179137621Y-108751810D01*
X178899562Y-108850417D01*
X178685315Y-108993573D01*
X178503113Y-109175775D01*
X178359957Y-109390022D01*
X178261350Y-109628081D01*
X178249537Y-109687466D01*
X177958479Y-109396407D01*
X178054583Y-109252578D01*
X178153190Y-109014519D01*
X178203460Y-108761797D01*
X178203460Y-108504123D01*
X183796540Y-108504123D01*
X183796540Y-108761797D01*
X183846810Y-109014519D01*
X183945417Y-109252578D01*
X184088573Y-109466825D01*
X184270775Y-109649027D01*
X184485022Y-109792183D01*
X184723081Y-109890790D01*
X184975803Y-109941060D01*
X185233477Y-109941060D01*
X185486199Y-109890790D01*
X185724258Y-109792183D01*
X185938505Y-109649027D01*
X186120707Y-109466825D01*
X186263863Y-109252578D01*
X186362470Y-109014519D01*
X186412740Y-108761797D01*
X186412740Y-108504123D01*
X186362470Y-108251401D01*
X186263863Y-108013342D01*
X186120707Y-107799095D01*
X185938505Y-107616893D01*
X185724258Y-107473737D01*
X185486199Y-107375130D01*
X185233477Y-107324860D01*
X184975803Y-107324860D01*
X184723081Y-107375130D01*
X184485022Y-107473737D01*
X184270775Y-107616893D01*
X184088573Y-107799095D01*
X183945417Y-108013342D01*
X183846810Y-108251401D01*
X183796540Y-108504123D01*
X178203460Y-108504123D01*
X178153190Y-108251401D01*
X178054583Y-108013342D01*
X177911427Y-107799095D01*
X177729225Y-107616893D01*
X177514978Y-107473737D01*
X177276919Y-107375130D01*
X177024197Y-107324860D01*
X176766523Y-107324860D01*
X176513801Y-107375130D01*
X176275742Y-107473737D01*
X176098880Y-107591913D01*
X176098880Y-107159492D01*
X176229947Y-107028425D01*
X176373103Y-106814178D01*
X176471710Y-106576119D01*
X176521980Y-106323397D01*
X176521980Y-106065723D01*
X185478020Y-106065723D01*
X185478020Y-106323397D01*
X185528290Y-106576119D01*
X185626897Y-106814178D01*
X185770053Y-107028425D01*
X185952255Y-107210627D01*
X186166502Y-107353783D01*
X186404561Y-107452390D01*
X186657283Y-107502660D01*
X186914957Y-107502660D01*
X187167679Y-107452390D01*
X187405738Y-107353783D01*
X187619985Y-107210627D01*
X187802187Y-107028425D01*
X187945343Y-106814178D01*
X188043950Y-106576119D01*
X188094220Y-106323397D01*
X188094220Y-106065723D01*
X188043950Y-105813001D01*
X187945343Y-105574942D01*
X187802187Y-105360695D01*
X187619985Y-105178493D01*
X187405738Y-105035337D01*
X187167679Y-104936730D01*
X186914957Y-104886460D01*
X186657283Y-104886460D01*
X186404561Y-104936730D01*
X186166502Y-105035337D01*
X185952255Y-105178493D01*
X185770053Y-105360695D01*
X185626897Y-105574942D01*
X185528290Y-105813001D01*
X185478020Y-106065723D01*
X176521980Y-106065723D01*
X176471710Y-105813001D01*
X176373103Y-105574942D01*
X176229947Y-105360695D01*
X176047745Y-105178493D01*
X175833498Y-105035337D01*
X175595439Y-104936730D01*
X175342717Y-104886460D01*
X175085043Y-104886460D01*
X174832321Y-104936730D01*
X174594262Y-105035337D01*
X174380015Y-105178493D01*
X174197813Y-105360695D01*
X174054657Y-105574942D01*
X173956050Y-105813001D01*
X173905780Y-106065723D01*
X173627000Y-106065723D01*
X173627000Y-103707569D01*
X173696517Y-103875398D01*
X173839673Y-104089645D01*
X174021875Y-104271847D01*
X174236122Y-104415003D01*
X174474181Y-104513610D01*
X174726903Y-104563880D01*
X174984577Y-104563880D01*
X175237299Y-104513610D01*
X175475358Y-104415003D01*
X175689605Y-104271847D01*
X175871807Y-104089645D01*
X176014963Y-103875398D01*
X176113570Y-103637339D01*
X176163840Y-103384617D01*
X176163840Y-103126943D01*
X185836160Y-103126943D01*
X185836160Y-103384617D01*
X185886430Y-103637339D01*
X185985037Y-103875398D01*
X186128193Y-104089645D01*
X186310395Y-104271847D01*
X186524642Y-104415003D01*
X186762701Y-104513610D01*
X187015423Y-104563880D01*
X187273097Y-104563880D01*
X187525819Y-104513610D01*
X187763878Y-104415003D01*
X187978125Y-104271847D01*
X188160327Y-104089645D01*
X188303483Y-103875398D01*
X188402090Y-103637339D01*
X188452360Y-103384617D01*
X188452360Y-103126943D01*
X188402090Y-102874221D01*
X188303483Y-102636162D01*
X188160327Y-102421915D01*
X187978125Y-102239713D01*
X187763878Y-102096557D01*
X187525819Y-101997950D01*
X187273097Y-101947680D01*
X187015423Y-101947680D01*
X186762701Y-101997950D01*
X186524642Y-102096557D01*
X186310395Y-102239713D01*
X186128193Y-102421915D01*
X185985037Y-102636162D01*
X185886430Y-102874221D01*
X185836160Y-103126943D01*
X176163840Y-103126943D01*
X176113570Y-102874221D01*
X176014963Y-102636162D01*
X175871807Y-102421915D01*
X175689605Y-102239713D01*
X175475358Y-102096557D01*
X175237299Y-101997950D01*
X174984577Y-101947680D01*
X174726903Y-101947680D01*
X174474181Y-101997950D01*
X174236122Y-102096557D01*
X174021875Y-102239713D01*
X173839673Y-102421915D01*
X173696517Y-102636162D01*
X173627000Y-102803991D01*
X173627000Y-100052606D01*
X174052606Y-99627000D01*
X174915008Y-99627000D01*
X174891233Y-99650775D01*
X174748077Y-99865022D01*
X174649470Y-100103081D01*
X174599200Y-100355803D01*
X174599200Y-100613477D01*
X174649470Y-100866199D01*
X174748077Y-101104258D01*
X174891233Y-101318505D01*
X175073435Y-101500707D01*
X175287682Y-101643863D01*
X175525741Y-101742470D01*
X175778463Y-101792740D01*
X176036137Y-101792740D01*
X176288859Y-101742470D01*
X176526918Y-101643863D01*
X176741165Y-101500707D01*
X176923367Y-101318505D01*
X177066523Y-101104258D01*
X177165130Y-100866199D01*
X177215400Y-100613477D01*
X177215400Y-100355803D01*
X184784600Y-100355803D01*
X184784600Y-100613477D01*
X184834870Y-100866199D01*
X184933477Y-101104258D01*
X185076633Y-101318505D01*
X185258835Y-101500707D01*
X185473082Y-101643863D01*
X185711141Y-101742470D01*
X185963863Y-101792740D01*
X186221537Y-101792740D01*
X186474259Y-101742470D01*
X186712318Y-101643863D01*
X186926565Y-101500707D01*
X187108767Y-101318505D01*
X187251923Y-101104258D01*
X187350530Y-100866199D01*
X187400800Y-100613477D01*
X187400800Y-100355803D01*
X187350530Y-100103081D01*
X187251923Y-99865022D01*
X187108767Y-99650775D01*
X186926565Y-99468573D01*
X186712318Y-99325417D01*
X186474259Y-99226810D01*
X186221537Y-99176540D01*
X185963863Y-99176540D01*
X185711141Y-99226810D01*
X185473082Y-99325417D01*
X185258835Y-99468573D01*
X185076633Y-99650775D01*
X184933477Y-99865022D01*
X184834870Y-100103081D01*
X184784600Y-100355803D01*
X177215400Y-100355803D01*
X177165130Y-100103081D01*
X177066523Y-99865022D01*
X176923367Y-99650775D01*
X176899592Y-99627000D01*
X177425119Y-99627000D01*
X177505102Y-99680443D01*
X177743161Y-99779050D01*
X177995883Y-99829320D01*
X178253557Y-99829320D01*
X178506279Y-99779050D01*
X178744338Y-99680443D01*
X178824321Y-99627000D01*
X183000000Y-99627000D01*
X183024776Y-99624560D01*
X183048601Y-99617333D01*
X183070557Y-99605597D01*
X183089803Y-99589803D01*
X183100501Y-99576767D01*
X183255662Y-99680443D01*
X183493721Y-99779050D01*
X183746443Y-99829320D01*
X184004117Y-99829320D01*
X184256839Y-99779050D01*
X184494898Y-99680443D01*
X184709145Y-99537287D01*
X184891347Y-99355085D01*
X185034503Y-99140838D01*
X185133110Y-98902779D01*
X185183380Y-98650057D01*
X185183380Y-98392383D01*
X185133110Y-98139661D01*
X185034503Y-97901602D01*
X184891347Y-97687355D01*
X184709145Y-97505153D01*
X184494898Y-97361997D01*
X184256839Y-97263390D01*
X184004117Y-97213120D01*
X183746443Y-97213120D01*
X183493721Y-97263390D01*
X183255662Y-97361997D01*
X183127000Y-97447967D01*
X183127000Y-96500000D01*
X183126223Y-96485975D01*
X183121062Y-96461620D01*
X183111248Y-96438739D01*
X183097159Y-96418213D01*
X183079336Y-96400830D01*
X180579336Y-94400830D01*
X180548601Y-94382667D01*
X180524776Y-94375440D01*
X180500000Y-94373000D01*
X174500000Y-94373000D01*
X174483564Y-94374068D01*
X174459312Y-94379694D01*
X174436623Y-94389944D01*
X174416370Y-94404423D01*
X170416370Y-97904423D01*
X170394403Y-97929443D01*
X170382667Y-97951399D01*
X170375440Y-97975224D01*
X170373000Y-98000000D01*
X170160000Y-98000000D01*
X170160000Y-92858665D01*
X183565000Y-92858665D01*
X183565000Y-93141335D01*
X183620147Y-93418574D01*
X183728320Y-93679727D01*
X183885363Y-93914759D01*
X184085241Y-94114637D01*
X184320273Y-94271680D01*
X184581426Y-94379853D01*
X184858665Y-94435000D01*
X185141335Y-94435000D01*
X185418574Y-94379853D01*
X185679727Y-94271680D01*
X185914759Y-94114637D01*
X186114637Y-93914759D01*
X186271680Y-93679727D01*
X186379853Y-93418574D01*
X186435000Y-93141335D01*
X186435000Y-92858665D01*
X186379853Y-92581426D01*
X186271680Y-92320273D01*
X186114637Y-92085241D01*
X185914759Y-91885363D01*
X185679727Y-91728320D01*
X185418574Y-91620147D01*
X185141335Y-91565000D01*
X184858665Y-91565000D01*
X184581426Y-91620147D01*
X184320273Y-91728320D01*
X184085241Y-91885363D01*
X183885363Y-92085241D01*
X183728320Y-92320273D01*
X183620147Y-92581426D01*
X183565000Y-92858665D01*
X170160000Y-92858665D01*
X170160000Y-90858665D01*
X177565000Y-90858665D01*
X177565000Y-91141335D01*
X177620147Y-91418574D01*
X177728320Y-91679727D01*
X177885363Y-91914759D01*
X178085241Y-92114637D01*
X178320273Y-92271680D01*
X178581426Y-92379853D01*
X178858665Y-92435000D01*
X179141335Y-92435000D01*
X179418574Y-92379853D01*
X179679727Y-92271680D01*
X179914759Y-92114637D01*
X180114637Y-91914759D01*
X180271680Y-91679727D01*
X180379853Y-91418574D01*
X180435000Y-91141335D01*
X180435000Y-90858665D01*
X180379853Y-90581426D01*
X180271680Y-90320273D01*
X180114637Y-90085241D01*
X179914759Y-89885363D01*
X179679727Y-89728320D01*
X179418574Y-89620147D01*
X179141335Y-89565000D01*
X178858665Y-89565000D01*
X178581426Y-89620147D01*
X178320273Y-89728320D01*
X178085241Y-89885363D01*
X177885363Y-90085241D01*
X177728320Y-90320273D01*
X177620147Y-90581426D01*
X177565000Y-90858665D01*
X170160000Y-90858665D01*
X170160000Y-81804495D01*
X171015000Y-81804495D01*
X171015000Y-82195505D01*
X171091282Y-82579003D01*
X171240915Y-82940250D01*
X171458149Y-83265364D01*
X171734636Y-83541851D01*
X172059750Y-83759085D01*
X172420997Y-83908718D01*
X172804495Y-83985000D01*
X173195505Y-83985000D01*
X173579003Y-83908718D01*
X173940250Y-83759085D01*
X174265364Y-83541851D01*
X174541851Y-83265364D01*
X174759085Y-82940250D01*
X174908718Y-82579003D01*
X174985000Y-82195505D01*
X174985000Y-81804495D01*
X174908718Y-81420997D01*
X174759085Y-81059750D01*
X174541851Y-80734636D01*
X174265364Y-80458149D01*
X173940250Y-80240915D01*
X173579003Y-80091282D01*
X173195505Y-80015000D01*
X172804495Y-80015000D01*
X172420997Y-80091282D01*
X172059750Y-80240915D01*
X171734636Y-80458149D01*
X171458149Y-80734636D01*
X171240915Y-81059750D01*
X171091282Y-81420997D01*
X171015000Y-81804495D01*
X170160000Y-81804495D01*
X170160000Y-79160000D01*
X225340000Y-79160000D01*
X225340001Y-129840000D01*
G37*
X225340001Y-129840000D02*
X179627000Y-129840000D01*
X179627000Y-127853740D01*
X187075000Y-127853740D01*
X187075000Y-128146260D01*
X187132068Y-128433158D01*
X187244010Y-128703411D01*
X187406525Y-128946632D01*
X187613368Y-129153475D01*
X187856589Y-129315990D01*
X188126842Y-129427932D01*
X188413740Y-129485000D01*
X188706260Y-129485000D01*
X188993158Y-129427932D01*
X189263411Y-129315990D01*
X189506632Y-129153475D01*
X189713475Y-128946632D01*
X189830000Y-128772240D01*
X189946525Y-128946632D01*
X190153368Y-129153475D01*
X190396589Y-129315990D01*
X190666842Y-129427932D01*
X190953740Y-129485000D01*
X191246260Y-129485000D01*
X191533158Y-129427932D01*
X191803411Y-129315990D01*
X192046632Y-129153475D01*
X192253475Y-128946632D01*
X192370000Y-128772240D01*
X192486525Y-128946632D01*
X192693368Y-129153475D01*
X192936589Y-129315990D01*
X193206842Y-129427932D01*
X193493740Y-129485000D01*
X193786260Y-129485000D01*
X194073158Y-129427932D01*
X194343411Y-129315990D01*
X194586632Y-129153475D01*
X194793475Y-128946632D01*
X194910000Y-128772240D01*
X195026525Y-128946632D01*
X195233368Y-129153475D01*
X195476589Y-129315990D01*
X195746842Y-129427932D01*
X196033740Y-129485000D01*
X196326260Y-129485000D01*
X196613158Y-129427932D01*
X196883411Y-129315990D01*
X197126632Y-129153475D01*
X197333475Y-128946632D01*
X197450000Y-128772240D01*
X197566525Y-128946632D01*
X197773368Y-129153475D01*
X198016589Y-129315990D01*
X198286842Y-129427932D01*
X198573740Y-129485000D01*
X198866260Y-129485000D01*
X199153158Y-129427932D01*
X199423411Y-129315990D01*
X199666632Y-129153475D01*
X199873475Y-128946632D01*
X199990000Y-128772240D01*
X200106525Y-128946632D01*
X200313368Y-129153475D01*
X200556589Y-129315990D01*
X200826842Y-129427932D01*
X201113740Y-129485000D01*
X201406260Y-129485000D01*
X201693158Y-129427932D01*
X201963411Y-129315990D01*
X202206632Y-129153475D01*
X202413475Y-128946632D01*
X202530000Y-128772240D01*
X202646525Y-128946632D01*
X202853368Y-129153475D01*
X203096589Y-129315990D01*
X203366842Y-129427932D01*
X203653740Y-129485000D01*
X203946260Y-129485000D01*
X204233158Y-129427932D01*
X204503411Y-129315990D01*
X204746632Y-129153475D01*
X204953475Y-128946632D01*
X205070000Y-128772240D01*
X205186525Y-128946632D01*
X205393368Y-129153475D01*
X205636589Y-129315990D01*
X205906842Y-129427932D01*
X206193740Y-129485000D01*
X206486260Y-129485000D01*
X206773158Y-129427932D01*
X207043411Y-129315990D01*
X207286632Y-129153475D01*
X207493475Y-128946632D01*
X207610000Y-128772240D01*
X207726525Y-128946632D01*
X207933368Y-129153475D01*
X208176589Y-129315990D01*
X208446842Y-129427932D01*
X208733740Y-129485000D01*
X209026260Y-129485000D01*
X209313158Y-129427932D01*
X209583411Y-129315990D01*
X209826632Y-129153475D01*
X210033475Y-128946632D01*
X210150000Y-128772240D01*
X210266525Y-128946632D01*
X210473368Y-129153475D01*
X210716589Y-129315990D01*
X210986842Y-129427932D01*
X211273740Y-129485000D01*
X211566260Y-129485000D01*
X211853158Y-129427932D01*
X212123411Y-129315990D01*
X212366632Y-129153475D01*
X212573475Y-128946632D01*
X212690000Y-128772240D01*
X212806525Y-128946632D01*
X213013368Y-129153475D01*
X213256589Y-129315990D01*
X213526842Y-129427932D01*
X213813740Y-129485000D01*
X214106260Y-129485000D01*
X214393158Y-129427932D01*
X214663411Y-129315990D01*
X214906632Y-129153475D01*
X215038487Y-129021620D01*
X215060498Y-129094180D01*
X215119463Y-129204494D01*
X215198815Y-129301185D01*
X215295506Y-129380537D01*
X215405820Y-129439502D01*
X215525518Y-129475812D01*
X215650000Y-129488072D01*
X217350000Y-129488072D01*
X217474482Y-129475812D01*
X217594180Y-129439502D01*
X217704494Y-129380537D01*
X217801185Y-129301185D01*
X217880537Y-129204494D01*
X217939502Y-129094180D01*
X217975812Y-128974482D01*
X217988072Y-128850000D01*
X217988072Y-127304495D01*
X221015000Y-127304495D01*
X221015000Y-127695505D01*
X221091282Y-128079003D01*
X221240915Y-128440250D01*
X221458149Y-128765364D01*
X221734636Y-129041851D01*
X222059750Y-129259085D01*
X222420997Y-129408718D01*
X222804495Y-129485000D01*
X223195505Y-129485000D01*
X223579003Y-129408718D01*
X223940250Y-129259085D01*
X224265364Y-129041851D01*
X224541851Y-128765364D01*
X224759085Y-128440250D01*
X224908718Y-128079003D01*
X224985000Y-127695505D01*
X224985000Y-127304495D01*
X224908718Y-126920997D01*
X224759085Y-126559750D01*
X224541851Y-126234636D01*
X224265364Y-125958149D01*
X223940250Y-125740915D01*
X223579003Y-125591282D01*
X223195505Y-125515000D01*
X222804495Y-125515000D01*
X222420997Y-125591282D01*
X222059750Y-125740915D01*
X221734636Y-125958149D01*
X221458149Y-126234636D01*
X221240915Y-126559750D01*
X221091282Y-126920997D01*
X221015000Y-127304495D01*
X217988072Y-127304495D01*
X217988072Y-127150000D01*
X217975812Y-127025518D01*
X217939502Y-126905820D01*
X217880537Y-126795506D01*
X217801185Y-126698815D01*
X217704494Y-126619463D01*
X217594180Y-126560498D01*
X217474482Y-126524188D01*
X217350000Y-126511928D01*
X215650000Y-126511928D01*
X215525518Y-126524188D01*
X215405820Y-126560498D01*
X215295506Y-126619463D01*
X215198815Y-126698815D01*
X215119463Y-126795506D01*
X215060498Y-126905820D01*
X215038487Y-126978380D01*
X214906632Y-126846525D01*
X214663411Y-126684010D01*
X214393158Y-126572068D01*
X214106260Y-126515000D01*
X213813740Y-126515000D01*
X213526842Y-126572068D01*
X213256589Y-126684010D01*
X213013368Y-126846525D01*
X212806525Y-127053368D01*
X212690000Y-127227760D01*
X212573475Y-127053368D01*
X212366632Y-126846525D01*
X212123411Y-126684010D01*
X211853158Y-126572068D01*
X211566260Y-126515000D01*
X211273740Y-126515000D01*
X210986842Y-126572068D01*
X210716589Y-126684010D01*
X210473368Y-126846525D01*
X210266525Y-127053368D01*
X210150000Y-127227760D01*
X210033475Y-127053368D01*
X209826632Y-126846525D01*
X209583411Y-126684010D01*
X209313158Y-126572068D01*
X209026260Y-126515000D01*
X208733740Y-126515000D01*
X208446842Y-126572068D01*
X208176589Y-126684010D01*
X207933368Y-126846525D01*
X207726525Y-127053368D01*
X207610000Y-127227760D01*
X207493475Y-127053368D01*
X207286632Y-126846525D01*
X207043411Y-126684010D01*
X206773158Y-126572068D01*
X206486260Y-126515000D01*
X206193740Y-126515000D01*
X205906842Y-126572068D01*
X205636589Y-126684010D01*
X205393368Y-126846525D01*
X205186525Y-127053368D01*
X205070000Y-127227760D01*
X204953475Y-127053368D01*
X204746632Y-126846525D01*
X204503411Y-126684010D01*
X204233158Y-126572068D01*
X203946260Y-126515000D01*
X203653740Y-126515000D01*
X203366842Y-126572068D01*
X203096589Y-126684010D01*
X202853368Y-126846525D01*
X202646525Y-127053368D01*
X202530000Y-127227760D01*
X202413475Y-127053368D01*
X202206632Y-126846525D01*
X201963411Y-126684010D01*
X201693158Y-126572068D01*
X201406260Y-126515000D01*
X201113740Y-126515000D01*
X200826842Y-126572068D01*
X200556589Y-126684010D01*
X200313368Y-126846525D01*
X200106525Y-127053368D01*
X199990000Y-127227760D01*
X199873475Y-127053368D01*
X199666632Y-126846525D01*
X199423411Y-126684010D01*
X199153158Y-126572068D01*
X198866260Y-126515000D01*
X198573740Y-126515000D01*
X198286842Y-126572068D01*
X198016589Y-126684010D01*
X197773368Y-126846525D01*
X197566525Y-127053368D01*
X197450000Y-127227760D01*
X197333475Y-127053368D01*
X197126632Y-126846525D01*
X196883411Y-126684010D01*
X196613158Y-126572068D01*
X196326260Y-126515000D01*
X196033740Y-126515000D01*
X195746842Y-126572068D01*
X195476589Y-126684010D01*
X195233368Y-126846525D01*
X195026525Y-127053368D01*
X194910000Y-127227760D01*
X194793475Y-127053368D01*
X194586632Y-126846525D01*
X194343411Y-126684010D01*
X194073158Y-126572068D01*
X193786260Y-126515000D01*
X193493740Y-126515000D01*
X193206842Y-126572068D01*
X192936589Y-126684010D01*
X192693368Y-126846525D01*
X192486525Y-127053368D01*
X192370000Y-127227760D01*
X192253475Y-127053368D01*
X192046632Y-126846525D01*
X191803411Y-126684010D01*
X191533158Y-126572068D01*
X191246260Y-126515000D01*
X190953740Y-126515000D01*
X190666842Y-126572068D01*
X190396589Y-126684010D01*
X190153368Y-126846525D01*
X189946525Y-127053368D01*
X189830000Y-127227760D01*
X189713475Y-127053368D01*
X189506632Y-126846525D01*
X189263411Y-126684010D01*
X188993158Y-126572068D01*
X188706260Y-126515000D01*
X188413740Y-126515000D01*
X188126842Y-126572068D01*
X187856589Y-126684010D01*
X187613368Y-126846525D01*
X187406525Y-127053368D01*
X187244010Y-127296589D01*
X187132068Y-127566842D01*
X187075000Y-127853740D01*
X179627000Y-127853740D01*
X179627000Y-126127000D01*
X221500000Y-126127000D01*
X221524776Y-126124560D01*
X221548601Y-126117333D01*
X221570557Y-126105597D01*
X221589803Y-126089803D01*
X221605597Y-126070557D01*
X221617333Y-126048601D01*
X221624560Y-126024776D01*
X221627000Y-126000000D01*
X221627000Y-122500000D01*
X221624560Y-122475224D01*
X221617333Y-122451399D01*
X221605597Y-122429443D01*
X221589803Y-122410197D01*
X221570557Y-122394403D01*
X221548601Y-122382667D01*
X221524776Y-122375440D01*
X221500000Y-122373000D01*
X198595119Y-122373000D01*
X198839727Y-122271680D01*
X199074759Y-122114637D01*
X199274637Y-121914759D01*
X199431680Y-121679727D01*
X199539853Y-121418574D01*
X199595000Y-121141335D01*
X199595000Y-120858665D01*
X199539853Y-120581426D01*
X199431680Y-120320273D01*
X199274637Y-120085241D01*
X199074759Y-119885363D01*
X198839727Y-119728320D01*
X198578574Y-119620147D01*
X198301335Y-119565000D01*
X198018665Y-119565000D01*
X197741426Y-119620147D01*
X197480273Y-119728320D01*
X197245241Y-119885363D01*
X197045363Y-120085241D01*
X196888320Y-120320273D01*
X196780147Y-120581426D01*
X196725000Y-120858665D01*
X196725000Y-121141335D01*
X196780147Y-121418574D01*
X196888320Y-121679727D01*
X197045363Y-121914759D01*
X197245241Y-122114637D01*
X197480273Y-122271680D01*
X197724881Y-122373000D01*
X188435119Y-122373000D01*
X188679727Y-122271680D01*
X188914759Y-122114637D01*
X189114637Y-121914759D01*
X189271680Y-121679727D01*
X189379853Y-121418574D01*
X189435000Y-121141335D01*
X189435000Y-120898061D01*
X192965000Y-120898061D01*
X192965000Y-121101939D01*
X193004774Y-121301898D01*
X193082795Y-121490256D01*
X193196063Y-121659774D01*
X193340226Y-121803937D01*
X193509744Y-121917205D01*
X193698102Y-121995226D01*
X193898061Y-122035000D01*
X194101939Y-122035000D01*
X194301898Y-121995226D01*
X194490256Y-121917205D01*
X194659774Y-121803937D01*
X194803937Y-121659774D01*
X194917205Y-121490256D01*
X194995226Y-121301898D01*
X195006535Y-121245043D01*
X197366579Y-118885000D01*
X199456531Y-118885000D01*
X199500000Y-118889281D01*
X199543469Y-118885000D01*
X199543477Y-118885000D01*
X199673490Y-118872195D01*
X199840313Y-118821589D01*
X199994059Y-118739411D01*
X200128817Y-118628817D01*
X200156534Y-118595044D01*
X206745044Y-112006535D01*
X206801898Y-111995226D01*
X206990256Y-111917205D01*
X207159774Y-111803937D01*
X207303937Y-111659774D01*
X207417205Y-111490256D01*
X207495226Y-111301898D01*
X207535000Y-111101939D01*
X207535000Y-110898061D01*
X207495226Y-110698102D01*
X207417205Y-110509744D01*
X207303937Y-110340226D01*
X207159774Y-110196063D01*
X206990256Y-110082795D01*
X206801898Y-110004774D01*
X206601939Y-109965000D01*
X206398061Y-109965000D01*
X206198102Y-110004774D01*
X206009744Y-110082795D01*
X205840226Y-110196063D01*
X205696063Y-110340226D01*
X205582795Y-110509744D01*
X205504774Y-110698102D01*
X205493465Y-110754956D01*
X199133422Y-117115000D01*
X197074216Y-117115000D01*
X197074759Y-117114637D01*
X197274637Y-116914759D01*
X197431680Y-116679727D01*
X197539853Y-116418574D01*
X197595000Y-116141335D01*
X197595000Y-115858665D01*
X197539853Y-115581426D01*
X197431680Y-115320273D01*
X197274637Y-115085241D01*
X197074759Y-114885363D01*
X196839727Y-114728320D01*
X196578574Y-114620147D01*
X196301335Y-114565000D01*
X196018665Y-114565000D01*
X195741426Y-114620147D01*
X195480273Y-114728320D01*
X195245241Y-114885363D01*
X195045363Y-115085241D01*
X194888320Y-115320273D01*
X194780147Y-115581426D01*
X194725000Y-115858665D01*
X194725000Y-116141335D01*
X194780147Y-116418574D01*
X194888320Y-116679727D01*
X195045363Y-116914759D01*
X195245241Y-117114637D01*
X195480273Y-117271680D01*
X195741426Y-117379853D01*
X196018665Y-117435000D01*
X196301335Y-117435000D01*
X196316422Y-117431999D01*
X193754957Y-119993465D01*
X193698102Y-120004774D01*
X193509744Y-120082795D01*
X193340226Y-120196063D01*
X193196063Y-120340226D01*
X193082795Y-120509744D01*
X193004774Y-120698102D01*
X192965000Y-120898061D01*
X189435000Y-120898061D01*
X189435000Y-120858665D01*
X189379853Y-120581426D01*
X189271680Y-120320273D01*
X189114637Y-120085241D01*
X188914759Y-119885363D01*
X188679727Y-119728320D01*
X188418574Y-119620147D01*
X188141335Y-119565000D01*
X187858665Y-119565000D01*
X187581426Y-119620147D01*
X187320273Y-119728320D01*
X187085241Y-119885363D01*
X186885363Y-120085241D01*
X186728320Y-120320273D01*
X186620147Y-120581426D01*
X186565000Y-120858665D01*
X186565000Y-121141335D01*
X186620147Y-121418574D01*
X186728320Y-121679727D01*
X186885363Y-121914759D01*
X187085241Y-122114637D01*
X187320273Y-122271680D01*
X187564881Y-122373000D01*
X172000000Y-122373000D01*
X171975224Y-122375440D01*
X171951399Y-122382667D01*
X171929443Y-122394403D01*
X171910197Y-122410197D01*
X171894403Y-122429443D01*
X171882667Y-122451399D01*
X171875440Y-122475224D01*
X171873000Y-122500000D01*
X171873000Y-129840000D01*
X170160000Y-129840000D01*
X170160000Y-98000000D01*
X170373000Y-98000000D01*
X170373000Y-114000000D01*
X170375440Y-114024776D01*
X170382667Y-114048601D01*
X170394403Y-114070557D01*
X170410197Y-114089803D01*
X172410197Y-116089803D01*
X172429443Y-116105597D01*
X172451399Y-116117333D01*
X172475224Y-116124560D01*
X172500000Y-116127000D01*
X176000000Y-116127000D01*
X176024776Y-116124560D01*
X176048601Y-116117333D01*
X176070557Y-116105597D01*
X176089803Y-116089803D01*
X176105597Y-116070557D01*
X176117333Y-116048601D01*
X176124560Y-116024776D01*
X176127000Y-116000000D01*
X176127000Y-115858665D01*
X184565000Y-115858665D01*
X184565000Y-116141335D01*
X184620147Y-116418574D01*
X184728320Y-116679727D01*
X184885363Y-116914759D01*
X185085241Y-117114637D01*
X185320273Y-117271680D01*
X185581426Y-117379853D01*
X185858665Y-117435000D01*
X186141335Y-117435000D01*
X186418574Y-117379853D01*
X186679727Y-117271680D01*
X186914759Y-117114637D01*
X187114637Y-116914759D01*
X187271680Y-116679727D01*
X187379853Y-116418574D01*
X187435000Y-116141335D01*
X187435000Y-115858665D01*
X187379853Y-115581426D01*
X187271680Y-115320273D01*
X187114637Y-115085241D01*
X186914759Y-114885363D01*
X186679727Y-114728320D01*
X186418574Y-114620147D01*
X186141335Y-114565000D01*
X185858665Y-114565000D01*
X185581426Y-114620147D01*
X185320273Y-114728320D01*
X185085241Y-114885363D01*
X184885363Y-115085241D01*
X184728320Y-115320273D01*
X184620147Y-115581426D01*
X184565000Y-115858665D01*
X176127000Y-115858665D01*
X176127000Y-112500000D01*
X176124560Y-112475224D01*
X176117333Y-112451399D01*
X176105597Y-112429443D01*
X176089803Y-112410197D01*
X173627000Y-109947394D01*
X173627000Y-106065723D01*
X173905780Y-106065723D01*
X173905780Y-106323397D01*
X173956050Y-106576119D01*
X174054657Y-106814178D01*
X174197813Y-107028425D01*
X174328881Y-107159493D01*
X174328880Y-109170411D01*
X174324599Y-109213880D01*
X174328880Y-109257349D01*
X174328880Y-109257356D01*
X174341685Y-109387369D01*
X174392291Y-109554192D01*
X174474469Y-109707938D01*
X174585063Y-109842697D01*
X174618836Y-109870414D01*
X177718470Y-112970049D01*
X177746183Y-113003817D01*
X177779951Y-113031530D01*
X177779953Y-113031532D01*
X177880940Y-113114410D01*
X177880941Y-113114411D01*
X178034687Y-113196589D01*
X178201510Y-113247195D01*
X178331523Y-113260000D01*
X178331531Y-113260000D01*
X178375000Y-113264281D01*
X178418469Y-113260000D01*
X191265000Y-113260000D01*
X191265000Y-113351939D01*
X191304774Y-113551898D01*
X191382795Y-113740256D01*
X191496063Y-113909774D01*
X191640226Y-114053937D01*
X191809744Y-114167205D01*
X191998102Y-114245226D01*
X192198061Y-114285000D01*
X192401939Y-114285000D01*
X192601898Y-114245226D01*
X192790256Y-114167205D01*
X192846230Y-114129804D01*
X192923490Y-114122195D01*
X193090313Y-114071589D01*
X193244059Y-113989411D01*
X193378817Y-113878817D01*
X193406534Y-113845044D01*
X204615001Y-102636578D01*
X204615000Y-106956531D01*
X204610719Y-107000000D01*
X204615000Y-107043469D01*
X204615000Y-107043476D01*
X204627805Y-107173489D01*
X204678411Y-107340312D01*
X204760589Y-107494058D01*
X204871183Y-107628817D01*
X204904956Y-107656534D01*
X206904953Y-109656532D01*
X206904959Y-109656537D01*
X215615001Y-118366580D01*
X215615000Y-118961545D01*
X215582795Y-119009744D01*
X215504774Y-119198102D01*
X215465000Y-119398061D01*
X215465000Y-119601939D01*
X215504774Y-119801898D01*
X215582795Y-119990256D01*
X215696063Y-120159774D01*
X215840226Y-120303937D01*
X216009744Y-120417205D01*
X216198102Y-120495226D01*
X216398061Y-120535000D01*
X216601939Y-120535000D01*
X216801898Y-120495226D01*
X216990256Y-120417205D01*
X217159774Y-120303937D01*
X217303937Y-120159774D01*
X217417205Y-119990256D01*
X217495226Y-119801898D01*
X217535000Y-119601939D01*
X217535000Y-119398061D01*
X217495226Y-119198102D01*
X217417205Y-119009744D01*
X217385000Y-118961546D01*
X217385000Y-118043466D01*
X217389281Y-117999999D01*
X217385000Y-117956533D01*
X217385000Y-117956523D01*
X217372195Y-117826510D01*
X217321589Y-117659687D01*
X217239411Y-117505941D01*
X217181191Y-117435000D01*
X217156532Y-117404953D01*
X217156530Y-117404951D01*
X217128817Y-117371183D01*
X217095049Y-117343470D01*
X209674292Y-109922714D01*
X209766523Y-109941060D01*
X210024197Y-109941060D01*
X210276919Y-109890790D01*
X210301029Y-109880803D01*
X211211080Y-109880803D01*
X211211080Y-110138477D01*
X211261350Y-110391199D01*
X211359957Y-110629258D01*
X211503113Y-110843505D01*
X211685315Y-111025707D01*
X211899562Y-111168863D01*
X212137621Y-111267470D01*
X212390343Y-111317740D01*
X212648017Y-111317740D01*
X212900739Y-111267470D01*
X213138798Y-111168863D01*
X213353045Y-111025707D01*
X213535247Y-110843505D01*
X213678403Y-110629258D01*
X213777010Y-110391199D01*
X213827280Y-110138477D01*
X213827280Y-109880803D01*
X214172720Y-109880803D01*
X214172720Y-110138477D01*
X214222990Y-110391199D01*
X214321597Y-110629258D01*
X214464753Y-110843505D01*
X214646955Y-111025707D01*
X214861202Y-111168863D01*
X215099261Y-111267470D01*
X215351983Y-111317740D01*
X215609657Y-111317740D01*
X215862379Y-111267470D01*
X216100438Y-111168863D01*
X216314685Y-111025707D01*
X216496887Y-110843505D01*
X216640043Y-110629258D01*
X216738650Y-110391199D01*
X216788920Y-110138477D01*
X216788920Y-109880803D01*
X216738650Y-109628081D01*
X216640043Y-109390022D01*
X216496887Y-109175775D01*
X216314685Y-108993573D01*
X216100438Y-108850417D01*
X215862379Y-108751810D01*
X215609657Y-108701540D01*
X215351983Y-108701540D01*
X215099261Y-108751810D01*
X214861202Y-108850417D01*
X214646955Y-108993573D01*
X214464753Y-109175775D01*
X214321597Y-109390022D01*
X214222990Y-109628081D01*
X214172720Y-109880803D01*
X213827280Y-109880803D01*
X213777010Y-109628081D01*
X213678403Y-109390022D01*
X213535247Y-109175775D01*
X213353045Y-108993573D01*
X213138798Y-108850417D01*
X212900739Y-108751810D01*
X212648017Y-108701540D01*
X212390343Y-108701540D01*
X212137621Y-108751810D01*
X211899562Y-108850417D01*
X211685315Y-108993573D01*
X211503113Y-109175775D01*
X211359957Y-109390022D01*
X211261350Y-109628081D01*
X211211080Y-109880803D01*
X210301029Y-109880803D01*
X210514978Y-109792183D01*
X210729225Y-109649027D01*
X210911427Y-109466825D01*
X211054583Y-109252578D01*
X211153190Y-109014519D01*
X211203460Y-108761797D01*
X211203460Y-108504123D01*
X216796540Y-108504123D01*
X216796540Y-108761797D01*
X216846810Y-109014519D01*
X216945417Y-109252578D01*
X217088573Y-109466825D01*
X217270775Y-109649027D01*
X217485022Y-109792183D01*
X217723081Y-109890790D01*
X217975803Y-109941060D01*
X218233477Y-109941060D01*
X218486199Y-109890790D01*
X218724258Y-109792183D01*
X218938505Y-109649027D01*
X219120707Y-109466825D01*
X219263863Y-109252578D01*
X219362470Y-109014519D01*
X219412740Y-108761797D01*
X219412740Y-108504123D01*
X219362470Y-108251401D01*
X219263863Y-108013342D01*
X219120707Y-107799095D01*
X218938505Y-107616893D01*
X218724258Y-107473737D01*
X218486199Y-107375130D01*
X218233477Y-107324860D01*
X217975803Y-107324860D01*
X217723081Y-107375130D01*
X217485022Y-107473737D01*
X217270775Y-107616893D01*
X217088573Y-107799095D01*
X216945417Y-108013342D01*
X216846810Y-108251401D01*
X216796540Y-108504123D01*
X211203460Y-108504123D01*
X211153190Y-108251401D01*
X211054583Y-108013342D01*
X210911427Y-107799095D01*
X210729225Y-107616893D01*
X210514978Y-107473737D01*
X210276919Y-107375130D01*
X210024197Y-107324860D01*
X209766523Y-107324860D01*
X209513801Y-107375130D01*
X209275742Y-107473737D01*
X209061495Y-107616893D01*
X208879293Y-107799095D01*
X208736137Y-108013342D01*
X208637530Y-108251401D01*
X208587260Y-108504123D01*
X208587260Y-108761797D01*
X208605606Y-108854028D01*
X208156537Y-108404959D01*
X208156532Y-108404953D01*
X206385000Y-106633422D01*
X206385000Y-106065723D01*
X206905780Y-106065723D01*
X206905780Y-106323397D01*
X206956050Y-106576119D01*
X207054657Y-106814178D01*
X207197813Y-107028425D01*
X207380015Y-107210627D01*
X207594262Y-107353783D01*
X207832321Y-107452390D01*
X208085043Y-107502660D01*
X208342717Y-107502660D01*
X208595439Y-107452390D01*
X208833498Y-107353783D01*
X209047745Y-107210627D01*
X209229947Y-107028425D01*
X209373103Y-106814178D01*
X209471710Y-106576119D01*
X209521980Y-106323397D01*
X209521980Y-106065723D01*
X218478020Y-106065723D01*
X218478020Y-106323397D01*
X218528290Y-106576119D01*
X218626897Y-106814178D01*
X218770053Y-107028425D01*
X218952255Y-107210627D01*
X219166502Y-107353783D01*
X219404561Y-107452390D01*
X219657283Y-107502660D01*
X219914957Y-107502660D01*
X220167679Y-107452390D01*
X220405738Y-107353783D01*
X220619985Y-107210627D01*
X220802187Y-107028425D01*
X220945343Y-106814178D01*
X221043950Y-106576119D01*
X221094220Y-106323397D01*
X221094220Y-106065723D01*
X221043950Y-105813001D01*
X220945343Y-105574942D01*
X220802187Y-105360695D01*
X220619985Y-105178493D01*
X220405738Y-105035337D01*
X220167679Y-104936730D01*
X219914957Y-104886460D01*
X219657283Y-104886460D01*
X219404561Y-104936730D01*
X219166502Y-105035337D01*
X218952255Y-105178493D01*
X218770053Y-105360695D01*
X218626897Y-105574942D01*
X218528290Y-105813001D01*
X218478020Y-106065723D01*
X209521980Y-106065723D01*
X209471710Y-105813001D01*
X209373103Y-105574942D01*
X209229947Y-105360695D01*
X209047745Y-105178493D01*
X208833498Y-105035337D01*
X208595439Y-104936730D01*
X208342717Y-104886460D01*
X208085043Y-104886460D01*
X207832321Y-104936730D01*
X207594262Y-105035337D01*
X207380015Y-105178493D01*
X207197813Y-105360695D01*
X207054657Y-105574942D01*
X206956050Y-105813001D01*
X206905780Y-106065723D01*
X206385000Y-106065723D01*
X206385000Y-103126943D01*
X206547640Y-103126943D01*
X206547640Y-103384617D01*
X206597910Y-103637339D01*
X206696517Y-103875398D01*
X206839673Y-104089645D01*
X207021875Y-104271847D01*
X207236122Y-104415003D01*
X207474181Y-104513610D01*
X207726903Y-104563880D01*
X207984577Y-104563880D01*
X208237299Y-104513610D01*
X208475358Y-104415003D01*
X208689605Y-104271847D01*
X208871807Y-104089645D01*
X209014963Y-103875398D01*
X209113570Y-103637339D01*
X209163840Y-103384617D01*
X209163840Y-103126943D01*
X209113570Y-102874221D01*
X209014963Y-102636162D01*
X208871807Y-102421915D01*
X208689605Y-102239713D01*
X208475358Y-102096557D01*
X208237299Y-101997950D01*
X207984577Y-101947680D01*
X207726903Y-101947680D01*
X207474181Y-101997950D01*
X207236122Y-102096557D01*
X207021875Y-102239713D01*
X206839673Y-102421915D01*
X206696517Y-102636162D01*
X206597910Y-102874221D01*
X206547640Y-103126943D01*
X206385000Y-103126943D01*
X206385000Y-102366578D01*
X207381939Y-101369640D01*
X207727762Y-101369640D01*
X207756966Y-101424276D01*
X207851939Y-101540001D01*
X207967664Y-101634974D01*
X208099694Y-101705546D01*
X208242955Y-101749002D01*
X208391940Y-101763676D01*
X208540925Y-101749002D01*
X208547917Y-101746881D01*
X208778463Y-101792740D01*
X209036137Y-101792740D01*
X209288859Y-101742470D01*
X209526918Y-101643863D01*
X209741165Y-101500707D01*
X209923367Y-101318505D01*
X210066523Y-101104258D01*
X210165130Y-100866199D01*
X210215400Y-100613477D01*
X210215400Y-100355803D01*
X210165130Y-100103081D01*
X210066523Y-99865022D01*
X209923367Y-99650775D01*
X209741165Y-99468573D01*
X209526918Y-99325417D01*
X209288859Y-99226810D01*
X209036137Y-99176540D01*
X208778463Y-99176540D01*
X208525741Y-99226810D01*
X208287682Y-99325417D01*
X208073435Y-99468573D01*
X207942368Y-99599640D01*
X207651939Y-99599640D01*
X207755049Y-99496530D01*
X207788817Y-99468817D01*
X207841230Y-99404953D01*
X207899410Y-99334060D01*
X207904030Y-99325417D01*
X207981589Y-99180313D01*
X208032195Y-99013490D01*
X208045000Y-98883477D01*
X208045000Y-98883467D01*
X208049281Y-98840001D01*
X208045000Y-98796535D01*
X208045000Y-98392383D01*
X209816620Y-98392383D01*
X209816620Y-98650057D01*
X209866890Y-98902779D01*
X209965497Y-99140838D01*
X210108653Y-99355085D01*
X210290855Y-99537287D01*
X210505102Y-99680443D01*
X210743161Y-99779050D01*
X210995883Y-99829320D01*
X211253557Y-99829320D01*
X211506279Y-99779050D01*
X211744338Y-99680443D01*
X211958585Y-99537287D01*
X212140787Y-99355085D01*
X212283943Y-99140838D01*
X212373000Y-98925835D01*
X212373000Y-99500000D01*
X212375440Y-99524776D01*
X212382667Y-99548601D01*
X212394403Y-99570557D01*
X212410197Y-99589803D01*
X212429443Y-99605597D01*
X212451399Y-99617333D01*
X212475224Y-99624560D01*
X212500000Y-99627000D01*
X216175679Y-99627000D01*
X216255662Y-99680443D01*
X216493721Y-99779050D01*
X216746443Y-99829320D01*
X217004117Y-99829320D01*
X217256839Y-99779050D01*
X217494898Y-99680443D01*
X217574881Y-99627000D01*
X218100408Y-99627000D01*
X218076633Y-99650775D01*
X217933477Y-99865022D01*
X217834870Y-100103081D01*
X217784600Y-100355803D01*
X217784600Y-100613477D01*
X217834870Y-100866199D01*
X217933477Y-101104258D01*
X218076633Y-101318505D01*
X218258835Y-101500707D01*
X218473082Y-101643863D01*
X218711141Y-101742470D01*
X218963863Y-101792740D01*
X219221537Y-101792740D01*
X219474259Y-101742470D01*
X219712318Y-101643863D01*
X219926565Y-101500707D01*
X220108767Y-101318505D01*
X220251923Y-101104258D01*
X220302514Y-100982120D01*
X221373000Y-102052606D01*
X221373000Y-102803991D01*
X221303483Y-102636162D01*
X221160327Y-102421915D01*
X220978125Y-102239713D01*
X220763878Y-102096557D01*
X220525819Y-101997950D01*
X220273097Y-101947680D01*
X220015423Y-101947680D01*
X219762701Y-101997950D01*
X219524642Y-102096557D01*
X219310395Y-102239713D01*
X219128193Y-102421915D01*
X218985037Y-102636162D01*
X218886430Y-102874221D01*
X218836160Y-103126943D01*
X218836160Y-103384617D01*
X218886430Y-103637339D01*
X218985037Y-103875398D01*
X219128193Y-104089645D01*
X219310395Y-104271847D01*
X219524642Y-104415003D01*
X219762701Y-104513610D01*
X220015423Y-104563880D01*
X220273097Y-104563880D01*
X220525819Y-104513610D01*
X220763878Y-104415003D01*
X220978125Y-104271847D01*
X221160327Y-104089645D01*
X221303483Y-103875398D01*
X221373000Y-103707569D01*
X221373000Y-108942372D01*
X217416370Y-112404423D01*
X217394403Y-112429443D01*
X217382667Y-112451399D01*
X217375440Y-112475224D01*
X217373000Y-112500000D01*
X217373000Y-116000000D01*
X217375440Y-116024776D01*
X217382667Y-116048601D01*
X217394403Y-116070557D01*
X217410197Y-116089803D01*
X217429443Y-116105597D01*
X217451399Y-116117333D01*
X217475224Y-116124560D01*
X217500000Y-116127000D01*
X221000000Y-116127000D01*
X221032048Y-116122890D01*
X221055407Y-116114276D01*
X221076637Y-116101271D01*
X221094921Y-116084374D01*
X225094921Y-111584374D01*
X225105597Y-111570557D01*
X225117333Y-111548601D01*
X225124560Y-111524776D01*
X225127000Y-111500000D01*
X225127000Y-100500000D01*
X225123470Y-100470265D01*
X225115296Y-100446748D01*
X225102692Y-100425278D01*
X225086142Y-100406680D01*
X218586142Y-94406680D01*
X218570557Y-94394403D01*
X218548601Y-94382667D01*
X218524776Y-94375440D01*
X218500000Y-94373000D01*
X215000000Y-94373000D01*
X214964654Y-94378018D01*
X214941535Y-94387257D01*
X214920664Y-94400830D01*
X212420664Y-96400830D01*
X212410197Y-96410197D01*
X212394403Y-96429443D01*
X212382667Y-96451399D01*
X212375440Y-96475224D01*
X212373000Y-96500000D01*
X212373000Y-98116605D01*
X212283943Y-97901602D01*
X212140787Y-97687355D01*
X211958585Y-97505153D01*
X211744338Y-97361997D01*
X211506279Y-97263390D01*
X211253557Y-97213120D01*
X210995883Y-97213120D01*
X210743161Y-97263390D01*
X210505102Y-97361997D01*
X210290855Y-97505153D01*
X210108653Y-97687355D01*
X209965497Y-97901602D01*
X209866890Y-98139661D01*
X209816620Y-98392383D01*
X208045000Y-98392383D01*
X208045000Y-92858665D01*
X208565000Y-92858665D01*
X208565000Y-93141335D01*
X208620147Y-93418574D01*
X208728320Y-93679727D01*
X208885363Y-93914759D01*
X209085241Y-94114637D01*
X209320273Y-94271680D01*
X209581426Y-94379853D01*
X209858665Y-94435000D01*
X210141335Y-94435000D01*
X210418574Y-94379853D01*
X210679727Y-94271680D01*
X210914759Y-94114637D01*
X211114637Y-93914759D01*
X211271680Y-93679727D01*
X211379853Y-93418574D01*
X211435000Y-93141335D01*
X211435000Y-92858665D01*
X211379853Y-92581426D01*
X211271680Y-92320273D01*
X211114637Y-92085241D01*
X210914759Y-91885363D01*
X210679727Y-91728320D01*
X210418574Y-91620147D01*
X210141335Y-91565000D01*
X209858665Y-91565000D01*
X209581426Y-91620147D01*
X209320273Y-91728320D01*
X209085241Y-91885363D01*
X208885363Y-92085241D01*
X208728320Y-92320273D01*
X208620147Y-92581426D01*
X208565000Y-92858665D01*
X208045000Y-92858665D01*
X208045000Y-90858665D01*
X215565000Y-90858665D01*
X215565000Y-91141335D01*
X215620147Y-91418574D01*
X215728320Y-91679727D01*
X215885363Y-91914759D01*
X216085241Y-92114637D01*
X216320273Y-92271680D01*
X216581426Y-92379853D01*
X216858665Y-92435000D01*
X217141335Y-92435000D01*
X217418574Y-92379853D01*
X217679727Y-92271680D01*
X217914759Y-92114637D01*
X218114637Y-91914759D01*
X218271680Y-91679727D01*
X218379853Y-91418574D01*
X218435000Y-91141335D01*
X218435000Y-90858665D01*
X218379853Y-90581426D01*
X218271680Y-90320273D01*
X218114637Y-90085241D01*
X217914759Y-89885363D01*
X217679727Y-89728320D01*
X217418574Y-89620147D01*
X217141335Y-89565000D01*
X216858665Y-89565000D01*
X216581426Y-89620147D01*
X216320273Y-89728320D01*
X216085241Y-89885363D01*
X215885363Y-90085241D01*
X215728320Y-90320273D01*
X215620147Y-90581426D01*
X215565000Y-90858665D01*
X208045000Y-90858665D01*
X208045000Y-82194656D01*
X208106632Y-82153475D01*
X208313475Y-81946632D01*
X208430000Y-81772240D01*
X208546525Y-81946632D01*
X208753368Y-82153475D01*
X208940000Y-82278179D01*
X208940001Y-86662668D01*
X208936324Y-86700000D01*
X208940001Y-86737333D01*
X208949621Y-86835000D01*
X208950998Y-86848985D01*
X208994454Y-86992246D01*
X209065026Y-87124276D01*
X209136201Y-87211002D01*
X209160000Y-87240001D01*
X209188998Y-87263799D01*
X210601312Y-88676114D01*
X210565000Y-88858665D01*
X210565000Y-89141335D01*
X210620147Y-89418574D01*
X210728320Y-89679727D01*
X210885363Y-89914759D01*
X211085241Y-90114637D01*
X211320273Y-90271680D01*
X211581426Y-90379853D01*
X211858665Y-90435000D01*
X212141335Y-90435000D01*
X212418574Y-90379853D01*
X212679727Y-90271680D01*
X212914759Y-90114637D01*
X213114637Y-89914759D01*
X213271680Y-89679727D01*
X213379853Y-89418574D01*
X213435000Y-89141335D01*
X213435000Y-88858665D01*
X213379853Y-88581426D01*
X213271680Y-88320273D01*
X213114637Y-88085241D01*
X212914759Y-87885363D01*
X212679727Y-87728320D01*
X212418574Y-87620147D01*
X212141335Y-87565000D01*
X211858665Y-87565000D01*
X211676114Y-87601312D01*
X210460000Y-86385199D01*
X210460000Y-82278178D01*
X210646632Y-82153475D01*
X210853475Y-81946632D01*
X210970000Y-81772240D01*
X211086525Y-81946632D01*
X211240001Y-82100108D01*
X211240000Y-83781956D01*
X211085241Y-83885363D01*
X210885363Y-84085241D01*
X210728320Y-84320273D01*
X210620147Y-84581426D01*
X210565000Y-84858665D01*
X210565000Y-85141335D01*
X210620147Y-85418574D01*
X210728320Y-85679727D01*
X210885363Y-85914759D01*
X211085241Y-86114637D01*
X211320273Y-86271680D01*
X211581426Y-86379853D01*
X211858665Y-86435000D01*
X212141335Y-86435000D01*
X212418574Y-86379853D01*
X212679727Y-86271680D01*
X212914759Y-86114637D01*
X213114637Y-85914759D01*
X213271680Y-85679727D01*
X213379853Y-85418574D01*
X213435000Y-85141335D01*
X213435000Y-84858665D01*
X213379853Y-84581426D01*
X213271680Y-84320273D01*
X213114637Y-84085241D01*
X212914759Y-83885363D01*
X212760000Y-83781957D01*
X212760000Y-82391961D01*
X212943411Y-82315990D01*
X213186632Y-82153475D01*
X213393475Y-81946632D01*
X213555990Y-81703411D01*
X213667932Y-81433158D01*
X213725000Y-81146260D01*
X213725000Y-80853740D01*
X213694154Y-80698665D01*
X215565000Y-80698665D01*
X215565000Y-80981335D01*
X215620147Y-81258574D01*
X215728320Y-81519727D01*
X215885363Y-81754759D01*
X216085241Y-81954637D01*
X216320273Y-82111680D01*
X216581426Y-82219853D01*
X216858665Y-82275000D01*
X217141335Y-82275000D01*
X217418574Y-82219853D01*
X217679727Y-82111680D01*
X217914759Y-81954637D01*
X218064901Y-81804495D01*
X220515000Y-81804495D01*
X220515000Y-82195505D01*
X220591282Y-82579003D01*
X220740915Y-82940250D01*
X220958149Y-83265364D01*
X221234636Y-83541851D01*
X221559750Y-83759085D01*
X221920997Y-83908718D01*
X222304495Y-83985000D01*
X222695505Y-83985000D01*
X223079003Y-83908718D01*
X223440250Y-83759085D01*
X223765364Y-83541851D01*
X224041851Y-83265364D01*
X224259085Y-82940250D01*
X224408718Y-82579003D01*
X224485000Y-82195505D01*
X224485000Y-81804495D01*
X224408718Y-81420997D01*
X224259085Y-81059750D01*
X224041851Y-80734636D01*
X223765364Y-80458149D01*
X223440250Y-80240915D01*
X223079003Y-80091282D01*
X222695505Y-80015000D01*
X222304495Y-80015000D01*
X221920997Y-80091282D01*
X221559750Y-80240915D01*
X221234636Y-80458149D01*
X220958149Y-80734636D01*
X220740915Y-81059750D01*
X220591282Y-81420997D01*
X220515000Y-81804495D01*
X218064901Y-81804495D01*
X218114637Y-81754759D01*
X218271680Y-81519727D01*
X218379853Y-81258574D01*
X218435000Y-80981335D01*
X218435000Y-80698665D01*
X218379853Y-80421426D01*
X218271680Y-80160273D01*
X218114637Y-79925241D01*
X217914759Y-79725363D01*
X217679727Y-79568320D01*
X217418574Y-79460147D01*
X217141335Y-79405000D01*
X216858665Y-79405000D01*
X216581426Y-79460147D01*
X216320273Y-79568320D01*
X216085241Y-79725363D01*
X215885363Y-79925241D01*
X215728320Y-80160273D01*
X215620147Y-80421426D01*
X215565000Y-80698665D01*
X213694154Y-80698665D01*
X213667932Y-80566842D01*
X213555990Y-80296589D01*
X213393475Y-80053368D01*
X213186632Y-79846525D01*
X212943411Y-79684010D01*
X212673158Y-79572068D01*
X212386260Y-79515000D01*
X212093740Y-79515000D01*
X211806842Y-79572068D01*
X211536589Y-79684010D01*
X211293368Y-79846525D01*
X211086525Y-80053368D01*
X210970000Y-80227760D01*
X210853475Y-80053368D01*
X210646632Y-79846525D01*
X210403411Y-79684010D01*
X210133158Y-79572068D01*
X209846260Y-79515000D01*
X209553740Y-79515000D01*
X209266842Y-79572068D01*
X208996589Y-79684010D01*
X208753368Y-79846525D01*
X208546525Y-80053368D01*
X208430000Y-80227760D01*
X208313475Y-80053368D01*
X208106632Y-79846525D01*
X207863411Y-79684010D01*
X207593158Y-79572068D01*
X207306260Y-79515000D01*
X207013740Y-79515000D01*
X206726842Y-79572068D01*
X206456589Y-79684010D01*
X206213368Y-79846525D01*
X206006525Y-80053368D01*
X205890000Y-80227760D01*
X205773475Y-80053368D01*
X205566632Y-79846525D01*
X205323411Y-79684010D01*
X205053158Y-79572068D01*
X204766260Y-79515000D01*
X204473740Y-79515000D01*
X204186842Y-79572068D01*
X203916589Y-79684010D01*
X203673368Y-79846525D01*
X203466525Y-80053368D01*
X203350000Y-80227760D01*
X203233475Y-80053368D01*
X203026632Y-79846525D01*
X202783411Y-79684010D01*
X202513158Y-79572068D01*
X202226260Y-79515000D01*
X201933740Y-79515000D01*
X201646842Y-79572068D01*
X201376589Y-79684010D01*
X201133368Y-79846525D01*
X200926525Y-80053368D01*
X200810000Y-80227760D01*
X200693475Y-80053368D01*
X200486632Y-79846525D01*
X200243411Y-79684010D01*
X199973158Y-79572068D01*
X199686260Y-79515000D01*
X199393740Y-79515000D01*
X199106842Y-79572068D01*
X198836589Y-79684010D01*
X198593368Y-79846525D01*
X198386525Y-80053368D01*
X198270000Y-80227760D01*
X198153475Y-80053368D01*
X197946632Y-79846525D01*
X197703411Y-79684010D01*
X197433158Y-79572068D01*
X197146260Y-79515000D01*
X196853740Y-79515000D01*
X196566842Y-79572068D01*
X196296589Y-79684010D01*
X196053368Y-79846525D01*
X195846525Y-80053368D01*
X195730000Y-80227760D01*
X195613475Y-80053368D01*
X195406632Y-79846525D01*
X195163411Y-79684010D01*
X194893158Y-79572068D01*
X194606260Y-79515000D01*
X194313740Y-79515000D01*
X194026842Y-79572068D01*
X193756589Y-79684010D01*
X193513368Y-79846525D01*
X193306525Y-80053368D01*
X193190000Y-80227760D01*
X193073475Y-80053368D01*
X192866632Y-79846525D01*
X192623411Y-79684010D01*
X192353158Y-79572068D01*
X192066260Y-79515000D01*
X191773740Y-79515000D01*
X191486842Y-79572068D01*
X191216589Y-79684010D01*
X190973368Y-79846525D01*
X190766525Y-80053368D01*
X190650000Y-80227760D01*
X190533475Y-80053368D01*
X190326632Y-79846525D01*
X190083411Y-79684010D01*
X189813158Y-79572068D01*
X189526260Y-79515000D01*
X189233740Y-79515000D01*
X188946842Y-79572068D01*
X188676589Y-79684010D01*
X188433368Y-79846525D01*
X188226525Y-80053368D01*
X188110000Y-80227760D01*
X187993475Y-80053368D01*
X187786632Y-79846525D01*
X187543411Y-79684010D01*
X187273158Y-79572068D01*
X186986260Y-79515000D01*
X186693740Y-79515000D01*
X186406842Y-79572068D01*
X186136589Y-79684010D01*
X185893368Y-79846525D01*
X185761513Y-79978380D01*
X185739502Y-79905820D01*
X185680537Y-79795506D01*
X185601185Y-79698815D01*
X185504494Y-79619463D01*
X185394180Y-79560498D01*
X185274482Y-79524188D01*
X185150000Y-79511928D01*
X183450000Y-79511928D01*
X183325518Y-79524188D01*
X183205820Y-79560498D01*
X183095506Y-79619463D01*
X182998815Y-79698815D01*
X182919463Y-79795506D01*
X182860498Y-79905820D01*
X182824188Y-80025518D01*
X182811928Y-80150000D01*
X182811928Y-81850000D01*
X182824188Y-81974482D01*
X182860498Y-82094180D01*
X182919463Y-82204494D01*
X182998815Y-82301185D01*
X183095506Y-82380537D01*
X183205820Y-82439502D01*
X183325518Y-82475812D01*
X183450000Y-82488072D01*
X185150000Y-82488072D01*
X185274482Y-82475812D01*
X185394180Y-82439502D01*
X185504494Y-82380537D01*
X185601185Y-82301185D01*
X185680537Y-82204494D01*
X185739502Y-82094180D01*
X185761513Y-82021620D01*
X185893368Y-82153475D01*
X186136589Y-82315990D01*
X186406842Y-82427932D01*
X186693740Y-82485000D01*
X186986260Y-82485000D01*
X187273158Y-82427932D01*
X187418601Y-82367688D01*
X187321063Y-82465226D01*
X187207795Y-82634744D01*
X187129774Y-82823102D01*
X187090000Y-83023061D01*
X187090000Y-83226939D01*
X187129774Y-83426898D01*
X187207689Y-83615000D01*
X186038454Y-83615000D01*
X185990256Y-83582795D01*
X185801898Y-83504774D01*
X185601939Y-83465000D01*
X185398061Y-83465000D01*
X185198102Y-83504774D01*
X185009744Y-83582795D01*
X184840226Y-83696063D01*
X184696063Y-83840226D01*
X184582795Y-84009744D01*
X184504774Y-84198102D01*
X184465000Y-84398061D01*
X184465000Y-84601939D01*
X184504774Y-84801898D01*
X184582795Y-84990256D01*
X184632737Y-85065000D01*
X184588454Y-85065000D01*
X184540256Y-85032795D01*
X184351898Y-84954774D01*
X184151939Y-84915000D01*
X183948061Y-84915000D01*
X183748102Y-84954774D01*
X183559744Y-85032795D01*
X183390226Y-85146063D01*
X183246063Y-85290226D01*
X183132795Y-85459744D01*
X183054774Y-85648102D01*
X183041154Y-85716574D01*
X179885000Y-82560420D01*
X179885000Y-81974521D01*
X179914759Y-81954637D01*
X180114637Y-81754759D01*
X180271680Y-81519727D01*
X180379853Y-81258574D01*
X180435000Y-80981335D01*
X180435000Y-80698665D01*
X180379853Y-80421426D01*
X180271680Y-80160273D01*
X180114637Y-79925241D01*
X179914759Y-79725363D01*
X179679727Y-79568320D01*
X179418574Y-79460147D01*
X179141335Y-79405000D01*
X178858665Y-79405000D01*
X178581426Y-79460147D01*
X178320273Y-79568320D01*
X178085241Y-79725363D01*
X177885363Y-79925241D01*
X177728320Y-80160273D01*
X177620147Y-80421426D01*
X177565000Y-80698665D01*
X177565000Y-80981335D01*
X177620147Y-81258574D01*
X177728320Y-81519727D01*
X177885363Y-81754759D01*
X178085241Y-81954637D01*
X178115001Y-81974522D01*
X178115001Y-82883519D01*
X178110719Y-82926998D01*
X178127805Y-83100488D01*
X178178412Y-83267311D01*
X178260590Y-83421057D01*
X178343468Y-83522044D01*
X178343471Y-83522047D01*
X178371184Y-83555815D01*
X178404952Y-83583528D01*
X196343470Y-101522047D01*
X196371183Y-101555815D01*
X196404951Y-101583528D01*
X196404953Y-101583530D01*
X196467638Y-101634974D01*
X196505941Y-101666409D01*
X196659687Y-101748587D01*
X196826510Y-101799193D01*
X196956523Y-101811998D01*
X196956533Y-101811998D01*
X196999999Y-101816279D01*
X197043465Y-101811998D01*
X200029533Y-101811998D01*
X200073002Y-101816279D01*
X200116471Y-101811998D01*
X200116479Y-101811998D01*
X200138602Y-101809819D01*
X191333422Y-110615000D01*
X183645949Y-110615000D01*
X183738650Y-110391199D01*
X183788920Y-110138477D01*
X183788920Y-109880803D01*
X183738650Y-109628081D01*
X183640043Y-109390022D01*
X183496887Y-109175775D01*
X183314685Y-108993573D01*
X183100438Y-108850417D01*
X182862379Y-108751810D01*
X182609657Y-108701540D01*
X182351983Y-108701540D01*
X182099261Y-108751810D01*
X181861202Y-108850417D01*
X181646955Y-108993573D01*
X181464753Y-109175775D01*
X181321597Y-109390022D01*
X181222990Y-109628081D01*
X181172720Y-109880803D01*
X181172720Y-110138477D01*
X181222990Y-110391199D01*
X181315691Y-110615000D01*
X180684309Y-110615000D01*
X180777010Y-110391199D01*
X180827280Y-110138477D01*
X180827280Y-109880803D01*
X180777010Y-109628081D01*
X180678403Y-109390022D01*
X180535247Y-109175775D01*
X180353045Y-108993573D01*
X180138798Y-108850417D01*
X179900739Y-108751810D01*
X179648017Y-108701540D01*
X179390343Y-108701540D01*
X179137621Y-108751810D01*
X178899562Y-108850417D01*
X178685315Y-108993573D01*
X178503113Y-109175775D01*
X178359957Y-109390022D01*
X178261350Y-109628081D01*
X178249537Y-109687466D01*
X177958479Y-109396407D01*
X178054583Y-109252578D01*
X178153190Y-109014519D01*
X178203460Y-108761797D01*
X178203460Y-108504123D01*
X183796540Y-108504123D01*
X183796540Y-108761797D01*
X183846810Y-109014519D01*
X183945417Y-109252578D01*
X184088573Y-109466825D01*
X184270775Y-109649027D01*
X184485022Y-109792183D01*
X184723081Y-109890790D01*
X184975803Y-109941060D01*
X185233477Y-109941060D01*
X185486199Y-109890790D01*
X185724258Y-109792183D01*
X185938505Y-109649027D01*
X186120707Y-109466825D01*
X186263863Y-109252578D01*
X186362470Y-109014519D01*
X186412740Y-108761797D01*
X186412740Y-108504123D01*
X186362470Y-108251401D01*
X186263863Y-108013342D01*
X186120707Y-107799095D01*
X185938505Y-107616893D01*
X185724258Y-107473737D01*
X185486199Y-107375130D01*
X185233477Y-107324860D01*
X184975803Y-107324860D01*
X184723081Y-107375130D01*
X184485022Y-107473737D01*
X184270775Y-107616893D01*
X184088573Y-107799095D01*
X183945417Y-108013342D01*
X183846810Y-108251401D01*
X183796540Y-108504123D01*
X178203460Y-108504123D01*
X178153190Y-108251401D01*
X178054583Y-108013342D01*
X177911427Y-107799095D01*
X177729225Y-107616893D01*
X177514978Y-107473737D01*
X177276919Y-107375130D01*
X177024197Y-107324860D01*
X176766523Y-107324860D01*
X176513801Y-107375130D01*
X176275742Y-107473737D01*
X176098880Y-107591913D01*
X176098880Y-107159492D01*
X176229947Y-107028425D01*
X176373103Y-106814178D01*
X176471710Y-106576119D01*
X176521980Y-106323397D01*
X176521980Y-106065723D01*
X185478020Y-106065723D01*
X185478020Y-106323397D01*
X185528290Y-106576119D01*
X185626897Y-106814178D01*
X185770053Y-107028425D01*
X185952255Y-107210627D01*
X186166502Y-107353783D01*
X186404561Y-107452390D01*
X186657283Y-107502660D01*
X186914957Y-107502660D01*
X187167679Y-107452390D01*
X187405738Y-107353783D01*
X187619985Y-107210627D01*
X187802187Y-107028425D01*
X187945343Y-106814178D01*
X188043950Y-106576119D01*
X188094220Y-106323397D01*
X188094220Y-106065723D01*
X188043950Y-105813001D01*
X187945343Y-105574942D01*
X187802187Y-105360695D01*
X187619985Y-105178493D01*
X187405738Y-105035337D01*
X187167679Y-104936730D01*
X186914957Y-104886460D01*
X186657283Y-104886460D01*
X186404561Y-104936730D01*
X186166502Y-105035337D01*
X185952255Y-105178493D01*
X185770053Y-105360695D01*
X185626897Y-105574942D01*
X185528290Y-105813001D01*
X185478020Y-106065723D01*
X176521980Y-106065723D01*
X176471710Y-105813001D01*
X176373103Y-105574942D01*
X176229947Y-105360695D01*
X176047745Y-105178493D01*
X175833498Y-105035337D01*
X175595439Y-104936730D01*
X175342717Y-104886460D01*
X175085043Y-104886460D01*
X174832321Y-104936730D01*
X174594262Y-105035337D01*
X174380015Y-105178493D01*
X174197813Y-105360695D01*
X174054657Y-105574942D01*
X173956050Y-105813001D01*
X173905780Y-106065723D01*
X173627000Y-106065723D01*
X173627000Y-103707569D01*
X173696517Y-103875398D01*
X173839673Y-104089645D01*
X174021875Y-104271847D01*
X174236122Y-104415003D01*
X174474181Y-104513610D01*
X174726903Y-104563880D01*
X174984577Y-104563880D01*
X175237299Y-104513610D01*
X175475358Y-104415003D01*
X175689605Y-104271847D01*
X175871807Y-104089645D01*
X176014963Y-103875398D01*
X176113570Y-103637339D01*
X176163840Y-103384617D01*
X176163840Y-103126943D01*
X185836160Y-103126943D01*
X185836160Y-103384617D01*
X185886430Y-103637339D01*
X185985037Y-103875398D01*
X186128193Y-104089645D01*
X186310395Y-104271847D01*
X186524642Y-104415003D01*
X186762701Y-104513610D01*
X187015423Y-104563880D01*
X187273097Y-104563880D01*
X187525819Y-104513610D01*
X187763878Y-104415003D01*
X187978125Y-104271847D01*
X188160327Y-104089645D01*
X188303483Y-103875398D01*
X188402090Y-103637339D01*
X188452360Y-103384617D01*
X188452360Y-103126943D01*
X188402090Y-102874221D01*
X188303483Y-102636162D01*
X188160327Y-102421915D01*
X187978125Y-102239713D01*
X187763878Y-102096557D01*
X187525819Y-101997950D01*
X187273097Y-101947680D01*
X187015423Y-101947680D01*
X186762701Y-101997950D01*
X186524642Y-102096557D01*
X186310395Y-102239713D01*
X186128193Y-102421915D01*
X185985037Y-102636162D01*
X185886430Y-102874221D01*
X185836160Y-103126943D01*
X176163840Y-103126943D01*
X176113570Y-102874221D01*
X176014963Y-102636162D01*
X175871807Y-102421915D01*
X175689605Y-102239713D01*
X175475358Y-102096557D01*
X175237299Y-101997950D01*
X174984577Y-101947680D01*
X174726903Y-101947680D01*
X174474181Y-101997950D01*
X174236122Y-102096557D01*
X174021875Y-102239713D01*
X173839673Y-102421915D01*
X173696517Y-102636162D01*
X173627000Y-102803991D01*
X173627000Y-100052606D01*
X174052606Y-99627000D01*
X174915008Y-99627000D01*
X174891233Y-99650775D01*
X174748077Y-99865022D01*
X174649470Y-100103081D01*
X174599200Y-100355803D01*
X174599200Y-100613477D01*
X174649470Y-100866199D01*
X174748077Y-101104258D01*
X174891233Y-101318505D01*
X175073435Y-101500707D01*
X175287682Y-101643863D01*
X175525741Y-101742470D01*
X175778463Y-101792740D01*
X176036137Y-101792740D01*
X176288859Y-101742470D01*
X176526918Y-101643863D01*
X176741165Y-101500707D01*
X176923367Y-101318505D01*
X177066523Y-101104258D01*
X177165130Y-100866199D01*
X177215400Y-100613477D01*
X177215400Y-100355803D01*
X184784600Y-100355803D01*
X184784600Y-100613477D01*
X184834870Y-100866199D01*
X184933477Y-101104258D01*
X185076633Y-101318505D01*
X185258835Y-101500707D01*
X185473082Y-101643863D01*
X185711141Y-101742470D01*
X185963863Y-101792740D01*
X186221537Y-101792740D01*
X186474259Y-101742470D01*
X186712318Y-101643863D01*
X186926565Y-101500707D01*
X187108767Y-101318505D01*
X187251923Y-101104258D01*
X187350530Y-100866199D01*
X187400800Y-100613477D01*
X187400800Y-100355803D01*
X187350530Y-100103081D01*
X187251923Y-99865022D01*
X187108767Y-99650775D01*
X186926565Y-99468573D01*
X186712318Y-99325417D01*
X186474259Y-99226810D01*
X186221537Y-99176540D01*
X185963863Y-99176540D01*
X185711141Y-99226810D01*
X185473082Y-99325417D01*
X185258835Y-99468573D01*
X185076633Y-99650775D01*
X184933477Y-99865022D01*
X184834870Y-100103081D01*
X184784600Y-100355803D01*
X177215400Y-100355803D01*
X177165130Y-100103081D01*
X177066523Y-99865022D01*
X176923367Y-99650775D01*
X176899592Y-99627000D01*
X177425119Y-99627000D01*
X177505102Y-99680443D01*
X177743161Y-99779050D01*
X177995883Y-99829320D01*
X178253557Y-99829320D01*
X178506279Y-99779050D01*
X178744338Y-99680443D01*
X178824321Y-99627000D01*
X183000000Y-99627000D01*
X183024776Y-99624560D01*
X183048601Y-99617333D01*
X183070557Y-99605597D01*
X183089803Y-99589803D01*
X183100501Y-99576767D01*
X183255662Y-99680443D01*
X183493721Y-99779050D01*
X183746443Y-99829320D01*
X184004117Y-99829320D01*
X184256839Y-99779050D01*
X184494898Y-99680443D01*
X184709145Y-99537287D01*
X184891347Y-99355085D01*
X185034503Y-99140838D01*
X185133110Y-98902779D01*
X185183380Y-98650057D01*
X185183380Y-98392383D01*
X185133110Y-98139661D01*
X185034503Y-97901602D01*
X184891347Y-97687355D01*
X184709145Y-97505153D01*
X184494898Y-97361997D01*
X184256839Y-97263390D01*
X184004117Y-97213120D01*
X183746443Y-97213120D01*
X183493721Y-97263390D01*
X183255662Y-97361997D01*
X183127000Y-97447967D01*
X183127000Y-96500000D01*
X183126223Y-96485975D01*
X183121062Y-96461620D01*
X183111248Y-96438739D01*
X183097159Y-96418213D01*
X183079336Y-96400830D01*
X180579336Y-94400830D01*
X180548601Y-94382667D01*
X180524776Y-94375440D01*
X180500000Y-94373000D01*
X174500000Y-94373000D01*
X174483564Y-94374068D01*
X174459312Y-94379694D01*
X174436623Y-94389944D01*
X174416370Y-94404423D01*
X170416370Y-97904423D01*
X170394403Y-97929443D01*
X170382667Y-97951399D01*
X170375440Y-97975224D01*
X170373000Y-98000000D01*
X170160000Y-98000000D01*
X170160000Y-92858665D01*
X183565000Y-92858665D01*
X183565000Y-93141335D01*
X183620147Y-93418574D01*
X183728320Y-93679727D01*
X183885363Y-93914759D01*
X184085241Y-94114637D01*
X184320273Y-94271680D01*
X184581426Y-94379853D01*
X184858665Y-94435000D01*
X185141335Y-94435000D01*
X185418574Y-94379853D01*
X185679727Y-94271680D01*
X185914759Y-94114637D01*
X186114637Y-93914759D01*
X186271680Y-93679727D01*
X186379853Y-93418574D01*
X186435000Y-93141335D01*
X186435000Y-92858665D01*
X186379853Y-92581426D01*
X186271680Y-92320273D01*
X186114637Y-92085241D01*
X185914759Y-91885363D01*
X185679727Y-91728320D01*
X185418574Y-91620147D01*
X185141335Y-91565000D01*
X184858665Y-91565000D01*
X184581426Y-91620147D01*
X184320273Y-91728320D01*
X184085241Y-91885363D01*
X183885363Y-92085241D01*
X183728320Y-92320273D01*
X183620147Y-92581426D01*
X183565000Y-92858665D01*
X170160000Y-92858665D01*
X170160000Y-90858665D01*
X177565000Y-90858665D01*
X177565000Y-91141335D01*
X177620147Y-91418574D01*
X177728320Y-91679727D01*
X177885363Y-91914759D01*
X178085241Y-92114637D01*
X178320273Y-92271680D01*
X178581426Y-92379853D01*
X178858665Y-92435000D01*
X179141335Y-92435000D01*
X179418574Y-92379853D01*
X179679727Y-92271680D01*
X179914759Y-92114637D01*
X180114637Y-91914759D01*
X180271680Y-91679727D01*
X180379853Y-91418574D01*
X180435000Y-91141335D01*
X180435000Y-90858665D01*
X180379853Y-90581426D01*
X180271680Y-90320273D01*
X180114637Y-90085241D01*
X179914759Y-89885363D01*
X179679727Y-89728320D01*
X179418574Y-89620147D01*
X179141335Y-89565000D01*
X178858665Y-89565000D01*
X178581426Y-89620147D01*
X178320273Y-89728320D01*
X178085241Y-89885363D01*
X177885363Y-90085241D01*
X177728320Y-90320273D01*
X177620147Y-90581426D01*
X177565000Y-90858665D01*
X170160000Y-90858665D01*
X170160000Y-81804495D01*
X171015000Y-81804495D01*
X171015000Y-82195505D01*
X171091282Y-82579003D01*
X171240915Y-82940250D01*
X171458149Y-83265364D01*
X171734636Y-83541851D01*
X172059750Y-83759085D01*
X172420997Y-83908718D01*
X172804495Y-83985000D01*
X173195505Y-83985000D01*
X173579003Y-83908718D01*
X173940250Y-83759085D01*
X174265364Y-83541851D01*
X174541851Y-83265364D01*
X174759085Y-82940250D01*
X174908718Y-82579003D01*
X174985000Y-82195505D01*
X174985000Y-81804495D01*
X174908718Y-81420997D01*
X174759085Y-81059750D01*
X174541851Y-80734636D01*
X174265364Y-80458149D01*
X173940250Y-80240915D01*
X173579003Y-80091282D01*
X173195505Y-80015000D01*
X172804495Y-80015000D01*
X172420997Y-80091282D01*
X172059750Y-80240915D01*
X171734636Y-80458149D01*
X171458149Y-80734636D01*
X171240915Y-81059750D01*
X171091282Y-81420997D01*
X171015000Y-81804495D01*
X170160000Y-81804495D01*
X170160000Y-79160000D01*
X225340000Y-79160000D01*
X225340001Y-129840000D01*
G36*
X200460147Y-85418574D02*
G01*
X200568320Y-85679727D01*
X200725363Y-85914759D01*
X200925241Y-86114637D01*
X201160273Y-86271680D01*
X201421426Y-86379853D01*
X201698665Y-86435000D01*
X201981335Y-86435000D01*
X202258574Y-86379853D01*
X202519727Y-86271680D01*
X202615001Y-86208020D01*
X202615001Y-87791980D01*
X202519727Y-87728320D01*
X202258574Y-87620147D01*
X201981335Y-87565000D01*
X201698665Y-87565000D01*
X201421426Y-87620147D01*
X201160273Y-87728320D01*
X200925241Y-87885363D01*
X200725363Y-88085241D01*
X200568320Y-88320273D01*
X200460147Y-88581426D01*
X200405000Y-88858665D01*
X200405000Y-89141335D01*
X200460147Y-89418574D01*
X200568320Y-89679727D01*
X200725363Y-89914759D01*
X200925241Y-90114637D01*
X201160273Y-90271680D01*
X201421426Y-90379853D01*
X201698665Y-90435000D01*
X201981335Y-90435000D01*
X202258574Y-90379853D01*
X202519727Y-90271680D01*
X202615001Y-90208020D01*
X202615000Y-99333421D01*
X202035000Y-99913421D01*
X202035000Y-99898061D01*
X201995226Y-99698102D01*
X201917205Y-99509744D01*
X201803937Y-99340226D01*
X201659774Y-99196063D01*
X201490256Y-99082795D01*
X201301898Y-99004774D01*
X201101939Y-98965000D01*
X200898061Y-98965000D01*
X200698102Y-99004774D01*
X200509744Y-99082795D01*
X200340226Y-99196063D01*
X200196063Y-99340226D01*
X200082795Y-99509744D01*
X200004774Y-99698102D01*
X199993465Y-99754956D01*
X199706424Y-100041998D01*
X199035000Y-100041998D01*
X199035000Y-99898061D01*
X198995226Y-99698102D01*
X198917205Y-99509744D01*
X198803937Y-99340226D01*
X198659774Y-99196063D01*
X198490256Y-99082795D01*
X198301898Y-99004774D01*
X198245044Y-98993465D01*
X196045000Y-96793422D01*
X196045000Y-94134521D01*
X196074759Y-94114637D01*
X196274637Y-93914759D01*
X196431680Y-93679727D01*
X196539853Y-93418574D01*
X196595000Y-93141335D01*
X196595000Y-92858665D01*
X198405000Y-92858665D01*
X198405000Y-93141335D01*
X198460147Y-93418574D01*
X198568320Y-93679727D01*
X198725363Y-93914759D01*
X198925241Y-94114637D01*
X199160273Y-94271680D01*
X199421426Y-94379853D01*
X199698665Y-94435000D01*
X199981335Y-94435000D01*
X200258574Y-94379853D01*
X200519727Y-94271680D01*
X200754759Y-94114637D01*
X200954637Y-93914759D01*
X201111680Y-93679727D01*
X201219853Y-93418574D01*
X201275000Y-93141335D01*
X201275000Y-92858665D01*
X201219853Y-92581426D01*
X201111680Y-92320273D01*
X200954637Y-92085241D01*
X200754759Y-91885363D01*
X200519727Y-91728320D01*
X200258574Y-91620147D01*
X199981335Y-91565000D01*
X199698665Y-91565000D01*
X199421426Y-91620147D01*
X199160273Y-91728320D01*
X198925241Y-91885363D01*
X198725363Y-92085241D01*
X198568320Y-92320273D01*
X198460147Y-92581426D01*
X198405000Y-92858665D01*
X196595000Y-92858665D01*
X196539853Y-92581426D01*
X196431680Y-92320273D01*
X196274637Y-92085241D01*
X196074759Y-91885363D01*
X195839727Y-91728320D01*
X195578574Y-91620147D01*
X195301335Y-91565000D01*
X195018665Y-91565000D01*
X194741426Y-91620147D01*
X194480273Y-91728320D01*
X194245241Y-91885363D01*
X194045363Y-92085241D01*
X193888320Y-92320273D01*
X193780147Y-92581426D01*
X193725000Y-92858665D01*
X193725000Y-93141335D01*
X193780147Y-93418574D01*
X193888320Y-93679727D01*
X194045363Y-93914759D01*
X194245241Y-94114637D01*
X194275000Y-94134521D01*
X194275001Y-96950420D01*
X184283426Y-86958846D01*
X184351898Y-86945226D01*
X184540256Y-86867205D01*
X184588454Y-86835000D01*
X199079533Y-86835000D01*
X199123002Y-86839281D01*
X199166471Y-86835000D01*
X199166479Y-86835000D01*
X199296492Y-86822195D01*
X199463315Y-86771589D01*
X199617061Y-86689411D01*
X199751819Y-86578817D01*
X199779536Y-86545044D01*
X200135044Y-86189536D01*
X200168817Y-86161819D01*
X200279411Y-86027061D01*
X200361589Y-85873315D01*
X200412195Y-85706492D01*
X200425000Y-85576479D01*
X200425000Y-85576469D01*
X200429281Y-85533003D01*
X200425000Y-85489537D01*
X200425000Y-85241880D01*
X200460147Y-85418574D01*
G37*
X200460147Y-85418574D02*
X200568320Y-85679727D01*
X200725363Y-85914759D01*
X200925241Y-86114637D01*
X201160273Y-86271680D01*
X201421426Y-86379853D01*
X201698665Y-86435000D01*
X201981335Y-86435000D01*
X202258574Y-86379853D01*
X202519727Y-86271680D01*
X202615001Y-86208020D01*
X202615001Y-87791980D01*
X202519727Y-87728320D01*
X202258574Y-87620147D01*
X201981335Y-87565000D01*
X201698665Y-87565000D01*
X201421426Y-87620147D01*
X201160273Y-87728320D01*
X200925241Y-87885363D01*
X200725363Y-88085241D01*
X200568320Y-88320273D01*
X200460147Y-88581426D01*
X200405000Y-88858665D01*
X200405000Y-89141335D01*
X200460147Y-89418574D01*
X200568320Y-89679727D01*
X200725363Y-89914759D01*
X200925241Y-90114637D01*
X201160273Y-90271680D01*
X201421426Y-90379853D01*
X201698665Y-90435000D01*
X201981335Y-90435000D01*
X202258574Y-90379853D01*
X202519727Y-90271680D01*
X202615001Y-90208020D01*
X202615000Y-99333421D01*
X202035000Y-99913421D01*
X202035000Y-99898061D01*
X201995226Y-99698102D01*
X201917205Y-99509744D01*
X201803937Y-99340226D01*
X201659774Y-99196063D01*
X201490256Y-99082795D01*
X201301898Y-99004774D01*
X201101939Y-98965000D01*
X200898061Y-98965000D01*
X200698102Y-99004774D01*
X200509744Y-99082795D01*
X200340226Y-99196063D01*
X200196063Y-99340226D01*
X200082795Y-99509744D01*
X200004774Y-99698102D01*
X199993465Y-99754956D01*
X199706424Y-100041998D01*
X199035000Y-100041998D01*
X199035000Y-99898061D01*
X198995226Y-99698102D01*
X198917205Y-99509744D01*
X198803937Y-99340226D01*
X198659774Y-99196063D01*
X198490256Y-99082795D01*
X198301898Y-99004774D01*
X198245044Y-98993465D01*
X196045000Y-96793422D01*
X196045000Y-94134521D01*
X196074759Y-94114637D01*
X196274637Y-93914759D01*
X196431680Y-93679727D01*
X196539853Y-93418574D01*
X196595000Y-93141335D01*
X196595000Y-92858665D01*
X198405000Y-92858665D01*
X198405000Y-93141335D01*
X198460147Y-93418574D01*
X198568320Y-93679727D01*
X198725363Y-93914759D01*
X198925241Y-94114637D01*
X199160273Y-94271680D01*
X199421426Y-94379853D01*
X199698665Y-94435000D01*
X199981335Y-94435000D01*
X200258574Y-94379853D01*
X200519727Y-94271680D01*
X200754759Y-94114637D01*
X200954637Y-93914759D01*
X201111680Y-93679727D01*
X201219853Y-93418574D01*
X201275000Y-93141335D01*
X201275000Y-92858665D01*
X201219853Y-92581426D01*
X201111680Y-92320273D01*
X200954637Y-92085241D01*
X200754759Y-91885363D01*
X200519727Y-91728320D01*
X200258574Y-91620147D01*
X199981335Y-91565000D01*
X199698665Y-91565000D01*
X199421426Y-91620147D01*
X199160273Y-91728320D01*
X198925241Y-91885363D01*
X198725363Y-92085241D01*
X198568320Y-92320273D01*
X198460147Y-92581426D01*
X198405000Y-92858665D01*
X196595000Y-92858665D01*
X196539853Y-92581426D01*
X196431680Y-92320273D01*
X196274637Y-92085241D01*
X196074759Y-91885363D01*
X195839727Y-91728320D01*
X195578574Y-91620147D01*
X195301335Y-91565000D01*
X195018665Y-91565000D01*
X194741426Y-91620147D01*
X194480273Y-91728320D01*
X194245241Y-91885363D01*
X194045363Y-92085241D01*
X193888320Y-92320273D01*
X193780147Y-92581426D01*
X193725000Y-92858665D01*
X193725000Y-93141335D01*
X193780147Y-93418574D01*
X193888320Y-93679727D01*
X194045363Y-93914759D01*
X194245241Y-94114637D01*
X194275000Y-94134521D01*
X194275001Y-96950420D01*
X184283426Y-86958846D01*
X184351898Y-86945226D01*
X184540256Y-86867205D01*
X184588454Y-86835000D01*
X199079533Y-86835000D01*
X199123002Y-86839281D01*
X199166471Y-86835000D01*
X199166479Y-86835000D01*
X199296492Y-86822195D01*
X199463315Y-86771589D01*
X199617061Y-86689411D01*
X199751819Y-86578817D01*
X199779536Y-86545044D01*
X200135044Y-86189536D01*
X200168817Y-86161819D01*
X200279411Y-86027061D01*
X200361589Y-85873315D01*
X200412195Y-85706492D01*
X200425000Y-85576479D01*
X200425000Y-85576469D01*
X200429281Y-85533003D01*
X200425000Y-85489537D01*
X200425000Y-85241880D01*
X200460147Y-85418574D01*
G04 #@! TD*
M02*
