M48
; DRILL file {KiCad 5.1.6} date Mon Aug 10 14:59:49 2020
; FORMAT={3:3/ absolute / metric / suppress leading zeros}
; #@! TF.CreationDate,2020-08-10T14:59:49+02:00
; #@! TF.GenerationSoftware,Kicad,Pcbnew,5.1.6
FMAT,2
METRIC,TZ
T1C0.400
T2C0.800
T3C0.838
T4C1.000
T5C2.700
%
G90
G05
T1
X184000Y-89500
X184050Y-85950
X185500Y-84500
X188125Y-83125
X190500Y-96000
X192300Y-113250
X194000Y-121000
X196500Y-87500
X198000Y-100000
X201000Y-100000
X202000Y-95000
X206500Y-111000
X210200Y-121500
X212700Y-121500
X216500Y-119500
T2
X217000Y-80840
X217000Y-91000
X179000Y-80840
X179000Y-91000
X174000Y-114000
X174000Y-124160
X201840Y-89000
X212000Y-89000
X185000Y-93000
X195160Y-93000
X219500Y-114000
X219500Y-124160
X199840Y-93000
X210000Y-93000
X188000Y-121000
X198160Y-121000
X186000Y-116000
X196160Y-116000
X201840Y-85000
X212000Y-85000
T3
X174856Y-103256
X175214Y-106195
X175907Y-100485
X176895Y-108633
X178125Y-98521
X179519Y-110010
X181000Y-97813
X182481Y-110010
X183875Y-98521
X185105Y-108633
X186093Y-100485
X186786Y-106195
X187144Y-103256
X207856Y-103256
X208214Y-106195
X208907Y-100485
X209895Y-108633
X211125Y-98521
X212519Y-110010
X214000Y-97813
X215481Y-110010
X216875Y-98521
X218105Y-108633
X219093Y-100485
X219786Y-106195
X220144Y-103256
T4
X175500Y-128000
X178040Y-128000
X180580Y-128000
X183120Y-128000
X184300Y-81000
X186840Y-81000
X189380Y-81000
X191920Y-81000
X194460Y-81000
X197000Y-81000
X199540Y-81000
X202080Y-81000
X204620Y-81000
X207160Y-81000
X209700Y-81000
X212240Y-81000
X188560Y-128000
X191100Y-128000
X193640Y-128000
X196180Y-128000
X198720Y-128000
X201260Y-128000
X203800Y-128000
X206340Y-128000
X208880Y-128000
X211420Y-128000
X213960Y-128000
X216500Y-128000
T5
X223000Y-127500
X173000Y-82000
X222500Y-82000
T0
M30
